<?xml version="1.0" encoding="UTF-8"?>
<svg xmlns="http://www.w3.org/2000/svg" xmlns:xlink="http://www.w3.org/1999/xlink" width="3102pt" height="1753pt" viewBox="0 0 3102 1753" version="1.1">
<g id="surface106103">
<path style=" stroke:none;fill-rule:evenodd;fill:rgb(0%,0%,0%);fill-opacity:1;" d="M 385.546875 404.5 C 385.546875 391.054688 374.648438 380.15625 361.203125 380.15625 C 347.757813 380.15625 336.859375 391.054688 336.859375 404.5 C 336.859375 417.941406 347.757813 428.839844 361.203125 428.839844 C 374.648438 428.839844 385.546875 417.941406 385.546875 404.5 Z M 385.546875 404.5 "/>
<path style=" stroke:none;fill-rule:evenodd;fill:rgb(0%,0%,0%);fill-opacity:1;" d="M 266.308594 557.808594 C 266.308594 544.367188 255.40625 533.46875 241.964844 533.46875 C 228.519531 533.46875 217.621094 544.367188 217.621094 557.808594 C 217.621094 571.253906 228.519531 582.152344 241.964844 582.152344 C 255.40625 582.152344 266.308594 571.253906 266.308594 557.808594 Z M 266.308594 557.808594 "/>
<path style=" stroke:none;fill-rule:evenodd;fill:rgb(0%,0%,0%);fill-opacity:1;" d="M 266.308594 841.714844 C 266.308594 828.269531 255.40625 817.371094 241.964844 817.371094 C 228.519531 817.371094 217.621094 828.269531 217.621094 841.714844 C 217.621094 855.160156 228.519531 866.058594 241.964844 866.058594 C 255.40625 866.058594 266.308594 855.160156 266.308594 841.714844 Z M 266.308594 841.714844 "/>
<path style=" stroke:none;fill-rule:evenodd;fill:rgb(0%,0%,0%);fill-opacity:1;" d="M 606.996094 841.714844 C 606.996094 828.269531 596.09375 817.371094 582.652344 817.371094 C 569.207031 817.371094 558.308594 828.269531 558.308594 841.714844 C 558.308594 855.160156 569.207031 866.058594 582.652344 866.058594 C 596.09375 866.058594 606.996094 855.160156 606.996094 841.714844 Z M 606.996094 841.714844 "/>
<path style=" stroke:none;fill-rule:evenodd;fill:rgb(0%,0%,0%);fill-opacity:1;" d="M 1186.160156 529.417969 C 1186.160156 515.972656 1175.261719 505.074219 1161.820313 505.074219 C 1148.375 505.074219 1137.476563 515.972656 1137.476563 529.417969 C 1137.476563 542.863281 1148.375 553.761719 1161.820313 553.761719 C 1175.261719 553.761719 1186.160156 542.863281 1186.160156 529.417969 Z M 1186.160156 529.417969 "/>
<path style=" stroke:none;fill-rule:evenodd;fill:rgb(0%,0%,0%);fill-opacity:1;" d="M 1231.59375 841.714844 C 1231.59375 828.269531 1220.695313 817.371094 1207.25 817.371094 C 1193.804688 817.371094 1182.90625 828.269531 1182.90625 841.714844 C 1182.90625 855.160156 1193.804688 866.058594 1207.25 866.058594 C 1220.695313 866.058594 1231.59375 855.160156 1231.59375 841.714844 Z M 1231.59375 841.714844 "/>
<path style=" stroke:none;fill-rule:evenodd;fill:rgb(0%,0%,0%);fill-opacity:1;" d="M 924.96875 1040.449219 C 924.96875 1027.003906 914.070313 1016.105469 900.628906 1016.105469 C 887.183594 1016.105469 876.285156 1027.003906 876.285156 1040.449219 C 876.285156 1053.894531 887.183594 1064.792969 900.628906 1064.792969 C 914.070313 1064.792969 924.96875 1053.894531 924.96875 1040.449219 Z M 924.96875 1040.449219 "/>
<path style=" stroke:none;fill-rule:evenodd;fill:rgb(0%,0%,0%);fill-opacity:1;" d="M 851.152344 1068.839844 C 851.152344 1055.398438 840.253906 1044.5 826.8125 1044.5 C 813.367188 1044.5 802.46875 1055.398438 802.46875 1068.839844 C 802.46875 1082.285156 813.367188 1093.183594 826.8125 1093.183594 C 840.253906 1093.183594 851.152344 1082.285156 851.152344 1068.839844 Z M 851.152344 1068.839844 "/>
<path style=" stroke:none;fill-rule:evenodd;fill:rgb(0%,0%,0%);fill-opacity:1;" d="M 465.042969 1511.738281 C 465.042969 1498.292969 454.144531 1487.394531 440.699219 1487.394531 C 427.253906 1487.394531 416.355469 1498.292969 416.355469 1511.738281 C 416.355469 1525.179688 427.253906 1536.082031 440.699219 1536.082031 C 454.144531 1536.082031 465.042969 1525.179688 465.042969 1511.738281 Z M 465.042969 1511.738281 "/>
<path style=" stroke:none;fill-rule:evenodd;fill:rgb(0%,0%,0%);fill-opacity:1;" d="M 1061.25 1506.058594 C 1061.25 1492.613281 1050.351563 1481.714844 1036.90625 1481.714844 C 1023.460938 1481.714844 1012.5625 1492.613281 1012.5625 1506.058594 C 1012.5625 1519.5 1023.460938 1530.398438 1036.90625 1530.398438 C 1050.351563 1530.398438 1061.25 1519.5 1061.25 1506.058594 Z M 1061.25 1506.058594 "/>
<path style=" stroke:none;fill-rule:evenodd;fill:rgb(0%,0%,0%);fill-opacity:1;" d="M 1180.488281 1301.640625 C 1180.488281 1288.195313 1169.589844 1277.296875 1156.148438 1277.296875 C 1142.703125 1277.296875 1131.804688 1288.195313 1131.804688 1301.640625 C 1131.804688 1315.085938 1142.703125 1325.984375 1156.148438 1325.984375 C 1169.589844 1325.984375 1180.488281 1315.085938 1180.488281 1301.640625 Z M 1180.488281 1301.640625 "/>
<path style=" stroke:none;fill-rule:evenodd;fill:rgb(0%,0%,0%);fill-opacity:1;" d="M 1191.839844 438.570313 C 1191.839844 425.125 1180.941406 414.226563 1167.5 414.226563 C 1154.054688 414.226563 1143.15625 425.125 1143.15625 438.570313 C 1143.15625 452.015625 1154.054688 462.914063 1167.5 462.914063 C 1180.941406 462.914063 1191.839844 452.015625 1191.839844 438.570313 Z M 1191.839844 438.570313 "/>
<path style=" stroke:none;fill-rule:evenodd;fill:rgb(0%,0%,0%);fill-opacity:1;" d="M 754.625 449.921875 C 754.625 436.476563 743.726563 425.578125 730.28125 425.578125 C 716.839844 425.578125 705.941406 436.476563 705.941406 449.921875 C 705.941406 463.367188 716.839844 474.265625 730.28125 474.265625 C 743.726563 474.265625 754.625 463.367188 754.625 449.921875 Z M 754.625 449.921875 "/>
<path style=" stroke:none;fill-rule:evenodd;fill:rgb(0%,0%,0%);fill-opacity:1;" d="M 675.128906 501.027344 C 675.128906 487.582031 664.230469 476.683594 650.789063 476.683594 C 637.34375 476.683594 626.445313 487.582031 626.445313 501.027344 C 626.445313 514.46875 637.34375 525.371094 650.789063 525.371094 C 664.230469 525.371094 675.128906 514.46875 675.128906 501.027344 Z M 675.128906 501.027344 "/>
<path style=" stroke:none;fill-rule:evenodd;fill:rgb(0%,0%,0%);fill-opacity:1;" d="M 743.273438 166.019531 C 743.273438 152.574219 732.375 141.675781 718.929688 141.675781 C 705.488281 141.675781 694.589844 152.574219 694.589844 166.019531 C 694.589844 179.464844 705.488281 190.363281 718.929688 190.363281 C 732.375 190.363281 743.273438 179.464844 743.273438 166.019531 Z M 743.273438 166.019531 "/>
<path style=" stroke:none;fill-rule:evenodd;fill:rgb(0%,0%,0%);fill-opacity:1;" d="M 1203.203125 160.339844 C 1203.203125 146.894531 1192.304688 135.996094 1178.859375 135.996094 C 1165.414063 135.996094 1154.515625 146.894531 1154.515625 160.339844 C 1154.515625 173.78125 1165.414063 184.683594 1178.859375 184.683594 C 1192.304688 184.683594 1203.203125 173.78125 1203.203125 160.339844 Z M 1203.203125 160.339844 "/>
<path style=" stroke:none;fill-rule:evenodd;fill:rgb(0%,0%,0%);fill-opacity:1;" d="M 1765.335938 591.875 C 1765.335938 578.429688 1754.4375 567.53125 1740.992188 567.53125 C 1727.550781 567.53125 1716.652344 578.429688 1716.652344 591.875 C 1716.652344 605.320313 1727.550781 616.21875 1740.992188 616.21875 C 1754.4375 616.21875 1765.335938 605.320313 1765.335938 591.875 Z M 1765.335938 591.875 "/>
<path style=" stroke:none;fill-rule:evenodd;fill:rgb(0%,0%,0%);fill-opacity:1;" d="M 1878.898438 648.660156 C 1878.898438 635.214844 1867.996094 624.316406 1854.554688 624.316406 C 1841.109375 624.316406 1830.210938 635.214844 1830.210938 648.660156 C 1830.210938 662.101563 1841.109375 673 1854.554688 673 C 1867.996094 673 1878.898438 662.101563 1878.898438 648.660156 Z M 1878.898438 648.660156 "/>
<path style=" stroke:none;fill-rule:evenodd;fill:rgb(0%,0%,0%);fill-opacity:1;" d="M 1753.976563 1012.058594 C 1753.976563 998.613281 1743.078125 987.714844 1729.632813 987.714844 C 1716.191406 987.714844 1705.289063 998.613281 1705.289063 1012.058594 C 1705.289063 1025.503906 1716.191406 1036.402344 1729.632813 1036.402344 C 1743.078125 1036.402344 1753.976563 1025.503906 1753.976563 1012.058594 Z M 1753.976563 1012.058594 "/>
<path style=" stroke:none;fill-rule:evenodd;fill:rgb(0%,0%,0%);fill-opacity:1;" d="M 1782.367188 1460.632813 C 1782.367188 1447.1875 1771.46875 1436.289063 1758.027344 1436.289063 C 1744.582031 1436.289063 1733.683594 1447.1875 1733.683594 1460.632813 C 1733.683594 1474.078125 1744.582031 1484.976563 1758.027344 1484.976563 C 1771.46875 1484.976563 1782.367188 1474.078125 1782.367188 1460.632813 Z M 1782.367188 1460.632813 "/>
<path style=" stroke:none;fill-rule:evenodd;fill:rgb(0%,0%,0%);fill-opacity:1;" d="M 2310.433594 1284.609375 C 2310.433594 1271.164063 2299.535156 1260.265625 2286.089844 1260.265625 C 2272.644531 1260.265625 2261.746094 1271.164063 2261.746094 1284.609375 C 2261.746094 1298.054688 2272.644531 1308.953125 2286.089844 1308.953125 C 2299.535156 1308.953125 2310.433594 1298.054688 2310.433594 1284.609375 Z M 2310.433594 1284.609375 "/>
<path style=" stroke:none;fill-rule:evenodd;fill:rgb(0%,0%,0%);fill-opacity:1;" d="M 2270.6875 1114.265625 C 2270.6875 1100.820313 2259.789063 1089.921875 2246.34375 1089.921875 C 2232.902344 1089.921875 2222.003906 1100.820313 2222.003906 1114.265625 C 2222.003906 1127.710938 2232.902344 1138.609375 2246.34375 1138.609375 C 2259.789063 1138.609375 2270.6875 1127.710938 2270.6875 1114.265625 Z M 2270.6875 1114.265625 "/>
<path style=" stroke:none;fill-rule:evenodd;fill:rgb(0%,0%,0%);fill-opacity:1;" d="M 2441.03125 540.777344 C 2441.03125 527.335938 2430.132813 516.433594 2416.6875 516.433594 C 2403.246094 516.433594 2392.347656 527.335938 2392.347656 540.777344 C 2392.347656 554.222656 2403.246094 565.121094 2416.6875 565.121094 C 2430.132813 565.121094 2441.03125 554.222656 2441.03125 540.777344 Z M 2441.03125 540.777344 "/>
<path style=" stroke:none;fill-rule:evenodd;fill:rgb(0%,0%,0%);fill-opacity:1;" d="M 2503.488281 699.761719 C 2503.488281 686.316406 2492.589844 675.417969 2479.144531 675.417969 C 2465.699219 675.417969 2454.800781 686.316406 2454.800781 699.761719 C 2454.800781 713.207031 2465.699219 724.105469 2479.144531 724.105469 C 2492.589844 724.105469 2503.488281 713.207031 2503.488281 699.761719 Z M 2503.488281 699.761719 "/>
<path style=" stroke:none;fill-rule:evenodd;fill:rgb(0%,0%,0%);fill-opacity:1;" d="M 2622.726563 1154.007813 C 2622.726563 1140.566406 2611.828125 1129.667969 2598.386719 1129.667969 C 2584.941406 1129.667969 2574.042969 1140.566406 2574.042969 1154.007813 C 2574.042969 1167.453125 2584.941406 1178.351563 2598.386719 1178.351563 C 2611.828125 1178.351563 2622.726563 1167.453125 2622.726563 1154.007813 Z M 2622.726563 1154.007813 "/>
<path style=" stroke:none;fill-rule:evenodd;fill:rgb(0%,0%,0%);fill-opacity:1;" d="M 2952.0625 1029.089844 C 2952.0625 1015.644531 2941.164063 1004.746094 2927.71875 1004.746094 C 2914.277344 1004.746094 2903.378906 1015.644531 2903.378906 1029.089844 C 2903.378906 1042.535156 2914.277344 1053.433594 2927.71875 1053.433594 C 2941.164063 1053.433594 2952.0625 1042.535156 2952.0625 1029.089844 Z M 2952.0625 1029.089844 "/>
<path style=" stroke:none;fill-rule:evenodd;fill:rgb(0%,0%,0%);fill-opacity:1;" d="M 2486.457031 325.003906 C 2486.457031 311.558594 2475.558594 300.660156 2462.113281 300.660156 C 2448.667969 300.660156 2437.769531 311.558594 2437.769531 325.003906 C 2437.769531 338.445313 2448.667969 349.34375 2462.113281 349.34375 C 2475.558594 349.34375 2486.457031 338.445313 2486.457031 325.003906 Z M 2486.457031 325.003906 "/>
<path style=" stroke:none;fill-rule:evenodd;fill:rgb(0%,0%,0%);fill-opacity:1;" d="M 2145.769531 307.96875 C 2145.769531 294.527344 2134.871094 283.628906 2121.425781 283.628906 C 2107.980469 283.628906 2097.082031 294.527344 2097.082031 307.96875 C 2097.082031 321.414063 2107.980469 332.3125 2121.425781 332.3125 C 2134.871094 332.3125 2145.769531 321.414063 2145.769531 307.96875 Z M 2145.769531 307.96875 "/>
<path style=" stroke:none;fill-rule:evenodd;fill:rgb(0%,0%,0%);fill-opacity:1;" d="M 1850.503906 495.347656 C 1850.503906 481.902344 1839.605469 471.003906 1826.160156 471.003906 C 1812.71875 471.003906 1801.820313 481.902344 1801.820313 495.347656 C 1801.820313 508.789063 1812.71875 519.6875 1826.160156 519.6875 C 1839.605469 519.6875 1850.503906 508.789063 1850.503906 495.347656 Z M 1850.503906 495.347656 "/>
<path style=" stroke:none;fill-rule:evenodd;fill:rgb(0%,0%,0%);fill-opacity:1;" d="M 1708.554688 120.59375 C 1708.554688 107.152344 1697.652344 96.253906 1684.210938 96.253906 C 1670.765625 96.253906 1659.867188 107.152344 1659.867188 120.59375 C 1659.867188 134.039063 1670.765625 144.9375 1684.210938 144.9375 C 1697.652344 144.9375 1708.554688 134.039063 1708.554688 120.59375 Z M 1708.554688 120.59375 "/>
<path style=" stroke:none;fill-rule:evenodd;fill:rgb(0%,0%,0%);fill-opacity:1;" d="M 1986.777344 131.945313 C 1986.777344 118.503906 1975.878906 107.605469 1962.433594 107.605469 C 1948.988281 107.605469 1938.089844 118.503906 1938.089844 131.945313 C 1938.089844 145.390625 1948.988281 156.289063 1962.433594 156.289063 C 1975.878906 156.289063 1986.777344 145.390625 1986.777344 131.945313 Z M 1986.777344 131.945313 "/>
<path style=" stroke:none;fill-rule:evenodd;fill:rgb(0%,0%,0%);fill-opacity:1;" d="M 2196.871094 506.707031 C 2196.871094 493.261719 2185.972656 482.363281 2172.53125 482.363281 C 2159.085938 482.363281 2148.1875 493.261719 2148.1875 506.707031 C 2148.1875 520.152344 2159.085938 531.050781 2172.53125 531.050781 C 2185.972656 531.050781 2196.871094 520.152344 2196.871094 506.707031 Z M 2196.871094 506.707031 "/>
<path style=" stroke:none;fill-rule:evenodd;fill:rgb(0%,0%,0%);fill-opacity:1;" d="M 2401.28125 767.898438 C 2401.28125 754.453125 2390.382813 743.554688 2376.9375 743.554688 C 2363.492188 743.554688 2352.59375 754.453125 2352.59375 767.898438 C 2352.59375 781.34375 2363.492188 792.242188 2376.9375 792.242188 C 2390.382813 792.242188 2401.28125 781.34375 2401.28125 767.898438 Z M 2401.28125 767.898438 "/>
<path style=" stroke:none;fill-rule:evenodd;fill:rgb(0%,0%,0%);fill-opacity:1;" d="M 2446.710938 1012.058594 C 2446.710938 998.613281 2435.8125 987.714844 2422.367188 987.714844 C 2408.925781 987.714844 2398.027344 998.613281 2398.027344 1012.058594 C 2398.027344 1025.503906 2408.925781 1036.402344 2422.367188 1036.402344 C 2435.8125 1036.402344 2446.710938 1025.503906 2446.710938 1012.058594 Z M 2446.710938 1012.058594 "/>
<path style="fill:none;stroke-width:0.4;stroke-linecap:butt;stroke-linejoin:round;stroke:rgb(0%,0%,0%);stroke-opacity:1;stroke-miterlimit:10;" d="M 235.920925 615.875829 L 250.616215 641.068097 " transform="matrix(8.114314,0,0,-8.114314,-877.430161,6503.468303)"/>
<path style="fill:none;stroke-width:0.4;stroke-linecap:butt;stroke-linejoin:round;stroke:rgb(0%,0%,0%);stroke-opacity:1;stroke-miterlimit:10;" d="M 250.616215 641.068097 L 162.444961 615.17587 L 235.920925 615.875829 " transform="matrix(8.114314,0,0,-8.114314,-877.430161,6503.468303)"/>
<path style="fill:none;stroke-width:0.4;stroke-linecap:butt;stroke-linejoin:round;stroke:rgb(0%,0%,0%);stroke-opacity:1;stroke-miterlimit:10;" d="M 162.444961 615.17587 L 142.851884 647.365803 L 250.616215 641.068097 L 210.02918 669.758235 " transform="matrix(8.114314,0,0,-8.114314,-877.430161,6503.468303)"/>
<path style="fill:none;stroke-width:0.4;stroke-linecap:butt;stroke-linejoin:round;stroke:rgb(0%,0%,0%);stroke-opacity:1;stroke-miterlimit:10;" d="M 210.02918 669.758235 L 219.12624 673.257068 L 200.932119 731.337784 " transform="matrix(8.114314,0,0,-8.114314,-877.430161,6503.468303)"/>
<path style="fill:none;stroke-width:0.4;stroke-linecap:butt;stroke-linejoin:round;stroke:rgb(0%,0%,0%);stroke-opacity:1;stroke-miterlimit:10;" d="M 179.939123 697.748895 L 137.953133 697.748895 L 137.953133 732.737221 L 152.647941 751.63082 " transform="matrix(8.114314,0,0,-8.114314,-877.430161,6503.468303)"/>
<path style="fill:none;stroke-width:0.4;stroke-linecap:butt;stroke-linejoin:round;stroke:rgb(0%,0%,0%);stroke-opacity:1;stroke-miterlimit:10;" d="M 198.132764 746.033073 L 196.733808 781.020917 L 188.336225 739.734886 L 198.132764 746.033073 L 200.932119 731.337784 " transform="matrix(8.114314,0,0,-8.114314,-877.430161,6503.468303)"/>
<path style="fill:none;stroke-width:0.4;stroke-linecap:butt;stroke-linejoin:round;stroke:rgb(0%,0%,0%);stroke-opacity:1;stroke-miterlimit:10;" d="M 210.02918 669.758235 L 142.851884 647.365803 " transform="matrix(8.114314,0,0,-8.114314,-877.430161,6503.468303)"/>
<path style="fill:none;stroke-width:0.4;stroke-linecap:butt;stroke-linejoin:round;stroke:rgb(0%,0%,0%);stroke-opacity:1;stroke-miterlimit:10;" d="M 389.869076 643.167011 L 428.356234 659.262219 L 406.663761 676.7559 L 409.463116 693.550104 L 468.942787 674.656986 L 447.949792 732.03678 L 413.660944 715.243058 L 409.463116 693.550104 " transform="matrix(8.114314,0,0,-8.114314,-877.430161,6503.468303)"/>
<path style="fill:none;stroke-width:0.4;stroke-linecap:butt;stroke-linejoin:round;stroke:rgb(0%,0%,0%);stroke-opacity:1;stroke-miterlimit:10;" d="M 389.869076 643.167011 L 384.970807 664.160007 L 406.663761 676.7559 " transform="matrix(8.114314,0,0,-8.114314,-877.430161,6503.468303)"/>
<path style="fill:none;stroke-width:0.4;stroke-linecap:butt;stroke-linejoin:round;stroke:rgb(0%,0%,0%);stroke-opacity:1;stroke-miterlimit:10;" d="M 401.065051 706.845956 L 409.463116 693.550104 " transform="matrix(8.114314,0,0,-8.114314,-877.430161,6503.468303)"/>
<path style="fill:none;stroke-width:0.4;stroke-linecap:butt;stroke-linejoin:round;stroke:rgb(0%,0%,0%);stroke-opacity:1;stroke-miterlimit:10;" d="M 401.065051 706.845956 L 366.777166 690.05079 L 374.473827 722.940201 L 405.963802 734.836135 " transform="matrix(8.114314,0,0,-8.114314,-877.430161,6503.468303)"/>
<path style="fill:none;stroke-width:0.4;stroke-linecap:butt;stroke-linejoin:round;stroke:rgb(0%,0%,0%);stroke-opacity:1;stroke-miterlimit:10;" d="M 374.473827 722.940201 L 375.874227 739.034927 L 411.56203 761.42784 L 405.963802 734.836135 " transform="matrix(8.114314,0,0,-8.114314,-877.430161,6503.468303)"/>
<path style="fill:none;stroke-width:0.4;stroke-linecap:butt;stroke-linejoin:round;stroke:rgb(0%,0%,0%);stroke-opacity:1;stroke-miterlimit:10;" d="M 375.874227 739.034927 L 369.57604 763.527236 L 349.982 785.22019 L 333.187796 740.434845 " transform="matrix(8.114314,0,0,-8.114314,-877.430161,6503.468303)"/>
<path style="fill:none;stroke-width:0.4;stroke-linecap:butt;stroke-linejoin:round;stroke:rgb(0%,0%,0%);stroke-opacity:1;stroke-miterlimit:10;" d="M 336.68711 721.540764 L 369.57604 763.527236 " transform="matrix(8.114314,0,0,-8.114314,-877.430161,6503.468303)"/>
<path style="fill:none;stroke-width:0.4;stroke-linecap:butt;stroke-linejoin:round;stroke:rgb(0%,0%,0%);stroke-opacity:1;stroke-miterlimit:10;" d="M 336.68711 721.540764 L 349.982 785.22019 " transform="matrix(8.114314,0,0,-8.114314,-877.430161,6503.468303)"/>
<path style="fill:none;stroke-width:0.4;stroke-linecap:butt;stroke-linejoin:round;stroke:rgb(0%,0%,0%);stroke-opacity:1;stroke-miterlimit:10;" d="M 349.982 785.22019 L 315.694115 786.619146 " transform="matrix(8.114314,0,0,-8.114314,-877.430161,6503.468303)"/>
<path style="fill:none;stroke-width:0.4;stroke-linecap:butt;stroke-linejoin:round;stroke:rgb(0%,0%,0%);stroke-opacity:1;stroke-miterlimit:10;" d="M 349.982 785.22019 L 322.69178 728.538911 " transform="matrix(8.114314,0,0,-8.114314,-877.430161,6503.468303)"/>
<path style="fill:none;stroke-width:0.4;stroke-linecap:butt;stroke-linejoin:round;stroke:rgb(0%,0%,0%);stroke-opacity:1;stroke-miterlimit:10;" d="M 196.733808 781.020917 L 253.415088 781.720876 " transform="matrix(8.114314,0,0,-8.114314,-877.430161,6503.468303)"/>
<path style="fill:none;stroke-width:0.4;stroke-linecap:butt;stroke-linejoin:round;stroke:rgb(0%,0%,0%);stroke-opacity:1;stroke-miterlimit:10;" d="M 198.132764 746.033073 L 252.01517 747.432029 " transform="matrix(8.114314,0,0,-8.114314,-877.430161,6503.468303)"/>
<path style="fill:none;stroke-width:0.4;stroke-linecap:butt;stroke-linejoin:round;stroke:rgb(0%,0%,0%);stroke-opacity:1;stroke-miterlimit:10;" d="M 200.932119 731.337784 L 252.01517 747.432029 " transform="matrix(8.114314,0,0,-8.114314,-877.430161,6503.468303)"/>
<path style="fill:none;stroke-width:0.4;stroke-linecap:butt;stroke-linejoin:round;stroke:rgb(0%,0%,0%);stroke-opacity:1;stroke-miterlimit:10;" d="M 200.932119 731.337784 L 251.315211 736.236053 " transform="matrix(8.114314,0,0,-8.114314,-877.430161,6503.468303)"/>
<path style="fill:none;stroke-width:0.4;stroke-linecap:butt;stroke-linejoin:round;stroke:rgb(0%,0%,0%);stroke-opacity:1;stroke-miterlimit:10;" d="M 200.932119 731.337784 L 256.913921 697.748895 L 219.12624 673.257068 L 250.616215 641.068097 " transform="matrix(8.114314,0,0,-8.114314,-877.430161,6503.468303)"/>
<path style="fill:none;stroke-width:0.4;stroke-linecap:butt;stroke-linejoin:round;stroke:rgb(0%,0%,0%);stroke-opacity:1;stroke-miterlimit:10;" d="M 253.415088 781.720876 L 282.805185 744.633155 L 315.694115 786.619146 " transform="matrix(8.114314,0,0,-8.114314,-877.430161,6503.468303)"/>
<path style="fill:none;stroke-width:0.4;stroke-linecap:butt;stroke-linejoin:round;stroke:rgb(0%,0%,0%);stroke-opacity:1;stroke-miterlimit:10;" d="M 251.315211 736.236053 L 282.805185 744.633155 L 294.70112 724.340119 L 322.69178 728.538911 " transform="matrix(8.114314,0,0,-8.114314,-877.430161,6503.468303)"/>
<path style="fill:none;stroke-width:0.4;stroke-linecap:butt;stroke-linejoin:round;stroke:rgb(0%,0%,0%);stroke-opacity:1;stroke-miterlimit:10;" d="M 294.70112 724.340119 L 251.315211 736.236053 " transform="matrix(8.114314,0,0,-8.114314,-877.430161,6503.468303)"/>
<path style="fill:none;stroke-width:0.4;stroke-linecap:butt;stroke-linejoin:round;stroke:rgb(0%,0%,0%);stroke-opacity:1;stroke-miterlimit:10;" d="M 256.913921 697.748895 L 281.404786 711.043785 L 321.291862 676.7559 " transform="matrix(8.114314,0,0,-8.114314,-877.430161,6503.468303)"/>
<path style="fill:none;stroke-width:0.4;stroke-linecap:butt;stroke-linejoin:round;stroke:rgb(0%,0%,0%);stroke-opacity:1;stroke-miterlimit:10;" d="M 366.777166 690.05079 L 336.68711 721.540764 L 321.291862 676.7559 " transform="matrix(8.114314,0,0,-8.114314,-877.430161,6503.468303)"/>
<path style="fill:none;stroke-width:0.4;stroke-linecap:butt;stroke-linejoin:round;stroke:rgb(0%,0%,0%);stroke-opacity:1;stroke-miterlimit:10;" d="M 300.998826 648.76524 L 389.869076 643.167011 " transform="matrix(8.114314,0,0,-8.114314,-877.430161,6503.468303)"/>
<path style="fill:none;stroke-width:0.4;stroke-linecap:butt;stroke-linejoin:round;stroke:rgb(0%,0%,0%);stroke-opacity:1;stroke-miterlimit:10;" d="M 300.998826 678.154855 L 321.291862 676.7559 " transform="matrix(8.114314,0,0,-8.114314,-877.430161,6503.468303)"/>
<path style="fill:none;stroke-width:0.4;stroke-linecap:butt;stroke-linejoin:round;stroke:rgb(0%,0%,0%);stroke-opacity:1;stroke-miterlimit:10;" d="M 289.102891 664.859966 L 384.970807 664.160007 L 321.291862 676.7559 " transform="matrix(8.114314,0,0,-8.114314,-877.430161,6503.468303)"/>
<path style="fill:none;stroke-width:0.4;stroke-linecap:butt;stroke-linejoin:round;stroke:rgb(0%,0%,0%);stroke-opacity:1;stroke-miterlimit:10;" d="M 289.102891 664.859966 L 321.291862 676.7559 " transform="matrix(8.114314,0,0,-8.114314,-877.430161,6503.468303)"/>
<path style="fill:none;stroke-width:0.4;stroke-linecap:butt;stroke-linejoin:round;stroke:rgb(0%,0%,0%);stroke-opacity:1;stroke-miterlimit:10;" d="M 324.791176 621.474057 L 389.869076 643.167011 " transform="matrix(8.114314,0,0,-8.114314,-877.430161,6503.468303)"/>
<path style="fill:none;stroke-width:0.4;stroke-linecap:butt;stroke-linejoin:round;stroke:rgb(0%,0%,0%);stroke-opacity:1;stroke-miterlimit:10;" d="M 300.998826 648.76524 L 324.791176 621.474057 " transform="matrix(8.114314,0,0,-8.114314,-877.430161,6503.468303)"/>
<path style="fill:none;stroke-width:0.4;stroke-linecap:butt;stroke-linejoin:round;stroke:rgb(0%,0%,0%);stroke-opacity:1;stroke-miterlimit:10;" d="M 235.920925 615.875829 L 300.998826 648.76524 " transform="matrix(8.114314,0,0,-8.114314,-877.430161,6503.468303)"/>
<path style="fill:none;stroke-width:0.4;stroke-linecap:butt;stroke-linejoin:round;stroke:rgb(0%,0%,0%);stroke-opacity:1;stroke-miterlimit:10;" d="M 250.616215 641.068097 L 300.998826 648.76524 " transform="matrix(8.114314,0,0,-8.114314,-877.430161,6503.468303)"/>
<path style="fill:none;stroke-width:0.4;stroke-linecap:butt;stroke-linejoin:round;stroke:rgb(0%,0%,0%);stroke-opacity:1;stroke-miterlimit:10;" d="M 250.616215 641.068097 L 289.102891 664.859966 " transform="matrix(8.114314,0,0,-8.114314,-877.430161,6503.468303)"/>
<path style="fill:none;stroke-width:0.4;stroke-linecap:butt;stroke-linejoin:round;stroke:rgb(0%,0%,0%);stroke-opacity:1;stroke-miterlimit:10;" d="M 289.102891 664.859966 L 300.998826 648.76524 " transform="matrix(8.114314,0,0,-8.114314,-877.430161,6503.468303)"/>
<path style="fill:none;stroke-width:0.4;stroke-linecap:butt;stroke-linejoin:round;stroke:rgb(0%,0%,0%);stroke-opacity:1;stroke-miterlimit:10;" d="M 219.12624 673.257068 L 300.998826 678.154855 " transform="matrix(8.114314,0,0,-8.114314,-877.430161,6503.468303)"/>
<path style="fill:none;stroke-width:0.4;stroke-linecap:butt;stroke-linejoin:round;stroke:rgb(0%,0%,0%);stroke-opacity:1;stroke-miterlimit:10;" d="M 256.913921 697.748895 L 300.998826 678.154855 " transform="matrix(8.114314,0,0,-8.114314,-877.430161,6503.468303)"/>
<path style="fill-rule:evenodd;fill:rgb(54.5%,0%,54.5%);fill-opacity:1;stroke-width:1.2;stroke-linecap:butt;stroke-linejoin:round;stroke:rgb(100%,0%,0%);stroke-opacity:1;stroke-dasharray:4;stroke-miterlimit:10;" d="M 366.777166 690.05079 L 282.805185 744.633155 " transform="matrix(8.114314,0,0,-8.114314,-877.430161,6503.468303)"/>
<path style="fill-rule:evenodd;fill:rgb(54.5%,0%,54.5%);fill-opacity:1;stroke-width:1.2;stroke-linecap:butt;stroke-linejoin:round;stroke:rgb(100%,0%,0%);stroke-opacity:1;stroke-dasharray:4;stroke-miterlimit:10;" d="M 282.805185 744.633155 L 200.932119 731.337784 " transform="matrix(8.114314,0,0,-8.114314,-877.430161,6503.468303)"/>
<path style="fill:none;stroke-width:1.2;stroke-linecap:butt;stroke-linejoin:round;stroke:rgb(100%,0%,0%);stroke-opacity:1;stroke-dasharray:4;stroke-miterlimit:10;" d="M 366.777166 690.05079 L 294.70112 724.340119 L 200.932119 731.337784 " transform="matrix(8.114314,0,0,-8.114314,-877.430161,6503.468303)"/>
<path style="fill:none;stroke-width:1.2;stroke-linecap:butt;stroke-linejoin:round;stroke:rgb(100%,0%,0%);stroke-opacity:1;stroke-dasharray:4;stroke-miterlimit:10;" d="M 366.777166 690.05079 L 281.404786 711.043785 L 200.932119 731.337784 " transform="matrix(8.114314,0,0,-8.114314,-877.430161,6503.468303)"/>
<path style="fill:none;stroke-width:1.2;stroke-linecap:butt;stroke-linejoin:round;stroke:rgb(100%,0%,0%);stroke-opacity:1;stroke-dasharray:4;stroke-miterlimit:10;" d="M 366.777166 690.05079 L 300.998826 678.154855 L 200.932119 731.337784 " transform="matrix(8.114314,0,0,-8.114314,-877.430161,6503.468303)"/>
<path style="fill:none;stroke-width:1.2;stroke-linecap:butt;stroke-linejoin:round;stroke:rgb(100%,0%,0%);stroke-opacity:1;stroke-dasharray:4;stroke-miterlimit:10;" d="M 366.777166 690.05079 L 300.998826 648.76524 L 142.851884 647.365803 " transform="matrix(8.114314,0,0,-8.114314,-877.430161,6503.468303)"/>
<path style="fill:none;stroke-width:1.2;stroke-linecap:butt;stroke-linejoin:round;stroke:rgb(100%,0%,0%);stroke-opacity:1;stroke-dasharray:4;stroke-miterlimit:10;" d="M 366.777166 690.05079 L 289.102891 664.859966 L 142.851884 647.365803 " transform="matrix(8.114314,0,0,-8.114314,-877.430161,6503.468303)"/>
<path style=" stroke:none;fill-rule:evenodd;fill:rgb(100%,0%,0%);fill-opacity:1;" d="M 1589.3125 1239.183594 C 1589.3125 1225.742188 1578.414063 1214.84375 1564.96875 1214.84375 C 1551.527344 1214.84375 1540.628906 1225.742188 1540.628906 1239.183594 C 1540.628906 1252.628906 1551.527344 1263.527344 1564.96875 1263.527344 C 1578.414063 1263.527344 1589.3125 1252.628906 1589.3125 1239.183594 Z M 1589.3125 1239.183594 "/>
<path style=" stroke:none;fill-rule:evenodd;fill:rgb(100%,0%,0%);fill-opacity:1;" d="M 1492.785156 1108.585938 C 1492.785156 1095.140625 1481.886719 1084.242188 1468.441406 1084.242188 C 1455 1084.242188 1444.097656 1095.140625 1444.097656 1108.585938 C 1444.097656 1122.03125 1455 1132.929688 1468.441406 1132.929688 C 1481.886719 1132.929688 1492.785156 1122.03125 1492.785156 1108.585938 Z M 1492.785156 1108.585938 "/>
<path style=" stroke:none;fill-rule:evenodd;fill:rgb(100%,0%,0%);fill-opacity:1;" d="M 1589.3125 1000.707031 C 1589.3125 987.261719 1578.414063 976.363281 1564.96875 976.363281 C 1551.527344 976.363281 1540.628906 987.261719 1540.628906 1000.707031 C 1540.628906 1014.148438 1551.527344 1025.046875 1564.96875 1025.046875 C 1578.414063 1025.046875 1589.3125 1014.148438 1589.3125 1000.707031 Z M 1589.3125 1000.707031 "/>
<path style=" stroke:none;fill-rule:evenodd;fill:rgb(100%,0%,0%);fill-opacity:1;" d="M 1430.320313 733.835938 C 1430.320313 720.390625 1419.421875 709.492188 1405.976563 709.492188 C 1392.535156 709.492188 1381.636719 720.390625 1381.636719 733.835938 C 1381.636719 747.277344 1392.535156 758.175781 1405.976563 758.175781 C 1419.421875 758.175781 1430.320313 747.277344 1430.320313 733.835938 Z M 1430.320313 733.835938 "/>
<path style=" stroke:none;fill-rule:evenodd;fill:rgb(100%,0%,0%);fill-opacity:1;" d="M 1538.210938 625.945313 C 1538.210938 612.503906 1527.308594 601.601563 1513.867188 601.601563 C 1500.421875 601.601563 1489.523438 612.503906 1489.523438 625.945313 C 1489.523438 639.390625 1500.421875 650.289063 1513.867188 650.289063 C 1527.308594 650.289063 1538.210938 639.390625 1538.210938 625.945313 Z M 1538.210938 625.945313 "/>
<path style=" stroke:none;fill-rule:evenodd;fill:rgb(100%,0%,0%);fill-opacity:1;" d="M 1441.679688 461.28125 C 1441.679688 447.839844 1430.78125 436.941406 1417.339844 436.941406 C 1403.894531 436.941406 1392.996094 447.839844 1392.996094 461.28125 C 1392.996094 474.726563 1403.894531 485.625 1417.339844 485.625 C 1430.78125 485.625 1441.679688 474.726563 1441.679688 461.28125 Z M 1441.679688 461.28125 "/>
<path style="fill:none;stroke-width:1.2;stroke-linecap:butt;stroke-linejoin:round;stroke:rgb(0%,0%,0%);stroke-opacity:1;stroke-dasharray:1,3;stroke-miterlimit:10;" d="M 257.146919 795.949205 C 248.516819 798.74856 234.521489 798.981559 217.843303 799.215039 C 201.165599 799.448519 181.80552 799.681518 165.827294 794.783249 C 149.849549 789.884979 137.253655 779.854961 128.390075 766.20961 C 119.526494 752.563778 114.394744 735.303095 111.59539 716.059516 C 108.796516 696.815456 108.329556 675.589462 110.89543 656.112403 C 113.461305 636.635825 119.059534 618.908182 129.673012 607.945206 C 140.286009 596.982229 155.913775 592.783438 172.70846 589.751566 C 189.502663 586.719212 207.463305 584.852815 221.925114 588.235148 C 236.386923 591.617481 247.3499 600.248545 255.630502 610.745042 C 263.911104 621.24154 269.508851 633.603472 271.958227 650.048177 C 274.407121 666.492883 273.707643 687.019399 273.241164 709.76181 C 272.774685 732.504222 272.541205 757.462529 270.791789 772.624297 C 269.042854 787.785584 265.777501 793.150332 257.146919 795.949205 Z M 257.146919 795.949205 " transform="matrix(8.114314,0,0,-8.114314,-877.430161,6503.468303)"/>
<path style="fill:none;stroke-width:1.2;stroke-linecap:butt;stroke-linejoin:round;stroke:rgb(0%,0%,0%);stroke-opacity:1;stroke-dasharray:1,3;stroke-miterlimit:10;" d="M 302.631261 794.783249 C 298.89943 789.4185 298.199471 778.921521 299.832388 764.226714 C 301.465304 749.531424 305.430616 730.637825 308.11299 715.476057 C 310.795846 700.31477 312.195282 688.885315 313.36172 676.98938 C 314.528158 665.093446 315.461116 652.730551 313.944699 640.951116 C 312.428762 629.171681 308.463451 617.975225 310.095886 608.645165 C 311.728803 599.315105 318.959467 591.850961 331.788359 593.017399 C 344.617252 594.183837 363.044853 603.980376 382.404932 612.143998 C 401.765492 620.308101 422.058528 626.838805 438.503233 634.769428 C 454.947457 642.700533 467.543351 652.030592 475.940453 659.961215 C 484.337554 667.891838 488.536346 674.423024 489.236305 686.552439 C 489.935783 698.681853 487.136909 716.409496 479.789265 729.355369 C 472.442101 742.300761 460.546167 750.464864 450.282668 758.045507 C 440.019169 765.62615 431.388587 772.623815 417.976235 779.5045 C 404.563884 786.385665 386.369762 793.150332 369.22606 796.649164 C 352.081877 800.147997 335.987151 800.380996 324.557696 800.380996 C 313.12824 800.380996 306.363574 800.147997 302.631261 794.783249 Z M 302.631261 794.783249 " transform="matrix(8.114314,0,0,-8.114314,-877.430161,6503.468303)"/>
<path style="fill:none;stroke-width:0.4;stroke-linecap:butt;stroke-linejoin:round;stroke:rgb(0%,0%,0%);stroke-opacity:1;stroke-miterlimit:10;" d="M 152.647941 751.63082 L 188.336225 739.734886 " transform="matrix(8.114314,0,0,-8.114314,-877.430161,6503.468303)"/>
<path style="fill:none;stroke-width:0.4;stroke-linecap:butt;stroke-linejoin:round;stroke:rgb(0%,0%,0%);stroke-opacity:1;stroke-miterlimit:10;" d="M 210.02918 669.758235 L 179.939123 697.748895 L 188.336225 739.734886 " transform="matrix(8.114314,0,0,-8.114314,-877.430161,6503.468303)"/>
<path style=" stroke:none;fill-rule:evenodd;fill:rgb(0%,0%,0%);fill-opacity:1;" d="M 728.652344 593.503906 L 777.339844 593.503906 L 777.339844 544.820313 L 728.652344 544.820313 Z M 728.652344 593.503906 "/>
<path style=" stroke:none;fill-rule:evenodd;fill:rgb(0%,0%,0%);fill-opacity:1;" d="M 2733.035156 587.832031 L 2781.71875 587.832031 L 2781.71875 539.148438 L 2733.035156 539.148438 Z M 2733.035156 587.832031 "/>
<path style=" stroke:none;fill-rule:evenodd;fill:rgb(0%,0%,0%);fill-opacity:1;" d="M 2136.828125 661.648438 L 2185.511719 661.648438 L 2185.511719 612.964844 L 2136.828125 612.964844 Z M 2136.828125 661.648438 "/>
<path style=" stroke:none;fill-rule:evenodd;fill:rgb(0%,0%,0%);fill-opacity:1;" d="M 2420.738281 900.128906 L 2469.425781 900.128906 L 2469.425781 851.441406 L 2420.738281 851.441406 Z M 2420.738281 900.128906 "/>
<path style=" stroke:none;fill-rule:evenodd;fill:rgb(0%,0%,0%);fill-opacity:1;" d="M 257.371094 1274.878906 L 306.058594 1274.878906 L 306.058594 1226.195313 L 257.371094 1226.195313 Z M 257.371094 1274.878906 "/>
<path style=" stroke:none;fill-rule:evenodd;fill:rgb(100%,54.9%,0%);fill-opacity:1;" d="M 728.652344 593.503906 L 777.339844 593.503906 L 777.339844 544.820313 L 728.652344 544.820313 Z M 728.652344 593.503906 "/>
<path style=" stroke:none;fill-rule:evenodd;fill:rgb(100%,54.9%,0%);fill-opacity:1;" d="M 257.371094 1274.878906 L 306.058594 1274.878906 L 306.058594 1226.195313 L 257.371094 1226.195313 Z M 257.371094 1274.878906 "/>
<path style=" stroke:none;fill-rule:evenodd;fill:rgb(100%,54.9%,0%);fill-opacity:1;" d="M 2733.035156 587.832031 L 2781.71875 587.832031 L 2781.71875 539.148438 L 2733.035156 539.148438 Z M 2733.035156 587.832031 "/>
<path style=" stroke:none;fill-rule:evenodd;fill:rgb(100%,54.9%,0%);fill-opacity:1;" d="M 2420.738281 900.128906 L 2469.425781 900.128906 L 2469.425781 851.441406 L 2420.738281 851.441406 Z M 2420.738281 900.128906 "/>
<path style=" stroke:none;fill-rule:evenodd;fill:rgb(100%,54.9%,0%);fill-opacity:1;" d="M 2136.828125 661.648438 L 2185.511719 661.648438 L 2185.511719 612.964844 L 2136.828125 612.964844 Z M 2136.828125 661.648438 "/>
<path style=" stroke:none;fill-rule:evenodd;fill:rgb(0%,0%,0%);fill-opacity:1;" d="M 2123.054688 904.179688 C 2123.054688 890.734375 2112.15625 879.835938 2098.714844 879.835938 C 2085.269531 879.835938 2074.371094 890.734375 2074.371094 904.179688 C 2074.371094 917.621094 2085.269531 928.519531 2098.714844 928.519531 C 2112.15625 928.519531 2123.054688 917.621094 2123.054688 904.179688 Z M 2123.054688 904.179688 "/>
<path style="fill-rule:evenodd;fill:rgb(100%,0%,0%);fill-opacity:1;stroke-width:0.4;stroke-linecap:butt;stroke-linejoin:round;stroke:rgb(0%,0%,0%);stroke-opacity:1;stroke-miterlimit:10;" d="M 365.490859 693.046075 C 364.157374 695.379433 361.490887 699.379405 360.490532 702.379505 C 359.49066 705.379605 360.157402 707.379831 361.490887 708.712835 C 362.82389 710.046319 364.824117 710.713062 366.823862 710.713062 C 368.824089 710.713062 370.824316 710.046319 372.157319 708.712835 C 373.490804 707.379831 374.157546 705.379605 373.157192 702.379505 C 372.157319 699.379405 369.490831 695.379433 368.157347 693.046075 C 366.823862 690.713199 366.823862 690.046457 366.823862 690.046457 C 366.823862 690.046457 366.823862 690.713199 365.490859 693.046075 Z M 365.490859 693.046075 " transform="matrix(8.114314,0,0,-8.114314,-877.430161,6503.468303)"/>
<path style=" stroke:none;fill-rule:evenodd;fill:rgb(0%,0%,0%);fill-opacity:1;" d="M 2126.382813 790.101563 C 2126.382813 775.03125 2114.167969 762.8125 2099.09375 762.8125 C 2084.023438 762.8125 2071.808594 775.03125 2071.808594 790.101563 C 2071.808594 805.171875 2084.023438 817.386719 2099.09375 817.386719 C 2114.167969 817.386719 2126.382813 805.171875 2126.382813 790.101563 Z M 2126.382813 790.101563 "/>
</g>
</svg>
