<?xml version="1.0" encoding="UTF-8"?>
<svg xmlns="http://www.w3.org/2000/svg" xmlns:xlink="http://www.w3.org/1999/xlink" width="426pt" height="270pt" viewBox="0 0 426 270" version="1.1">
<g id="surface27925">
<path style=" stroke:none;fill-rule:evenodd;fill:rgb(18%,54.5%,34.1%);fill-opacity:0.3;" d="M 213.0625 172.378906 L 164.972656 145.121094 L 221.113281 122.007813 L 269.84375 144.480469 "/>
<path style=" stroke:none;fill-rule:evenodd;fill:rgb(100%,0%,0%);fill-opacity:1;" d="M 142.097656 268.457031 L 207.574219 230.203125 L 213.0625 172.378906 L 144.601563 206.027344 L 142.097656 268.457031 "/>
<path style=" stroke:none;fill-rule:evenodd;fill:rgb(100%,0%,0%);fill-opacity:1;" d="M 142.097656 268.457031 L 98.515625 230.28125 L 98.617188 172.4375 L 144.601563 206.027344 L 142.097656 268.457031 "/>
<path style=" stroke:none;fill-rule:evenodd;fill:rgb(100%,0%,0%);fill-opacity:1;" d="M 269.84375 144.480469 L 315.890625 121.824219 L 325.867188 63.660156 L 278.496094 81.648438 L 269.84375 144.480469 "/>
<path style=" stroke:none;fill-rule:evenodd;fill:rgb(100%,0%,0%);fill-opacity:1;" d="M 226.78125 63.78125 L 278.496094 81.648438 L 325.867188 63.660156 L 274.53125 48.761719 L 226.78125 63.78125 "/>
<path style=" stroke:none;fill-rule:evenodd;fill:rgb(18%,54.5%,34.1%);fill-opacity:1;" d="M 207.574219 230.203125 L 262.433594 198.15625 L 269.84375 144.480469 L 213.0625 172.378906 L 207.574219 230.203125 "/>
<path style=" stroke:none;fill-rule:evenodd;fill:rgb(18%,54.5%,34.1%);fill-opacity:1;" d="M 315.890625 121.824219 L 354.789063 102.71875 L 365.542969 48.578125 L 325.867188 63.660156 L 315.890625 121.824219 "/>
<path style=" stroke:none;fill-rule:evenodd;fill:rgb(18%,54.5%,34.1%);fill-opacity:1;" d="M 325.867188 63.660156 L 365.542969 48.578125 L 315.148438 35.960938 L 274.53125 48.761719 L 325.785156 63.683594 "/>
<path style=" stroke:none;fill-rule:evenodd;fill:rgb(62.7%,12.5%,94.1%);fill-opacity:1;" d="M 98.535156 230.28125 L 61.804688 198.117188 L 60.242188 144.417969 L 98.617188 172.4375 L 98.515625 230.28125 "/>
<path style=" stroke:none;fill-rule:evenodd;fill:rgb(62.7%,12.5%,94.1%);fill-opacity:1;" d="M 226.78125 63.78125 L 182.359375 48.441406 L 229.785156 35.761719 L 274.53125 48.761719 L 226.78125 63.78125 "/>
<path style=" stroke:none;fill-rule:evenodd;fill:rgb(0%,0%,100%);fill-opacity:1;" d="M 274.53125 48.761719 L 229.785156 35.761719 L 270.644531 24.824219 L 315.148438 35.960938 L 274.53125 48.761719 "/>
<path style=" stroke:none;fill-rule:evenodd;fill:rgb(100%,0%,0%);fill-opacity:0.3;" d="M 144.601563 206.027344 L 98.617188 172.4375 L 164.972656 145.121094 L 213.0625 172.378906 "/>
<path style=" stroke:none;fill-rule:evenodd;fill:rgb(100%,0%,0%);fill-opacity:0.3;" d="M 269.84375 144.457031 L 221.113281 122.007813 L 226.78125 63.78125 L 278.496094 81.648438 L 269.84375 144.480469 "/>
<path style=" stroke:none;fill-rule:evenodd;fill:rgb(62.7%,12.5%,94.1%);fill-opacity:0.3;" d="M 98.617188 172.4375 L 60.242188 144.417969 L 124.035156 121.925781 L 164.972656 145.121094 L 98.617188 172.4375 "/>
<path style=" stroke:none;fill-rule:evenodd;fill:rgb(62.7%,12.5%,94.1%);fill-opacity:0.3;" d="M 221.113281 122.007813 L 226.78125 63.78125 L 182.359375 48.441406 L 178.933594 102.558594 L 221.113281 122.007813 "/>
<path style=" stroke:none;fill-rule:evenodd;fill:rgb(0%,0%,100%);fill-opacity:0.3;" d="M 164.972656 145.121094 L 124.035156 121.925781 L 178.933594 102.558594 L 221.113281 122.007813 L 164.972656 145.121094 "/>
<path style="fill:none;stroke-width:0.8;stroke-linecap:butt;stroke-linejoin:round;stroke:rgb(0%,0%,0%);stroke-opacity:1;stroke-miterlimit:10;" d="M 1188.869089 2852.990643 L 1306.579175 2921.750262 L 1317.069814 2969.089785 L 1251.920193 2983.440059 L 1131.070131 2955.219283 L 1133.909761 2901.139539 L 1188.869089 2852.990643 " transform="matrix(2.002902,0,0,-2.002902,-2239.090139,5982.716543)"/>
<path style="fill:none;stroke-width:0.8;stroke-linecap:butt;stroke-linejoin:round;stroke:rgb(0%,0%,0%);stroke-opacity:1;stroke-miterlimit:10;" d="M 1148.780764 2888.109614 L 1147.089858 2946.279128 L 1270.590371 2979.330787 " transform="matrix(2.002902,0,0,-2.002902,-2239.090139,5982.716543)"/>
<path style="fill:none;stroke-width:0.8;stroke-linecap:butt;stroke-linejoin:round;stroke:rgb(0%,0%,0%);stroke-opacity:1;stroke-miterlimit:10;" d="M 1167.109642 2872.050881 L 1167.220809 2935.049327 L 1292.519494 2974.499905 " transform="matrix(2.002902,0,0,-2.002902,-2239.090139,5982.716543)"/>
<path style="fill:none;stroke-width:0.8;stroke-linecap:butt;stroke-linejoin:round;stroke:rgb(0%,0%,0%);stroke-opacity:1;stroke-miterlimit:10;" d="M 1188.869089 2852.990643 L 1191.620956 2921.430413 L 1317.069814 2969.089785 " transform="matrix(2.002902,0,0,-2.002902,-2239.090139,5982.716543)"/>
<path style="fill:none;stroke-width:0.8;stroke-linecap:butt;stroke-linejoin:round;stroke:rgb(0%,0%,0%);stroke-opacity:1;stroke-miterlimit:10;" d="M 1221.559942 2872.089887 L 1227.529797 2935.07078 L 1163.010121 2962.679163 " transform="matrix(2.002902,0,0,-2.002902,-2239.090139,5982.716543)"/>
<path style="fill:none;stroke-width:0.8;stroke-linecap:butt;stroke-linejoin:round;stroke:rgb(0%,0%,0%);stroke-opacity:1;stroke-miterlimit:10;" d="M 1248.949892 2888.090111 L 1256.969508 2946.259625 L 1190.700416 2969.150244 " transform="matrix(2.002902,0,0,-2.002902,-2239.090139,5982.716543)"/>
<path style="fill:none;stroke-width:0.8;stroke-linecap:butt;stroke-linejoin:round;stroke:rgb(0%,0%,0%);stroke-opacity:1;stroke-miterlimit:10;" d="M 1271.349036 2901.170743 L 1280.579785 2955.229035 L 1214.000597 2974.579867 " transform="matrix(2.002902,0,0,-2.002902,-2239.090139,5982.716543)"/>
<path style="fill:none;stroke-width:0.8;stroke-linecap:butt;stroke-linejoin:round;stroke:rgb(0%,0%,0%);stroke-opacity:1;stroke-miterlimit:10;" d="M 1290.389772 2912.289378 L 1300.429893 2962.770827 L 1234.299273 2979.319085 " transform="matrix(2.002902,0,0,-2.002902,-2239.090139,5982.716543)"/>
<path style="fill:none;stroke-width:0.8;stroke-linecap:butt;stroke-linejoin:round;stroke:rgb(0%,0%,0%);stroke-opacity:1;stroke-miterlimit:10;" d="M 1132.589411 2926.169631 L 1190.119228 2884.160266 L 1311.470516 2943.810054 " transform="matrix(2.002902,0,0,-2.002902,-2239.090139,5982.716543)"/>
<path style="fill:none;stroke-width:0.8;stroke-linecap:butt;stroke-linejoin:round;stroke:rgb(0%,0%,0%);stroke-opacity:1;stroke-miterlimit:10;" d="M 1131.070131 2955.219283 L 1191.620956 2921.430413 " transform="matrix(2.002902,0,0,-2.002902,-2239.090139,5982.716543)"/>
<path style="fill:none;stroke-width:0.8;stroke-linecap:butt;stroke-linejoin:round;stroke:rgb(0%,0%,0%);stroke-opacity:1;stroke-dasharray:4;stroke-miterlimit:10;" d="M 1306.579175 2921.748311 L 1319.357511 2929.214043 " transform="matrix(2.002902,0,0,-2.002902,-2239.090139,5982.716543)"/>
<path style="fill:none;stroke-width:0.8;stroke-linecap:butt;stroke-linejoin:round;stroke:rgb(0%,0%,0%);stroke-opacity:1;stroke-dasharray:4;stroke-miterlimit:10;" d="M 1311.468565 2943.808104 L 1323.886097 2949.914479 " transform="matrix(2.002902,0,0,-2.002902,-2239.090139,5982.716543)"/>
<path style="fill:none;stroke-width:0.8;stroke-linecap:butt;stroke-linejoin:round;stroke:rgb(0%,0%,0%);stroke-opacity:1;stroke-dasharray:4;stroke-miterlimit:10;" d="M 1317.069814 2969.087834 L 1330.146546 2974.055237 " transform="matrix(2.002902,0,0,-2.002902,-2239.090139,5982.716543)"/>
<path style="fill:none;stroke-width:0.8;stroke-linecap:butt;stroke-linejoin:round;stroke:rgb(0%,0%,0%);stroke-opacity:1;stroke-dasharray:4;stroke-miterlimit:10;" d="M 1292.519494 2974.496004 L 1305.23152 2978.49801 " transform="matrix(2.002902,0,0,-2.002902,-2239.090139,5982.716543)"/>
<path style="fill:none;stroke-width:0.8;stroke-linecap:butt;stroke-linejoin:round;stroke:rgb(0%,0%,0%);stroke-opacity:1;stroke-dasharray:4;stroke-miterlimit:10;" d="M 1270.590371 2979.330787 L 1284.599344 2983.075354 " transform="matrix(2.002902,0,0,-2.002902,-2239.090139,5982.716543)"/>
<path style="fill:none;stroke-width:0.8;stroke-linecap:butt;stroke-linejoin:round;stroke:rgb(0%,0%,0%);stroke-opacity:1;stroke-dasharray:4;stroke-miterlimit:10;" d="M 1251.918242 2983.434208 L 1265.597615 2986.624892 " transform="matrix(2.002902,0,0,-2.002902,-2239.090139,5982.716543)"/>
<path style="fill:none;stroke-width:0.8;stroke-linecap:butt;stroke-linejoin:round;stroke:rgb(0%,0%,0%);stroke-opacity:1;stroke-dasharray:4;stroke-miterlimit:10;" d="M 1133.911711 2901.141489 L 1123.003709 2910.694036 " transform="matrix(2.002902,0,0,-2.002902,-2239.090139,5982.716543)"/>
<path style="fill:none;stroke-width:0.8;stroke-linecap:butt;stroke-linejoin:round;stroke:rgb(0%,0%,0%);stroke-opacity:1;stroke-dasharray:4;stroke-miterlimit:10;" d="M 1132.591361 2926.169631 L 1121.537086 2934.239954 " transform="matrix(2.002902,0,0,-2.002902,-2239.090139,5982.716543)"/>
<path style="fill:none;stroke-width:0.8;stroke-linecap:butt;stroke-linejoin:round;stroke:rgb(0%,0%,0%);stroke-opacity:1;stroke-dasharray:4;stroke-miterlimit:10;" d="M 1131.068181 2955.221233 L 1118.322999 2962.335911 " transform="matrix(2.002902,0,0,-2.002902,-2239.090139,5982.716543)"/>
<path style="fill:none;stroke-width:0.8;stroke-linecap:butt;stroke-linejoin:round;stroke:rgb(0%,0%,0%);stroke-opacity:1;stroke-dasharray:4;stroke-miterlimit:10;" d="M 1163.012071 2962.685014 L 1150.680352 2967.964464 " transform="matrix(2.002902,0,0,-2.002902,-2239.090139,5982.716543)"/>
<path style="fill:none;stroke-width:0.8;stroke-linecap:butt;stroke-linejoin:round;stroke:rgb(0%,0%,0%);stroke-opacity:1;stroke-dasharray:4;stroke-miterlimit:10;" d="M 1190.702367 2969.150244 L 1177.465711 2973.719786 " transform="matrix(2.002902,0,0,-2.002902,-2239.090139,5982.716543)"/>
<path style="fill:none;stroke-width:0.8;stroke-linecap:butt;stroke-linejoin:round;stroke:rgb(0%,0%,0%);stroke-opacity:1;stroke-dasharray:4;stroke-miterlimit:10;" d="M 1214.000597 2974.581817 L 1200.697631 2978.443402 " transform="matrix(2.002902,0,0,-2.002902,-2239.090139,5982.716543)"/>
<path style="fill:none;stroke-width:0.8;stroke-linecap:butt;stroke-linejoin:round;stroke:rgb(0%,0%,0%);stroke-opacity:1;stroke-dasharray:4;stroke-miterlimit:10;" d="M 1234.299273 2979.322985 L 1221.218641 2982.597531 " transform="matrix(2.002902,0,0,-2.002902,-2239.090139,5982.716543)"/>
<path style="fill:none;stroke-width:0.8;stroke-linecap:butt;stroke-linejoin:round;stroke:rgb(0%,0%,0%);stroke-opacity:1;stroke-dasharray:4;stroke-miterlimit:10;" d="M 1251.920193 2983.440059 L 1237.679135 2986.574184 " transform="matrix(2.002902,0,0,-2.002902,-2239.090139,5982.716543)"/>
</g>
</svg>
