<?xml version="1.0" encoding="UTF-8"?>
<svg xmlns="http://www.w3.org/2000/svg" xmlns:xlink="http://www.w3.org/1999/xlink" width="838pt" height="464pt" viewBox="0 0 838 464" version="1.1">
<g id="surface71669">
<path style=" stroke:none;fill-rule:evenodd;fill:rgb(82.7%,82.7%,82.7%);fill-opacity:1;" d="M 44.234375 169.132813 L 44.234375 127.5 L 2.601563 127.5 L 2.601563 169.132813 Z M 44.234375 169.132813 "/>
<path style=" stroke:none;fill-rule:evenodd;fill:rgb(82.7%,82.7%,82.7%);fill-opacity:1;" d="M 127.5 169.132813 L 127.5 127.5 L 85.867188 127.5 L 85.867188 169.132813 Z M 127.5 169.132813 "/>
<path style=" stroke:none;fill-rule:evenodd;fill:rgb(82.7%,82.7%,82.7%);fill-opacity:1;" d="M 210.765625 169.132813 L 210.765625 127.5 L 169.132813 127.5 L 169.132813 169.132813 Z M 210.765625 169.132813 "/>
<path style=" stroke:none;fill-rule:evenodd;fill:rgb(82.7%,82.7%,82.7%);fill-opacity:1;" d="M 85.867188 210.765625 L 85.867188 169.132813 L 44.234375 169.132813 L 44.234375 210.765625 Z M 85.867188 210.765625 "/>
<path style=" stroke:none;fill-rule:evenodd;fill:rgb(82.7%,82.7%,82.7%);fill-opacity:1;" d="M 169.132813 210.765625 L 169.132813 169.132813 L 127.5 169.132813 L 127.5 210.765625 Z M 169.132813 210.765625 "/>
<path style=" stroke:none;fill-rule:evenodd;fill:rgb(82.7%,82.7%,82.7%);fill-opacity:1;" d="M 252.398438 210.765625 L 252.398438 169.132813 L 210.765625 169.132813 L 210.765625 210.765625 Z M 252.398438 210.765625 "/>
<path style=" stroke:none;fill-rule:evenodd;fill:rgb(82.7%,82.7%,82.7%);fill-opacity:1;" d="M 44.234375 252.398438 L 44.234375 210.765625 L 2.601563 210.765625 L 2.601563 252.398438 Z M 44.234375 252.398438 "/>
<path style=" stroke:none;fill-rule:evenodd;fill:rgb(82.7%,82.7%,82.7%);fill-opacity:1;" d="M 127.5 252.398438 L 127.5 210.765625 L 85.867188 210.765625 L 85.867188 252.398438 Z M 127.5 252.398438 "/>
<path style=" stroke:none;fill-rule:evenodd;fill:rgb(82.7%,82.7%,82.7%);fill-opacity:1;" d="M 210.765625 252.398438 L 210.765625 210.765625 L 169.132813 210.765625 L 169.132813 252.398438 Z M 210.765625 252.398438 "/>
<path style=" stroke:none;fill-rule:evenodd;fill:rgb(82.7%,82.7%,82.7%);fill-opacity:1;" d="M 85.867188 294.03125 L 85.867188 252.398438 L 44.234375 252.398438 L 44.234375 294.03125 Z M 85.867188 294.03125 "/>
<path style=" stroke:none;fill-rule:evenodd;fill:rgb(82.7%,82.7%,82.7%);fill-opacity:1;" d="M 169.132813 294.03125 L 169.132813 252.398438 L 127.5 252.398438 L 127.5 294.03125 Z M 169.132813 294.03125 "/>
<path style=" stroke:none;fill-rule:evenodd;fill:rgb(82.7%,82.7%,82.7%);fill-opacity:1;" d="M 252.398438 294.03125 L 252.398438 252.398438 L 210.765625 252.398438 L 210.765625 294.03125 Z M 252.398438 294.03125 "/>
<path style=" stroke:none;fill-rule:evenodd;fill:rgb(82.7%,82.7%,82.7%);fill-opacity:1;" d="M 210.765625 335.664063 L 210.765625 294.03125 L 169.132813 294.03125 L 169.132813 335.664063 Z M 210.765625 335.664063 "/>
<path style=" stroke:none;fill-rule:evenodd;fill:rgb(82.7%,82.7%,82.7%);fill-opacity:1;" d="M 85.867188 44.234375 L 85.867188 2.601563 L 44.234375 2.601563 L 44.234375 44.234375 Z M 85.867188 44.234375 "/>
<path style=" stroke:none;fill-rule:evenodd;fill:rgb(82.7%,82.7%,82.7%);fill-opacity:1;" d="M 169.132813 44.234375 L 169.132813 2.601563 L 127.5 2.601563 L 127.5 44.234375 Z M 169.132813 44.234375 "/>
<path style=" stroke:none;fill-rule:evenodd;fill:rgb(82.7%,82.7%,82.7%);fill-opacity:1;" d="M 44.234375 85.867188 L 44.234375 44.234375 L 2.601563 44.234375 L 2.601563 85.867188 Z M 44.234375 85.867188 "/>
<path style=" stroke:none;fill-rule:evenodd;fill:rgb(82.7%,82.7%,82.7%);fill-opacity:1;" d="M 127.5 85.867188 L 127.5 44.234375 L 85.867188 44.234375 L 85.867188 85.867188 Z M 127.5 85.867188 "/>
<path style=" stroke:none;fill-rule:evenodd;fill:rgb(82.7%,82.7%,82.7%);fill-opacity:1;" d="M 85.867188 127.5 L 85.867188 85.867188 L 44.234375 85.867188 L 44.234375 127.5 Z M 85.867188 127.5 "/>
<path style=" stroke:none;fill-rule:evenodd;fill:rgb(82.7%,82.7%,82.7%);fill-opacity:1;" d="M 169.132813 127.5 L 169.132813 85.867188 L 127.5 85.867188 L 127.5 127.5 Z M 169.132813 127.5 "/>
<path style=" stroke:none;fill-rule:evenodd;fill:rgb(82.7%,82.7%,82.7%);fill-opacity:1;" d="M 252.398438 44.234375 L 252.398438 2.601563 L 210.765625 2.601563 L 210.765625 44.234375 Z M 252.398438 44.234375 "/>
<path style=" stroke:none;fill-rule:evenodd;fill:rgb(82.7%,82.7%,82.7%);fill-opacity:1;" d="M 210.765625 85.867188 L 210.765625 44.234375 L 169.132813 44.234375 L 169.132813 85.867188 Z M 210.765625 85.867188 "/>
<path style=" stroke:none;fill-rule:evenodd;fill:rgb(82.7%,82.7%,82.7%);fill-opacity:1;" d="M 252.398438 127.5 L 252.398438 85.867188 L 210.765625 85.867188 L 210.765625 127.5 Z M 252.398438 127.5 "/>
<path style=" stroke:none;fill-rule:evenodd;fill:rgb(82.7%,82.7%,82.7%);fill-opacity:1;" d="M 294.03125 252.398438 L 294.03125 210.765625 L 252.398438 210.765625 L 252.398438 252.398438 Z M 294.03125 252.398438 "/>
<path style=" stroke:none;fill-rule:evenodd;fill:rgb(82.7%,82.7%,82.7%);fill-opacity:1;" d="M 377.296875 252.398438 L 377.296875 210.765625 L 335.664063 210.765625 L 335.664063 252.398438 Z M 377.296875 252.398438 "/>
<path style=" stroke:none;fill-rule:evenodd;fill:rgb(82.7%,82.7%,82.7%);fill-opacity:1;" d="M 460.5625 252.398438 L 460.5625 210.765625 L 418.929688 210.765625 L 418.929688 252.398438 Z M 460.5625 252.398438 "/>
<path style=" stroke:none;fill-rule:evenodd;fill:rgb(82.7%,82.7%,82.7%);fill-opacity:1;" d="M 543.828125 252.398438 L 543.828125 210.765625 L 502.195313 210.765625 L 502.195313 252.398438 Z M 543.828125 252.398438 "/>
<path style=" stroke:none;fill-rule:evenodd;fill:rgb(82.7%,82.7%,82.7%);fill-opacity:1;" d="M 335.664063 294.03125 L 335.664063 252.398438 L 294.03125 252.398438 L 294.03125 294.03125 Z M 335.664063 294.03125 "/>
<path style=" stroke:none;fill-rule:evenodd;fill:rgb(82.7%,82.7%,82.7%);fill-opacity:1;" d="M 418.929688 294.03125 L 418.929688 252.398438 L 377.296875 252.398438 L 377.296875 294.03125 Z M 418.929688 294.03125 "/>
<path style=" stroke:none;fill-rule:evenodd;fill:rgb(82.7%,82.7%,82.7%);fill-opacity:1;" d="M 502.195313 294.03125 L 502.195313 252.398438 L 460.5625 252.398438 L 460.5625 294.03125 Z M 502.195313 294.03125 "/>
<path style=" stroke:none;fill-rule:evenodd;fill:rgb(82.7%,82.7%,82.7%);fill-opacity:1;" d="M 294.03125 335.664063 L 294.03125 294.03125 L 252.398438 294.03125 L 252.398438 335.664063 Z M 294.03125 335.664063 "/>
<path style=" stroke:none;fill-rule:evenodd;fill:rgb(82.7%,82.7%,82.7%);fill-opacity:1;" d="M 377.296875 335.664063 L 377.296875 294.03125 L 335.664063 294.03125 L 335.664063 335.664063 Z M 377.296875 335.664063 "/>
<path style=" stroke:none;fill-rule:evenodd;fill:rgb(82.7%,82.7%,82.7%);fill-opacity:1;" d="M 460.5625 335.664063 L 460.5625 294.03125 L 418.929688 294.03125 L 418.929688 335.664063 Z M 460.5625 335.664063 "/>
<path style=" stroke:none;fill-rule:evenodd;fill:rgb(82.7%,82.7%,82.7%);fill-opacity:1;" d="M 543.828125 335.664063 L 543.828125 294.03125 L 502.195313 294.03125 L 502.195313 335.664063 Z M 543.828125 335.664063 "/>
<path style=" stroke:none;fill-rule:evenodd;fill:rgb(82.7%,82.7%,82.7%);fill-opacity:1;" d="M 418.929688 377.296875 L 418.929688 335.664063 L 377.296875 335.664063 L 377.296875 377.296875 Z M 418.929688 377.296875 "/>
<path style=" stroke:none;fill-rule:evenodd;fill:rgb(82.7%,82.7%,82.7%);fill-opacity:1;" d="M 502.195313 377.296875 L 502.195313 335.664063 L 460.5625 335.664063 L 460.5625 377.296875 Z M 502.195313 377.296875 "/>
<path style=" stroke:none;fill-rule:evenodd;fill:rgb(82.7%,82.7%,82.7%);fill-opacity:1;" d="M 585.460938 377.296875 L 585.460938 335.664063 L 543.828125 335.664063 L 543.828125 377.296875 Z M 585.460938 377.296875 "/>
<path style=" stroke:none;fill-rule:evenodd;fill:rgb(82.7%,82.7%,82.7%);fill-opacity:1;" d="M 585.460938 294.03125 L 585.460938 252.398438 L 543.828125 252.398438 L 543.828125 294.03125 Z M 585.460938 294.03125 "/>
<path style=" stroke:none;fill-rule:evenodd;fill:rgb(82.7%,82.7%,82.7%);fill-opacity:1;" d="M 543.828125 418.929688 L 543.828125 377.296875 L 502.195313 377.296875 L 502.195313 418.929688 Z M 543.828125 418.929688 "/>
<path style=" stroke:none;fill-rule:evenodd;fill:rgb(82.7%,82.7%,82.7%);fill-opacity:1;" d="M 627.09375 252.398438 L 627.09375 210.765625 L 585.460938 210.765625 L 585.460938 252.398438 Z M 627.09375 252.398438 "/>
<path style=" stroke:none;fill-rule:evenodd;fill:rgb(82.7%,82.7%,82.7%);fill-opacity:1;" d="M 627.09375 335.664063 L 627.09375 294.03125 L 585.460938 294.03125 L 585.460938 335.664063 Z M 627.09375 335.664063 "/>
<path style=" stroke:none;fill-rule:evenodd;fill:rgb(82.7%,82.7%,82.7%);fill-opacity:1;" d="M 627.09375 418.929688 L 627.09375 377.296875 L 585.460938 377.296875 L 585.460938 418.929688 Z M 627.09375 418.929688 "/>
<path style=" stroke:none;fill-rule:evenodd;fill:rgb(82.7%,82.7%,82.7%);fill-opacity:1;" d="M 335.664063 44.234375 L 335.664063 2.601563 L 294.03125 2.601563 L 294.03125 44.234375 Z M 335.664063 44.234375 "/>
<path style=" stroke:none;fill-rule:evenodd;fill:rgb(82.7%,82.7%,82.7%);fill-opacity:1;" d="M 418.929688 44.234375 L 418.929688 2.601563 L 377.296875 2.601563 L 377.296875 44.234375 Z M 418.929688 44.234375 "/>
<path style=" stroke:none;fill-rule:evenodd;fill:rgb(82.7%,82.7%,82.7%);fill-opacity:1;" d="M 502.195313 44.234375 L 502.195313 2.601563 L 460.5625 2.601563 L 460.5625 44.234375 Z M 502.195313 44.234375 "/>
<path style=" stroke:none;fill-rule:evenodd;fill:rgb(82.7%,82.7%,82.7%);fill-opacity:1;" d="M 585.460938 44.234375 L 585.460938 2.601563 L 543.828125 2.601563 L 543.828125 44.234375 Z M 585.460938 44.234375 "/>
<path style=" stroke:none;fill-rule:evenodd;fill:rgb(82.7%,82.7%,82.7%);fill-opacity:1;" d="M 294.03125 85.867188 L 294.03125 44.234375 L 252.398438 44.234375 L 252.398438 85.867188 Z M 294.03125 85.867188 "/>
<path style=" stroke:none;fill-rule:evenodd;fill:rgb(82.7%,82.7%,82.7%);fill-opacity:1;" d="M 377.296875 85.867188 L 377.296875 44.234375 L 335.664063 44.234375 L 335.664063 85.867188 Z M 377.296875 85.867188 "/>
<path style=" stroke:none;fill-rule:evenodd;fill:rgb(82.7%,82.7%,82.7%);fill-opacity:1;" d="M 335.664063 127.5 L 335.664063 85.867188 L 294.03125 85.867188 L 294.03125 127.5 Z M 335.664063 127.5 "/>
<path style=" stroke:none;fill-rule:evenodd;fill:rgb(82.7%,82.7%,82.7%);fill-opacity:1;" d="M 418.929688 127.5 L 418.929688 85.867188 L 377.296875 85.867188 L 377.296875 127.5 Z M 418.929688 127.5 "/>
<path style=" stroke:none;fill-rule:evenodd;fill:rgb(82.7%,82.7%,82.7%);fill-opacity:1;" d="M 294.03125 169.132813 L 294.03125 127.5 L 252.398438 127.5 L 252.398438 169.132813 Z M 294.03125 169.132813 "/>
<path style=" stroke:none;fill-rule:evenodd;fill:rgb(82.7%,82.7%,82.7%);fill-opacity:1;" d="M 377.296875 169.132813 L 377.296875 127.5 L 335.664063 127.5 L 335.664063 169.132813 Z M 377.296875 169.132813 "/>
<path style=" stroke:none;fill-rule:evenodd;fill:rgb(82.7%,82.7%,82.7%);fill-opacity:1;" d="M 335.664063 210.765625 L 335.664063 169.132813 L 294.03125 169.132813 L 294.03125 210.765625 Z M 335.664063 210.765625 "/>
<path style=" stroke:none;fill-rule:evenodd;fill:rgb(82.7%,82.7%,82.7%);fill-opacity:1;" d="M 418.929688 210.765625 L 418.929688 169.132813 L 377.296875 169.132813 L 377.296875 210.765625 Z M 418.929688 210.765625 "/>
<path style=" stroke:none;fill-rule:evenodd;fill:rgb(82.7%,82.7%,82.7%);fill-opacity:1;" d="M 460.5625 85.867188 L 460.5625 44.234375 L 418.929688 44.234375 L 418.929688 85.867188 Z M 460.5625 85.867188 "/>
<path style=" stroke:none;fill-rule:evenodd;fill:rgb(82.7%,82.7%,82.7%);fill-opacity:1;" d="M 543.828125 85.867188 L 543.828125 44.234375 L 502.195313 44.234375 L 502.195313 85.867188 Z M 543.828125 85.867188 "/>
<path style=" stroke:none;fill-rule:evenodd;fill:rgb(82.7%,82.7%,82.7%);fill-opacity:1;" d="M 502.195313 127.5 L 502.195313 85.867188 L 460.5625 85.867188 L 460.5625 127.5 Z M 502.195313 127.5 "/>
<path style=" stroke:none;fill-rule:evenodd;fill:rgb(82.7%,82.7%,82.7%);fill-opacity:1;" d="M 585.460938 127.5 L 585.460938 85.867188 L 543.828125 85.867188 L 543.828125 127.5 Z M 585.460938 127.5 "/>
<path style=" stroke:none;fill-rule:evenodd;fill:rgb(82.7%,82.7%,82.7%);fill-opacity:1;" d="M 460.5625 169.132813 L 460.5625 127.5 L 418.929688 127.5 L 418.929688 169.132813 Z M 460.5625 169.132813 "/>
<path style=" stroke:none;fill-rule:evenodd;fill:rgb(82.7%,82.7%,82.7%);fill-opacity:1;" d="M 543.828125 169.132813 L 543.828125 127.5 L 502.195313 127.5 L 502.195313 169.132813 Z M 543.828125 169.132813 "/>
<path style=" stroke:none;fill-rule:evenodd;fill:rgb(82.7%,82.7%,82.7%);fill-opacity:1;" d="M 502.195313 210.765625 L 502.195313 169.132813 L 460.5625 169.132813 L 460.5625 210.765625 Z M 502.195313 210.765625 "/>
<path style=" stroke:none;fill-rule:evenodd;fill:rgb(82.7%,82.7%,82.7%);fill-opacity:1;" d="M 585.460938 210.765625 L 585.460938 169.132813 L 543.828125 169.132813 L 543.828125 210.765625 Z M 585.460938 210.765625 "/>
<path style=" stroke:none;fill-rule:evenodd;fill:rgb(82.7%,82.7%,82.7%);fill-opacity:1;" d="M 627.09375 85.867188 L 627.09375 44.234375 L 585.460938 44.234375 L 585.460938 85.867188 Z M 627.09375 85.867188 "/>
<path style=" stroke:none;fill-rule:evenodd;fill:rgb(82.7%,82.7%,82.7%);fill-opacity:1;" d="M 627.09375 169.132813 L 627.09375 127.5 L 585.460938 127.5 L 585.460938 169.132813 Z M 627.09375 169.132813 "/>
<path style=" stroke:none;fill-rule:evenodd;fill:rgb(82.7%,82.7%,82.7%);fill-opacity:1;" d="M 710.359375 169.132813 L 710.359375 127.5 L 668.726563 127.5 L 668.726563 169.132813 Z M 710.359375 169.132813 "/>
<path style=" stroke:none;fill-rule:evenodd;fill:rgb(82.7%,82.7%,82.7%);fill-opacity:1;" d="M 793.625 169.132813 L 793.625 127.5 L 751.992188 127.5 L 751.992188 169.132813 Z M 793.625 169.132813 "/>
<path style=" stroke:none;fill-rule:evenodd;fill:rgb(82.7%,82.7%,82.7%);fill-opacity:1;" d="M 668.726563 210.765625 L 668.726563 169.132813 L 627.09375 169.132813 L 627.09375 210.765625 Z M 668.726563 210.765625 "/>
<path style=" stroke:none;fill-rule:evenodd;fill:rgb(82.7%,82.7%,82.7%);fill-opacity:1;" d="M 751.992188 210.765625 L 751.992188 169.132813 L 710.359375 169.132813 L 710.359375 210.765625 Z M 751.992188 210.765625 "/>
<path style=" stroke:none;fill-rule:evenodd;fill:rgb(82.7%,82.7%,82.7%);fill-opacity:1;" d="M 835.257813 210.765625 L 835.257813 169.132813 L 793.625 169.132813 L 793.625 210.765625 Z M 835.257813 210.765625 "/>
<path style=" stroke:none;fill-rule:evenodd;fill:rgb(82.7%,82.7%,82.7%);fill-opacity:1;" d="M 710.359375 252.398438 L 710.359375 210.765625 L 668.726563 210.765625 L 668.726563 252.398438 Z M 710.359375 252.398438 "/>
<path style=" stroke:none;fill-rule:evenodd;fill:rgb(82.7%,82.7%,82.7%);fill-opacity:1;" d="M 793.625 252.398438 L 793.625 210.765625 L 751.992188 210.765625 L 751.992188 252.398438 Z M 793.625 252.398438 "/>
<path style=" stroke:none;fill-rule:evenodd;fill:rgb(82.7%,82.7%,82.7%);fill-opacity:1;" d="M 668.726563 294.03125 L 668.726563 252.398438 L 627.09375 252.398438 L 627.09375 294.03125 Z M 668.726563 294.03125 "/>
<path style=" stroke:none;fill-rule:evenodd;fill:rgb(82.7%,82.7%,82.7%);fill-opacity:1;" d="M 751.992188 294.03125 L 751.992188 252.398438 L 710.359375 252.398438 L 710.359375 294.03125 Z M 751.992188 294.03125 "/>
<path style=" stroke:none;fill-rule:evenodd;fill:rgb(82.7%,82.7%,82.7%);fill-opacity:1;" d="M 835.257813 294.03125 L 835.257813 252.398438 L 793.625 252.398438 L 793.625 294.03125 Z M 835.257813 294.03125 "/>
<path style=" stroke:none;fill-rule:evenodd;fill:rgb(82.7%,82.7%,82.7%);fill-opacity:1;" d="M 710.359375 335.664063 L 710.359375 294.03125 L 668.726563 294.03125 L 668.726563 335.664063 Z M 710.359375 335.664063 "/>
<path style=" stroke:none;fill-rule:evenodd;fill:rgb(82.7%,82.7%,82.7%);fill-opacity:1;" d="M 668.726563 377.296875 L 668.726563 335.664063 L 627.09375 335.664063 L 627.09375 377.296875 Z M 668.726563 377.296875 "/>
<path style=" stroke:none;fill-rule:evenodd;fill:rgb(82.7%,82.7%,82.7%);fill-opacity:1;" d="M 751.992188 377.296875 L 751.992188 335.664063 L 710.359375 335.664063 L 710.359375 377.296875 Z M 751.992188 377.296875 "/>
<path style=" stroke:none;fill-rule:evenodd;fill:rgb(82.7%,82.7%,82.7%);fill-opacity:1;" d="M 710.359375 418.929688 L 710.359375 377.296875 L 668.726563 377.296875 L 668.726563 418.929688 Z M 710.359375 418.929688 "/>
<path style=" stroke:none;fill-rule:evenodd;fill:rgb(82.7%,82.7%,82.7%);fill-opacity:1;" d="M 751.992188 460.5625 L 751.992188 418.929688 L 710.359375 418.929688 L 710.359375 460.5625 Z M 751.992188 460.5625 "/>
<path style=" stroke:none;fill-rule:evenodd;fill:rgb(82.7%,82.7%,82.7%);fill-opacity:1;" d="M 793.625 335.664063 L 793.625 294.03125 L 751.992188 294.03125 L 751.992188 335.664063 Z M 793.625 335.664063 "/>
<path style=" stroke:none;fill-rule:evenodd;fill:rgb(82.7%,82.7%,82.7%);fill-opacity:1;" d="M 835.257813 377.296875 L 835.257813 335.664063 L 793.625 335.664063 L 793.625 377.296875 Z M 835.257813 377.296875 "/>
<path style=" stroke:none;fill-rule:evenodd;fill:rgb(82.7%,82.7%,82.7%);fill-opacity:1;" d="M 793.625 418.929688 L 793.625 377.296875 L 751.992188 377.296875 L 751.992188 418.929688 Z M 793.625 418.929688 "/>
<path style=" stroke:none;fill-rule:evenodd;fill:rgb(82.7%,82.7%,82.7%);fill-opacity:1;" d="M 835.257813 460.5625 L 835.257813 418.929688 L 793.625 418.929688 L 793.625 460.5625 Z M 835.257813 460.5625 "/>
<path style=" stroke:none;fill-rule:evenodd;fill:rgb(82.7%,82.7%,82.7%);fill-opacity:1;" d="M 668.726563 44.234375 L 668.726563 2.601563 L 627.09375 2.601563 L 627.09375 44.234375 Z M 668.726563 44.234375 "/>
<path style=" stroke:none;fill-rule:evenodd;fill:rgb(82.7%,82.7%,82.7%);fill-opacity:1;" d="M 751.992188 44.234375 L 751.992188 2.601563 L 710.359375 2.601563 L 710.359375 44.234375 Z M 751.992188 44.234375 "/>
<path style=" stroke:none;fill-rule:evenodd;fill:rgb(82.7%,82.7%,82.7%);fill-opacity:1;" d="M 710.359375 85.867188 L 710.359375 44.234375 L 668.726563 44.234375 L 668.726563 85.867188 Z M 710.359375 85.867188 "/>
<path style=" stroke:none;fill-rule:evenodd;fill:rgb(82.7%,82.7%,82.7%);fill-opacity:1;" d="M 668.726563 127.5 L 668.726563 85.867188 L 627.09375 85.867188 L 627.09375 127.5 Z M 668.726563 127.5 "/>
<path style=" stroke:none;fill-rule:evenodd;fill:rgb(82.7%,82.7%,82.7%);fill-opacity:1;" d="M 751.992188 127.5 L 751.992188 85.867188 L 710.359375 85.867188 L 710.359375 127.5 Z M 751.992188 127.5 "/>
<path style=" stroke:none;fill-rule:evenodd;fill:rgb(82.7%,82.7%,82.7%);fill-opacity:1;" d="M 835.257813 44.234375 L 835.257813 2.601563 L 793.625 2.601563 L 793.625 44.234375 Z M 835.257813 44.234375 "/>
<path style=" stroke:none;fill-rule:evenodd;fill:rgb(82.7%,82.7%,82.7%);fill-opacity:1;" d="M 793.625 85.867188 L 793.625 44.234375 L 751.992188 44.234375 L 751.992188 85.867188 Z M 793.625 85.867188 "/>
<path style=" stroke:none;fill-rule:evenodd;fill:rgb(82.7%,82.7%,82.7%);fill-opacity:1;" d="M 835.257813 127.5 L 835.257813 85.867188 L 793.625 85.867188 L 793.625 127.5 Z M 835.257813 127.5 "/>
<path style=" stroke:none;fill-rule:evenodd;fill:rgb(0%,0%,0%);fill-opacity:1;" d="M 819.125 314.847656 C 819.125 308.601563 809.757813 308.601563 809.757813 314.847656 C 809.757813 321.09375 819.125 321.09375 819.125 314.847656 Z M 819.125 314.847656 "/>
<path style=" stroke:none;fill-rule:evenodd;fill:rgb(0%,0%,0%);fill-opacity:1;" d="M 777.492188 148.316406 C 777.492188 142.070313 768.125 142.070313 768.125 148.316406 C 768.125 154.5625 777.492188 154.5625 777.492188 148.316406 Z M 777.492188 148.316406 "/>
<path style=" stroke:none;fill-rule:evenodd;fill:rgb(0%,0%,0%);fill-opacity:1;" d="M 610.960938 106.683594 C 610.960938 100.4375 601.59375 100.4375 601.59375 106.683594 C 601.59375 112.929688 610.960938 112.929688 610.960938 106.683594 Z M 610.960938 106.683594 "/>
<path style=" stroke:none;fill-rule:evenodd;fill:rgb(0%,0%,0%);fill-opacity:1;" d="M 652.59375 273.214844 C 652.59375 266.96875 643.226563 266.96875 643.226563 273.214844 C 643.226563 279.460938 652.59375 279.460938 652.59375 273.214844 Z M 652.59375 273.214844 "/>
<path style=" stroke:none;fill-rule:evenodd;fill:rgb(0%,0%,0%);fill-opacity:1;" d="M 694.226563 106.683594 C 694.226563 100.4375 684.859375 100.4375 684.859375 106.683594 C 684.859375 112.929688 694.226563 112.929688 694.226563 106.683594 Z M 694.226563 106.683594 "/>
<path style=" stroke:none;fill-rule:evenodd;fill:rgb(0%,0%,0%);fill-opacity:1;" d="M 527.695313 148.316406 C 527.695313 142.070313 518.328125 142.070313 518.328125 148.316406 C 518.328125 154.5625 527.695313 154.5625 527.695313 148.316406 Z M 527.695313 148.316406 "/>
<path style=" stroke:none;fill-rule:evenodd;fill:rgb(0%,0%,0%);fill-opacity:1;" d="M 361.164063 106.683594 C 361.164063 100.4375 351.796875 100.4375 351.796875 106.683594 C 351.796875 112.929688 361.164063 112.929688 361.164063 106.683594 Z M 361.164063 106.683594 "/>
<path style=" stroke:none;fill-rule:evenodd;fill:rgb(0%,0%,0%);fill-opacity:1;" d="M 319.53125 273.214844 C 319.53125 266.96875 310.164063 266.96875 310.164063 273.214844 C 310.164063 279.460938 319.53125 279.460938 319.53125 273.214844 Z M 319.53125 273.214844 "/>
<path style=" stroke:none;fill-rule:evenodd;fill:rgb(0%,0%,0%);fill-opacity:1;" d="M 486.0625 231.582031 C 486.0625 225.335938 476.695313 225.335938 476.695313 231.582031 C 476.695313 237.828125 486.0625 237.828125 486.0625 231.582031 Z M 486.0625 231.582031 "/>
<path style=" stroke:none;fill-rule:evenodd;fill:rgb(0%,0%,0%);fill-opacity:1;" d="M 819.125 314.847656 C 819.125 308.601563 809.757813 308.601563 809.757813 314.847656 C 809.757813 321.09375 819.125 321.09375 819.125 314.847656 Z M 819.125 314.847656 "/>
<path style="fill:none;stroke-width:0.4;stroke-linecap:butt;stroke-linejoin:round;stroke:rgb(0%,0%,0%);stroke-opacity:1;stroke-miterlimit:10;" d="M 1463.999582 2568.000277 L 1447.999594 2632.00023 L 1383.999641 2648.000218 L 1399.999629 2584.000265 L 1415.999618 2648.000218 L 1351.999665 2632.00023 L 1287.999712 2648.000218 L 1271.999723 2584.000265 L 1335.999676 2600.000253 " transform="matrix(2.602053,0,0,-2.602053,-2994.96265,6996.919693)"/>
<path style="fill:none;stroke-width:0.4;stroke-linecap:butt;stroke-linejoin:round;stroke:rgb(0%,0%,0%);stroke-opacity:1;stroke-miterlimit:10;" d="M 1335.999676 2600.000253 L 1271.999723 2616.000241 L 1207.99977 2600.000253 L 1223.999759 2664.000206 L 1159.999806 2680.000194 L 1175.999794 2616.000241 L 1191.999782 2680.000194 L 1207.99977 2616.000241 L 1223.999759 2680.000194 L 1287.999712 2664.000206 L 1351.999665 2680.000194 L 1415.999618 2664.000206 L 1431.999606 2600.000253 L 1415.999618 2536.0003 " transform="matrix(2.602053,0,0,-2.602053,-2994.96265,6996.919693)"/>
<path style=" stroke:none;fill-rule:evenodd;fill:rgb(0%,0%,0%);fill-opacity:1;" d="M 319.53125 189.949219 C 319.53125 183.703125 310.164063 183.703125 310.164063 189.949219 C 310.164063 196.195313 319.53125 196.195313 319.53125 189.949219 Z M 319.53125 189.949219 "/>
<path style=" stroke:none;fill-rule:evenodd;fill:rgb(0%,0%,0%);fill-opacity:1;" d="M 153 231.582031 C 153 225.335938 143.632813 225.335938 143.632813 231.582031 C 143.632813 237.828125 153 237.828125 153 231.582031 Z M 153 231.582031 "/>
<path style=" stroke:none;fill-rule:evenodd;fill:rgb(0%,0%,0%);fill-opacity:1;" d="M 194.632813 65.050781 C 194.632813 58.804688 185.265625 58.804688 185.265625 65.050781 C 185.265625 71.296875 194.632813 71.296875 194.632813 65.050781 Z M 194.632813 65.050781 "/>
<path style=" stroke:none;fill-rule:evenodd;fill:rgb(0%,0%,0%);fill-opacity:1;" d="M 28.101563 23.417969 C 28.101563 17.171875 18.734375 17.171875 18.734375 23.417969 C 18.734375 29.664063 28.101563 29.664063 28.101563 23.417969 Z M 28.101563 23.417969 "/>
<path style=" stroke:none;fill-rule:evenodd;fill:rgb(0%,0%,0%);fill-opacity:1;" d="M 69.734375 189.949219 C 69.734375 183.703125 60.367188 183.703125 60.367188 189.949219 C 60.367188 196.195313 69.734375 196.195313 69.734375 189.949219 Z M 69.734375 189.949219 "/>
<path style=" stroke:none;fill-rule:evenodd;fill:rgb(0%,0%,0%);fill-opacity:1;" d="M 111.367188 23.417969 C 111.367188 17.171875 102 17.171875 102 23.417969 C 102 29.664063 111.367188 29.664063 111.367188 23.417969 Z M 111.367188 23.417969 "/>
<path style=" stroke:none;fill-rule:evenodd;fill:rgb(0%,0%,0%);fill-opacity:1;" d="M 153 189.949219 C 153 183.703125 143.632813 183.703125 143.632813 189.949219 C 143.632813 196.195313 153 196.195313 153 189.949219 Z M 153 189.949219 "/>
<path style=" stroke:none;fill-rule:evenodd;fill:rgb(0%,0%,0%);fill-opacity:1;" d="M 194.632813 23.417969 C 194.632813 17.171875 185.265625 17.171875 185.265625 23.417969 C 185.265625 29.664063 194.632813 29.664063 194.632813 23.417969 Z M 194.632813 23.417969 "/>
<path style=" stroke:none;fill-rule:evenodd;fill:rgb(0%,0%,0%);fill-opacity:1;" d="M 361.164063 65.050781 C 361.164063 58.804688 351.796875 58.804688 351.796875 65.050781 C 351.796875 71.296875 361.164063 71.296875 361.164063 65.050781 Z M 361.164063 65.050781 "/>
<path style=" stroke:none;fill-rule:evenodd;fill:rgb(0%,0%,0%);fill-opacity:1;" d="M 527.695313 23.417969 C 527.695313 17.171875 518.328125 17.171875 518.328125 23.417969 C 518.328125 29.664063 527.695313 29.664063 527.695313 23.417969 Z M 527.695313 23.417969 "/>
<path style=" stroke:none;fill-rule:evenodd;fill:rgb(0%,0%,0%);fill-opacity:1;" d="M 694.226563 65.050781 C 694.226563 58.804688 684.859375 58.804688 684.859375 65.050781 C 684.859375 71.296875 694.226563 71.296875 694.226563 65.050781 Z M 694.226563 65.050781 "/>
<path style=" stroke:none;fill-rule:evenodd;fill:rgb(0%,0%,0%);fill-opacity:1;" d="M 735.859375 231.582031 C 735.859375 225.335938 726.492188 225.335938 726.492188 231.582031 C 726.492188 237.828125 735.859375 237.828125 735.859375 231.582031 Z M 735.859375 231.582031 "/>
<path style=" stroke:none;fill-rule:evenodd;fill:rgb(0%,0%,0%);fill-opacity:1;" d="M 694.226563 398.113281 C 694.226563 391.867188 684.859375 391.867188 684.859375 398.113281 C 684.859375 404.359375 694.226563 404.359375 694.226563 398.113281 Z M 694.226563 398.113281 "/>
<path style=" stroke:none;fill-rule:evenodd;fill:rgb(100%,0%,0%);fill-opacity:1;" d="M 694.226563 356.480469 C 694.226563 350.234375 684.859375 350.234375 684.859375 356.480469 C 684.859375 362.726563 694.226563 362.726563 694.226563 356.480469 Z M 694.226563 356.480469 "/>
<path style="fill:none;stroke-width:0.4;stroke-linecap:butt;stroke-linejoin:round;stroke:rgb(100%,0%,0%);stroke-opacity:1;stroke-miterlimit:10;" d="M 1415.999618 2552.000288 L 1447.999594 2680.000194 L 1319.999688 2648.000218 L 1303.9997 2584.000265 L 1239.999747 2600.000253 L 1303.9997 2616.000241 L 1287.999712 2680.000194 L 1351.999665 2664.000206 L 1415.999618 2680.000194 L 1399.999629 2616.000241 L 1463.999582 2632.00023 L 1399.999629 2648.000218 L 1415.999618 2584.000265 L 1431.999606 2648.000218 L 1447.999594 2584.000265 L 1463.999582 2648.000218 L 1399.999629 2664.000206 L 1463.999582 2680.000194 L 1447.999594 2616.000241 L 1463.999582 2552.000288 " transform="matrix(2.602053,0,0,-2.602053,-2994.96265,6996.919693)"/>
<path style=" stroke:none;fill-rule:evenodd;fill:rgb(100%,0%,0%);fill-opacity:1;" d="M 819.125 356.480469 C 819.125 350.234375 809.757813 350.234375 809.757813 356.480469 C 809.757813 362.726563 819.125 362.726563 819.125 356.480469 Z M 819.125 356.480469 "/>
<path style=" stroke:none;fill-rule:evenodd;fill:rgb(100%,0%,0%);fill-opacity:1;" d="M 777.492188 189.949219 C 777.492188 183.703125 768.125 183.703125 768.125 189.949219 C 768.125 196.195313 777.492188 196.195313 777.492188 189.949219 Z M 777.492188 189.949219 "/>
<path style=" stroke:none;fill-rule:evenodd;fill:rgb(100%,0%,0%);fill-opacity:1;" d="M 819.125 23.417969 C 819.125 17.171875 809.757813 17.171875 809.757813 23.417969 C 809.757813 29.664063 819.125 29.664063 819.125 23.417969 Z M 819.125 23.417969 "/>
<path style=" stroke:none;fill-rule:evenodd;fill:rgb(100%,0%,0%);fill-opacity:1;" d="M 652.59375 65.050781 C 652.59375 58.804688 643.226563 58.804688 643.226563 65.050781 C 643.226563 71.296875 652.59375 71.296875 652.59375 65.050781 Z M 652.59375 65.050781 "/>
<path style=" stroke:none;fill-rule:evenodd;fill:rgb(100%,0%,0%);fill-opacity:1;" d="M 777.492188 23.417969 C 777.492188 17.171875 768.125 17.171875 768.125 23.417969 C 768.125 29.664063 777.492188 29.664063 777.492188 23.417969 Z M 777.492188 23.417969 "/>
<path style=" stroke:none;fill-rule:evenodd;fill:rgb(100%,0%,0%);fill-opacity:1;" d="M 819.125 106.683594 C 819.125 100.4375 809.757813 100.4375 809.757813 106.683594 C 809.757813 112.929688 819.125 112.929688 819.125 106.683594 Z M 819.125 106.683594 "/>
<path style=" stroke:none;fill-rule:evenodd;fill:rgb(100%,0%,0%);fill-opacity:1;" d="M 777.492188 273.214844 C 777.492188 266.96875 768.125 266.96875 768.125 273.214844 C 768.125 279.460938 777.492188 279.460938 777.492188 273.214844 Z M 777.492188 273.214844 "/>
<path style=" stroke:none;fill-rule:evenodd;fill:rgb(100%,0%,0%);fill-opacity:1;" d="M 819.125 148.316406 C 819.125 142.070313 809.757813 142.070313 809.757813 148.316406 C 809.757813 154.5625 819.125 154.5625 819.125 148.316406 Z M 819.125 148.316406 "/>
<path style=" stroke:none;fill-rule:evenodd;fill:rgb(100%,0%,0%);fill-opacity:1;" d="M 735.859375 106.683594 C 735.859375 100.4375 726.492188 100.4375 726.492188 106.683594 C 726.492188 112.929688 735.859375 112.929688 735.859375 106.683594 Z M 735.859375 106.683594 "/>
<path style=" stroke:none;fill-rule:evenodd;fill:rgb(100%,0%,0%);fill-opacity:1;" d="M 652.59375 106.683594 C 652.59375 100.4375 643.226563 100.4375 643.226563 106.683594 C 643.226563 112.929688 652.59375 112.929688 652.59375 106.683594 Z M 652.59375 106.683594 "/>
<path style=" stroke:none;fill-rule:evenodd;fill:rgb(100%,0%,0%);fill-opacity:1;" d="M 652.59375 189.949219 C 652.59375 183.703125 643.226563 183.703125 643.226563 189.949219 C 643.226563 196.195313 652.59375 196.195313 652.59375 189.949219 Z M 652.59375 189.949219 "/>
<path style=" stroke:none;fill-rule:evenodd;fill:rgb(100%,0%,0%);fill-opacity:1;" d="M 694.226563 273.214844 C 694.226563 266.96875 684.859375 266.96875 684.859375 273.214844 C 684.859375 279.460938 694.226563 279.460938 694.226563 273.214844 Z M 694.226563 273.214844 "/>
<path style=" stroke:none;fill-rule:evenodd;fill:rgb(100%,0%,0%);fill-opacity:1;" d="M 735.859375 189.949219 C 735.859375 183.703125 726.492188 183.703125 726.492188 189.949219 C 726.492188 196.195313 735.859375 196.195313 735.859375 189.949219 Z M 735.859375 189.949219 "/>
<path style=" stroke:none;fill-rule:evenodd;fill:rgb(100%,0%,0%);fill-opacity:1;" d="M 694.226563 23.417969 C 694.226563 17.171875 684.859375 17.171875 684.859375 23.417969 C 684.859375 29.664063 694.226563 29.664063 694.226563 23.417969 Z M 694.226563 23.417969 "/>
<path style=" stroke:none;fill-rule:evenodd;fill:rgb(100%,0%,0%);fill-opacity:1;" d="M 527.695313 65.050781 C 527.695313 58.804688 518.328125 58.804688 518.328125 65.050781 C 518.328125 71.296875 527.695313 71.296875 527.695313 65.050781 Z M 527.695313 65.050781 "/>
<path style=" stroke:none;fill-rule:evenodd;fill:rgb(100%,0%,0%);fill-opacity:1;" d="M 361.164063 23.417969 C 361.164063 17.171875 351.796875 17.171875 351.796875 23.417969 C 351.796875 29.664063 361.164063 29.664063 361.164063 23.417969 Z M 361.164063 23.417969 "/>
<path style=" stroke:none;fill-rule:evenodd;fill:rgb(100%,0%,0%);fill-opacity:1;" d="M 444.429688 106.683594 C 444.429688 100.4375 435.0625 100.4375 435.0625 106.683594 C 435.0625 112.929688 444.429688 112.929688 444.429688 106.683594 Z M 444.429688 106.683594 "/>
<path style=" stroke:none;fill-rule:evenodd;fill:rgb(100%,0%,0%);fill-opacity:1;" d="M 402.796875 189.949219 C 402.796875 183.703125 393.429688 183.703125 393.429688 189.949219 C 393.429688 196.195313 402.796875 196.195313 402.796875 189.949219 Z M 402.796875 189.949219 "/>
<path style=" stroke:none;fill-rule:evenodd;fill:rgb(100%,0%,0%);fill-opacity:1;" d="M 402.796875 273.214844 C 402.796875 266.96875 393.429688 266.96875 393.429688 273.214844 C 393.429688 279.460938 402.796875 279.460938 402.796875 273.214844 Z M 402.796875 273.214844 "/>
<path style=" stroke:none;fill-rule:evenodd;fill:rgb(100%,0%,0%);fill-opacity:1;" d="M 236.265625 231.582031 C 236.265625 225.335938 226.898438 225.335938 226.898438 231.582031 C 226.898438 237.828125 236.265625 237.828125 236.265625 231.582031 Z M 236.265625 231.582031 "/>
<path style=" stroke:none;fill-rule:evenodd;fill:rgb(100%,0%,0%);fill-opacity:1;" d="M 610.960938 65.050781 C 610.960938 58.804688 601.59375 58.804688 601.59375 65.050781 C 601.59375 71.296875 610.960938 71.296875 610.960938 65.050781 Z M 610.960938 65.050781 "/>
<path style=" stroke:none;fill-rule:evenodd;fill:rgb(0%,0%,100%);fill-opacity:1;" d="M 777.492188 439.746094 C 777.492188 433.503906 768.125 433.503906 768.125 439.746094 C 768.125 445.992188 777.492188 445.992188 777.492188 439.746094 Z M 777.492188 439.746094 "/>
<path style="fill:none;stroke-width:0.4;stroke-linecap:butt;stroke-linejoin:round;stroke:rgb(0%,0%,100%);stroke-opacity:1;stroke-miterlimit:10;" d="M 1447.999594 2520.000312 L 1463.999582 2584.000265 L 1447.999594 2648.000218 L 1431.999606 2584.000265 L 1367.999653 2568.000277 L 1383.999641 2632.00023 L 1399.999629 2568.000277 L 1335.999676 2552.000288 L 1319.999688 2616.000241 L 1191.999782 2648.000218 L 1207.99977 2584.000265 L 1271.999723 2568.000277 L 1287.999712 2632.00023 L 1223.999759 2616.000241 L 1159.999806 2632.00023 L 1223.999759 2648.000218 L 1159.999806 2664.000206 L 1175.999794 2600.000253 L 1191.999782 2664.000206 L 1255.999735 2680.000194 L 1319.999688 2664.000206 L 1383.999641 2680.000194 L 1447.999594 2664.000206 L 1463.999582 2600.000253 L 1447.999594 2536.0003 " transform="matrix(2.602053,0,0,-2.602053,-2994.96265,6996.919693)"/>
<path style=" stroke:none;fill-rule:evenodd;fill:rgb(0%,0%,100%);fill-opacity:1;" d="M 777.492188 398.113281 C 777.492188 391.867188 768.125 391.867188 768.125 398.113281 C 768.125 404.359375 777.492188 404.359375 777.492188 398.113281 Z M 777.492188 398.113281 "/>
<path style=" stroke:none;fill-rule:evenodd;fill:rgb(0%,0%,100%);fill-opacity:1;" d="M 819.125 231.582031 C 819.125 225.335938 809.757813 225.335938 809.757813 231.582031 C 809.757813 237.828125 819.125 237.828125 819.125 231.582031 Z M 819.125 231.582031 "/>
<path style=" stroke:none;fill-rule:evenodd;fill:rgb(0%,0%,100%);fill-opacity:1;" d="M 819.125 273.214844 C 819.125 266.96875 809.757813 266.96875 809.757813 273.214844 C 809.757813 279.460938 819.125 279.460938 819.125 273.214844 Z M 819.125 273.214844 "/>
<path style=" stroke:none;fill-rule:evenodd;fill:rgb(0%,0%,100%);fill-opacity:1;" d="M 777.492188 106.683594 C 777.492188 100.4375 768.125 100.4375 768.125 106.683594 C 768.125 112.929688 777.492188 112.929688 777.492188 106.683594 Z M 777.492188 106.683594 "/>
<path style=" stroke:none;fill-rule:evenodd;fill:rgb(0%,0%,100%);fill-opacity:1;" d="M 777.492188 65.050781 C 777.492188 58.804688 768.125 58.804688 768.125 65.050781 C 768.125 71.296875 777.492188 71.296875 777.492188 65.050781 Z M 777.492188 65.050781 "/>
<path style=" stroke:none;fill-rule:evenodd;fill:rgb(0%,0%,100%);fill-opacity:1;" d="M 610.960938 23.417969 C 610.960938 17.171875 601.59375 17.171875 601.59375 23.417969 C 601.59375 29.664063 610.960938 29.664063 610.960938 23.417969 Z M 610.960938 23.417969 "/>
<path style=" stroke:none;fill-rule:evenodd;fill:rgb(0%,0%,100%);fill-opacity:1;" d="M 610.960938 148.316406 C 610.960938 142.070313 601.59375 142.070313 601.59375 148.316406 C 601.59375 154.5625 610.960938 154.5625 610.960938 148.316406 Z M 610.960938 148.316406 "/>
<path style=" stroke:none;fill-rule:evenodd;fill:rgb(0%,0%,100%);fill-opacity:1;" d="M 569.328125 314.847656 C 569.328125 308.601563 559.960938 308.601563 559.960938 314.847656 C 559.960938 321.09375 569.328125 321.09375 569.328125 314.847656 Z M 569.328125 314.847656 "/>
<path style=" stroke:none;fill-rule:evenodd;fill:rgb(0%,0%,100%);fill-opacity:1;" d="M 652.59375 314.847656 C 652.59375 308.601563 643.226563 308.601563 643.226563 314.847656 C 643.226563 321.09375 652.59375 321.09375 652.59375 314.847656 Z M 652.59375 314.847656 "/>
<path style=" stroke:none;fill-rule:evenodd;fill:rgb(0%,0%,100%);fill-opacity:1;" d="M 735.859375 273.214844 C 735.859375 266.96875 726.492188 266.96875 726.492188 273.214844 C 726.492188 279.460938 735.859375 279.460938 735.859375 273.214844 Z M 735.859375 273.214844 "/>
<path style=" stroke:none;fill-rule:evenodd;fill:rgb(0%,0%,100%);fill-opacity:1;" d="M 486.0625 356.480469 C 486.0625 350.234375 476.695313 350.234375 476.695313 356.480469 C 476.695313 362.726563 486.0625 362.726563 486.0625 356.480469 Z M 486.0625 356.480469 "/>
<path style=" stroke:none;fill-rule:evenodd;fill:rgb(0%,0%,100%);fill-opacity:1;" d="M 444.429688 189.949219 C 444.429688 183.703125 435.0625 183.703125 435.0625 189.949219 C 435.0625 196.195313 444.429688 196.195313 444.429688 189.949219 Z M 444.429688 189.949219 "/>
<path style=" stroke:none;fill-rule:evenodd;fill:rgb(0%,0%,100%);fill-opacity:1;" d="M 361.164063 148.316406 C 361.164063 142.070313 351.796875 142.070313 351.796875 148.316406 C 351.796875 154.5625 361.164063 154.5625 361.164063 148.316406 Z M 361.164063 148.316406 "/>
<path style=" stroke:none;fill-rule:evenodd;fill:rgb(0%,0%,100%);fill-opacity:1;" d="M 319.53125 314.847656 C 319.53125 308.601563 310.164063 308.601563 310.164063 314.847656 C 310.164063 321.09375 319.53125 321.09375 319.53125 314.847656 Z M 319.53125 314.847656 "/>
<path style=" stroke:none;fill-rule:evenodd;fill:rgb(0%,0%,100%);fill-opacity:1;" d="M 153 273.214844 C 153 266.96875 143.632813 266.96875 143.632813 273.214844 C 143.632813 279.460938 153 279.460938 153 273.214844 Z M 153 273.214844 "/>
<path style=" stroke:none;fill-rule:evenodd;fill:rgb(0%,0%,100%);fill-opacity:1;" d="M 194.632813 189.949219 C 194.632813 183.703125 185.265625 183.703125 185.265625 189.949219 C 185.265625 196.195313 194.632813 196.195313 194.632813 189.949219 Z M 194.632813 189.949219 "/>
<path style=" stroke:none;fill-rule:evenodd;fill:rgb(0%,0%,100%);fill-opacity:1;" d="M 28.101563 148.316406 C 28.101563 142.070313 18.734375 142.070313 18.734375 148.316406 C 18.734375 154.5625 28.101563 154.5625 28.101563 148.316406 Z M 28.101563 148.316406 "/>
<path style=" stroke:none;fill-rule:evenodd;fill:rgb(0%,0%,100%);fill-opacity:1;" d="M 69.734375 231.582031 C 69.734375 225.335938 60.367188 225.335938 60.367188 231.582031 C 60.367188 237.828125 69.734375 237.828125 69.734375 231.582031 Z M 69.734375 231.582031 "/>
<path style=" stroke:none;fill-rule:evenodd;fill:rgb(0%,0%,100%);fill-opacity:1;" d="M 28.101563 65.050781 C 28.101563 58.804688 18.734375 58.804688 18.734375 65.050781 C 18.734375 71.296875 28.101563 71.296875 28.101563 65.050781 Z M 28.101563 65.050781 "/>
<path style=" stroke:none;fill-rule:evenodd;fill:rgb(0%,0%,100%);fill-opacity:1;" d="M 111.367188 106.683594 C 111.367188 100.4375 102 100.4375 102 106.683594 C 102 112.929688 111.367188 112.929688 111.367188 106.683594 Z M 111.367188 106.683594 "/>
<path style=" stroke:none;fill-rule:evenodd;fill:rgb(0%,0%,100%);fill-opacity:1;" d="M 194.632813 106.683594 C 194.632813 100.4375 185.265625 100.4375 185.265625 106.683594 C 185.265625 112.929688 194.632813 112.929688 194.632813 106.683594 Z M 194.632813 106.683594 "/>
<path style=" stroke:none;fill-rule:evenodd;fill:rgb(0%,0%,100%);fill-opacity:1;" d="M 111.367188 65.050781 C 111.367188 58.804688 102 58.804688 102 65.050781 C 102 71.296875 111.367188 71.296875 111.367188 65.050781 Z M 111.367188 65.050781 "/>
<path style=" stroke:none;fill-rule:evenodd;fill:rgb(0%,0%,100%);fill-opacity:1;" d="M 277.898438 23.417969 C 277.898438 17.171875 268.53125 17.171875 268.53125 23.417969 C 268.53125 29.664063 277.898438 29.664063 277.898438 23.417969 Z M 277.898438 23.417969 "/>
<path style=" stroke:none;fill-rule:evenodd;fill:rgb(0%,0%,100%);fill-opacity:1;" d="M 444.429688 65.050781 C 444.429688 58.804688 435.0625 58.804688 435.0625 65.050781 C 435.0625 71.296875 444.429688 71.296875 444.429688 65.050781 Z M 444.429688 65.050781 "/>
<path style=" stroke:none;fill-rule:evenodd;fill:rgb(0%,0%,100%);fill-opacity:1;" d="M 277.898438 148.316406 C 277.898438 142.070313 268.53125 142.070313 268.53125 148.316406 C 268.53125 154.5625 277.898438 154.5625 277.898438 148.316406 Z M 277.898438 148.316406 "/>
<path style=" stroke:none;fill-rule:evenodd;fill:rgb(100%,64.7%,0%);fill-opacity:1;" d="M 777.492188 356.480469 C 777.492188 350.234375 768.125 350.234375 768.125 356.480469 C 768.125 362.726563 777.492188 362.726563 777.492188 356.480469 Z M 777.492188 356.480469 "/>
<path style="fill:none;stroke-width:0.4;stroke-linecap:butt;stroke-linejoin:round;stroke:rgb(100%,64.7%,0%);stroke-opacity:1;stroke-miterlimit:10;" d="M 1447.999594 2552.000288 L 1463.999582 2616.000241 L 1399.999629 2632.00023 L 1383.999641 2568.000277 L 1367.999653 2632.00023 L 1351.999665 2568.000277 L 1287.999712 2552.000288 L 1223.999759 2568.000277 L 1207.99977 2632.00023 L 1271.999723 2648.000218 L 1335.999676 2632.00023 L 1319.999688 2568.000277 L 1383.999641 2552.000288 L 1367.999653 2616.000241 L 1431.999606 2632.00023 L 1447.999594 2568.000277 " transform="matrix(2.602053,0,0,-2.602053,-2994.96265,6996.919693)"/>
<path style=" stroke:none;fill-rule:evenodd;fill:rgb(100%,64.7%,0%);fill-opacity:1;" d="M 777.492188 314.847656 C 777.492188 308.601563 768.125 308.601563 768.125 314.847656 C 768.125 321.09375 777.492188 321.09375 777.492188 314.847656 Z M 777.492188 314.847656 "/>
<path style=" stroke:none;fill-rule:evenodd;fill:rgb(100%,64.7%,0%);fill-opacity:1;" d="M 735.859375 148.316406 C 735.859375 142.070313 726.492188 142.070313 726.492188 148.316406 C 726.492188 154.5625 735.859375 154.5625 735.859375 148.316406 Z M 735.859375 148.316406 "/>
<path style=" stroke:none;fill-rule:evenodd;fill:rgb(100%,64.7%,0%);fill-opacity:1;" d="M 819.125 189.949219 C 819.125 183.703125 809.757813 183.703125 809.757813 189.949219 C 809.757813 196.195313 819.125 196.195313 819.125 189.949219 Z M 819.125 189.949219 "/>
<path style=" stroke:none;fill-rule:evenodd;fill:rgb(100%,64.7%,0%);fill-opacity:1;" d="M 652.59375 148.316406 C 652.59375 142.070313 643.226563 142.070313 643.226563 148.316406 C 643.226563 154.5625 652.59375 154.5625 652.59375 148.316406 Z M 652.59375 148.316406 "/>
<path style=" stroke:none;fill-rule:evenodd;fill:rgb(100%,64.7%,0%);fill-opacity:1;" d="M 569.328125 189.949219 C 569.328125 183.703125 559.960938 183.703125 559.960938 189.949219 C 559.960938 196.195313 569.328125 196.195313 569.328125 189.949219 Z M 569.328125 189.949219 "/>
<path style=" stroke:none;fill-rule:evenodd;fill:rgb(100%,64.7%,0%);fill-opacity:1;" d="M 569.328125 148.316406 C 569.328125 142.070313 559.960938 142.070313 559.960938 148.316406 C 559.960938 154.5625 569.328125 154.5625 569.328125 148.316406 Z M 569.328125 148.316406 "/>
<path style=" stroke:none;fill-rule:evenodd;fill:rgb(100%,64.7%,0%);fill-opacity:1;" d="M 610.960938 314.847656 C 610.960938 308.601563 601.59375 308.601563 601.59375 314.847656 C 601.59375 321.09375 610.960938 321.09375 610.960938 314.847656 Z M 610.960938 314.847656 "/>
<path style=" stroke:none;fill-rule:evenodd;fill:rgb(100%,64.7%,0%);fill-opacity:1;" d="M 610.960938 356.480469 C 610.960938 350.234375 601.59375 350.234375 601.59375 356.480469 C 601.59375 362.726563 610.960938 362.726563 610.960938 356.480469 Z M 610.960938 356.480469 "/>
<path style=" stroke:none;fill-rule:evenodd;fill:rgb(100%,64.7%,0%);fill-opacity:1;" d="M 444.429688 314.847656 C 444.429688 308.601563 435.0625 308.601563 435.0625 314.847656 C 435.0625 321.09375 444.429688 321.09375 444.429688 314.847656 Z M 444.429688 314.847656 "/>
<path style=" stroke:none;fill-rule:evenodd;fill:rgb(100%,64.7%,0%);fill-opacity:1;" d="M 527.695313 314.847656 C 527.695313 308.601563 518.328125 308.601563 518.328125 314.847656 C 518.328125 321.09375 527.695313 321.09375 527.695313 314.847656 Z M 527.695313 314.847656 "/>
<path style=" stroke:none;fill-rule:evenodd;fill:rgb(100%,64.7%,0%);fill-opacity:1;" d="M 361.164063 356.480469 C 361.164063 350.234375 351.796875 350.234375 351.796875 356.480469 C 351.796875 362.726563 361.164063 362.726563 361.164063 356.480469 Z M 361.164063 356.480469 "/>
<path style=" stroke:none;fill-rule:evenodd;fill:rgb(100%,64.7%,0%);fill-opacity:1;" d="M 194.632813 314.847656 C 194.632813 308.601563 185.265625 308.601563 185.265625 314.847656 C 185.265625 321.09375 194.632813 321.09375 194.632813 314.847656 Z M 194.632813 314.847656 "/>
<path style=" stroke:none;fill-rule:evenodd;fill:rgb(100%,64.7%,0%);fill-opacity:1;" d="M 153 148.316406 C 153 142.070313 143.632813 142.070313 143.632813 148.316406 C 143.632813 154.5625 153 154.5625 153 148.316406 Z M 153 148.316406 "/>
<path style=" stroke:none;fill-rule:evenodd;fill:rgb(100%,64.7%,0%);fill-opacity:1;" d="M 319.53125 106.683594 C 319.53125 100.4375 310.164063 100.4375 310.164063 106.683594 C 310.164063 112.929688 319.53125 112.929688 319.53125 106.683594 Z M 319.53125 106.683594 "/>
<path style=" stroke:none;fill-rule:evenodd;fill:rgb(100%,64.7%,0%);fill-opacity:1;" d="M 486.0625 148.316406 C 486.0625 142.070313 476.695313 142.070313 476.695313 148.316406 C 476.695313 154.5625 486.0625 154.5625 486.0625 148.316406 Z M 486.0625 148.316406 "/>
<path style=" stroke:none;fill-rule:evenodd;fill:rgb(62.7%,12.5%,94.1%);fill-opacity:1;" d="M 735.859375 398.113281 C 735.859375 391.867188 726.492188 391.867188 726.492188 398.113281 C 726.492188 404.359375 735.859375 404.359375 735.859375 398.113281 Z M 735.859375 398.113281 "/>
<path style="fill:none;stroke-width:0.4;stroke-linecap:butt;stroke-linejoin:round;stroke:rgb(62.7%,12.5%,94.1%);stroke-opacity:1;stroke-miterlimit:10;" d="M 1431.999606 2536.0003 L 1239.999747 2584.000265 L 1255.999735 2648.000218 L 1191.999782 2632.00023 L 1255.999735 2616.000241 L 1271.999723 2680.000194 L 1335.999676 2664.000206 L 1399.999629 2680.000194 L 1463.999582 2664.000206 L 1447.999594 2600.000253 L 1431.999606 2664.000206 L 1399.999629 2536.0003 L 1463.999582 2520.000312 " transform="matrix(2.602053,0,0,-2.602053,-2994.96265,6996.919693)"/>
<path style=" stroke:none;fill-rule:evenodd;fill:rgb(62.7%,12.5%,94.1%);fill-opacity:1;" d="M 819.125 439.746094 C 819.125 433.503906 809.757813 433.503906 809.757813 439.746094 C 809.757813 445.992188 819.125 445.992188 819.125 439.746094 Z M 819.125 439.746094 "/>
<path style=" stroke:none;fill-rule:evenodd;fill:rgb(62.7%,12.5%,94.1%);fill-opacity:1;" d="M 652.59375 398.113281 C 652.59375 391.867188 643.226563 391.867188 643.226563 398.113281 C 643.226563 404.359375 652.59375 404.359375 652.59375 398.113281 Z M 652.59375 398.113281 "/>
<path style=" stroke:none;fill-rule:evenodd;fill:rgb(62.7%,12.5%,94.1%);fill-opacity:1;" d="M 569.328125 356.480469 C 569.328125 350.234375 559.960938 350.234375 559.960938 356.480469 C 559.960938 362.726563 569.328125 362.726563 569.328125 356.480469 Z M 569.328125 356.480469 "/>
<path style=" stroke:none;fill-rule:evenodd;fill:rgb(62.7%,12.5%,94.1%);fill-opacity:1;" d="M 402.796875 314.847656 C 402.796875 308.601563 393.429688 308.601563 393.429688 314.847656 C 393.429688 321.09375 402.796875 321.09375 402.796875 314.847656 Z M 402.796875 314.847656 "/>
<path style=" stroke:none;fill-rule:evenodd;fill:rgb(62.7%,12.5%,94.1%);fill-opacity:1;" d="M 236.265625 273.214844 C 236.265625 266.96875 226.898438 266.96875 226.898438 273.214844 C 226.898438 279.460938 236.265625 279.460938 236.265625 273.214844 Z M 236.265625 273.214844 "/>
<path style=" stroke:none;fill-rule:evenodd;fill:rgb(62.7%,12.5%,94.1%);fill-opacity:1;" d="M 277.898438 106.683594 C 277.898438 100.4375 268.53125 100.4375 268.53125 106.683594 C 268.53125 112.929688 277.898438 112.929688 277.898438 106.683594 Z M 277.898438 106.683594 "/>
<path style=" stroke:none;fill-rule:evenodd;fill:rgb(62.7%,12.5%,94.1%);fill-opacity:1;" d="M 111.367188 148.316406 C 111.367188 142.070313 102 142.070313 102 148.316406 C 102 154.5625 111.367188 154.5625 111.367188 148.316406 Z M 111.367188 148.316406 "/>
<path style=" stroke:none;fill-rule:evenodd;fill:rgb(62.7%,12.5%,94.1%);fill-opacity:1;" d="M 277.898438 189.949219 C 277.898438 183.703125 268.53125 183.703125 268.53125 189.949219 C 268.53125 196.195313 277.898438 196.195313 277.898438 189.949219 Z M 277.898438 189.949219 "/>
<path style=" stroke:none;fill-rule:evenodd;fill:rgb(62.7%,12.5%,94.1%);fill-opacity:1;" d="M 319.53125 23.417969 C 319.53125 17.171875 310.164063 17.171875 310.164063 23.417969 C 310.164063 29.664063 319.53125 29.664063 319.53125 23.417969 Z M 319.53125 23.417969 "/>
<path style=" stroke:none;fill-rule:evenodd;fill:rgb(62.7%,12.5%,94.1%);fill-opacity:1;" d="M 486.0625 65.050781 C 486.0625 58.804688 476.695313 58.804688 476.695313 65.050781 C 476.695313 71.296875 486.0625 71.296875 486.0625 65.050781 Z M 486.0625 65.050781 "/>
<path style=" stroke:none;fill-rule:evenodd;fill:rgb(62.7%,12.5%,94.1%);fill-opacity:1;" d="M 652.59375 23.417969 C 652.59375 17.171875 643.226563 17.171875 643.226563 23.417969 C 643.226563 29.664063 652.59375 29.664063 652.59375 23.417969 Z M 652.59375 23.417969 "/>
<path style=" stroke:none;fill-rule:evenodd;fill:rgb(62.7%,12.5%,94.1%);fill-opacity:1;" d="M 819.125 65.050781 C 819.125 58.804688 809.757813 58.804688 809.757813 65.050781 C 809.757813 71.296875 819.125 71.296875 819.125 65.050781 Z M 819.125 65.050781 "/>
<path style=" stroke:none;fill-rule:evenodd;fill:rgb(62.7%,12.5%,94.1%);fill-opacity:1;" d="M 777.492188 231.582031 C 777.492188 225.335938 768.125 225.335938 768.125 231.582031 C 768.125 237.828125 777.492188 237.828125 777.492188 231.582031 Z M 777.492188 231.582031 "/>
<path style=" stroke:none;fill-rule:evenodd;fill:rgb(62.7%,12.5%,94.1%);fill-opacity:1;" d="M 735.859375 65.050781 C 735.859375 58.804688 726.492188 58.804688 726.492188 65.050781 C 726.492188 71.296875 735.859375 71.296875 735.859375 65.050781 Z M 735.859375 65.050781 "/>
<path style=" stroke:none;fill-rule:evenodd;fill:rgb(62.7%,12.5%,94.1%);fill-opacity:1;" d="M 694.226563 231.582031 C 694.226563 225.335938 684.859375 225.335938 684.859375 231.582031 C 684.859375 237.828125 694.226563 237.828125 694.226563 231.582031 Z M 694.226563 231.582031 "/>
<path style=" stroke:none;fill-rule:evenodd;fill:rgb(64.7%,16.5%,16.5%);fill-opacity:1;" d="M 735.859375 314.847656 C 735.859375 308.601563 726.492188 308.601563 726.492188 314.847656 C 726.492188 321.09375 735.859375 321.09375 735.859375 314.847656 Z M 735.859375 314.847656 "/>
<path style="fill:none;stroke-width:0.4;stroke-linecap:butt;stroke-linejoin:round;stroke:rgb(64.7%,16.5%,16.5%);stroke-opacity:1;stroke-miterlimit:10;" d="M 1431.999606 2568.000277 L 1415.999618 2632.00023 L 1351.999665 2648.000218 L 1367.999653 2584.000265 L 1175.999794 2632.00023 L 1239.999747 2648.000218 L 1303.9997 2632.00023 L 1367.999653 2648.000218 L 1383.999641 2584.000265 L 1319.999688 2600.000253 L 1255.999735 2584.000265 L 1191.999782 2600.000253 L 1207.99977 2664.000206 L 1223.999759 2600.000253 L 1159.999806 2584.000265 L 1175.999794 2648.000218 L 1239.999747 2632.00023 L 1303.9997 2648.000218 L 1287.999712 2584.000265 L 1351.999665 2600.000253 L 1367.999653 2664.000206 L 1431.999606 2680.000194 L 1415.999618 2616.000241 L 1431.999606 2552.000288 " transform="matrix(2.602053,0,0,-2.602053,-2994.96265,6996.919693)"/>
<path style=" stroke:none;fill-rule:evenodd;fill:rgb(64.7%,16.5%,16.5%);fill-opacity:1;" d="M 735.859375 356.480469 C 735.859375 350.234375 726.492188 350.234375 726.492188 356.480469 C 726.492188 362.726563 735.859375 362.726563 735.859375 356.480469 Z M 735.859375 356.480469 "/>
<path style=" stroke:none;fill-rule:evenodd;fill:rgb(64.7%,16.5%,16.5%);fill-opacity:1;" d="M 694.226563 148.316406 C 694.226563 142.070313 684.859375 142.070313 684.859375 148.316406 C 684.859375 154.5625 694.226563 154.5625 694.226563 148.316406 Z M 694.226563 148.316406 "/>
<path style=" stroke:none;fill-rule:evenodd;fill:rgb(64.7%,16.5%,16.5%);fill-opacity:1;" d="M 527.695313 106.683594 C 527.695313 100.4375 518.328125 100.4375 518.328125 106.683594 C 518.328125 112.929688 527.695313 112.929688 527.695313 106.683594 Z M 527.695313 106.683594 "/>
<path style=" stroke:none;fill-rule:evenodd;fill:rgb(64.7%,16.5%,16.5%);fill-opacity:1;" d="M 569.328125 273.214844 C 569.328125 266.96875 559.960938 266.96875 559.960938 273.214844 C 559.960938 279.460938 569.328125 279.460938 569.328125 273.214844 Z M 569.328125 273.214844 "/>
<path style=" stroke:none;fill-rule:evenodd;fill:rgb(64.7%,16.5%,16.5%);fill-opacity:1;" d="M 402.796875 231.582031 C 402.796875 225.335938 393.429688 225.335938 393.429688 231.582031 C 393.429688 237.828125 402.796875 237.828125 402.796875 231.582031 Z M 402.796875 231.582031 "/>
<path style=" stroke:none;fill-rule:evenodd;fill:rgb(64.7%,16.5%,16.5%);fill-opacity:1;" d="M 236.265625 189.949219 C 236.265625 183.703125 226.898438 183.703125 226.898438 189.949219 C 226.898438 196.195313 236.265625 196.195313 236.265625 189.949219 Z M 236.265625 189.949219 "/>
<path style=" stroke:none;fill-rule:evenodd;fill:rgb(64.7%,16.5%,16.5%);fill-opacity:1;" d="M 69.734375 148.316406 C 69.734375 142.070313 60.367188 142.070313 60.367188 148.316406 C 60.367188 154.5625 69.734375 154.5625 69.734375 148.316406 Z M 69.734375 148.316406 "/>
<path style=" stroke:none;fill-rule:evenodd;fill:rgb(64.7%,16.5%,16.5%);fill-opacity:1;" d="M 236.265625 106.683594 C 236.265625 100.4375 226.898438 100.4375 226.898438 106.683594 C 226.898438 112.929688 236.265625 112.929688 236.265625 106.683594 Z M 236.265625 106.683594 "/>
<path style=" stroke:none;fill-rule:evenodd;fill:rgb(64.7%,16.5%,16.5%);fill-opacity:1;" d="M 402.796875 148.316406 C 402.796875 142.070313 393.429688 142.070313 393.429688 148.316406 C 393.429688 154.5625 402.796875 154.5625 402.796875 148.316406 Z M 402.796875 148.316406 "/>
<path style=" stroke:none;fill-rule:evenodd;fill:rgb(64.7%,16.5%,16.5%);fill-opacity:1;" d="M 569.328125 106.683594 C 569.328125 100.4375 559.960938 100.4375 559.960938 106.683594 C 559.960938 112.929688 569.328125 112.929688 569.328125 106.683594 Z M 569.328125 106.683594 "/>
<path style=" stroke:none;fill-rule:evenodd;fill:rgb(64.7%,16.5%,16.5%);fill-opacity:1;" d="M 610.960938 273.214844 C 610.960938 266.96875 601.59375 266.96875 601.59375 273.214844 C 601.59375 279.460938 610.960938 279.460938 610.960938 273.214844 Z M 610.960938 273.214844 "/>
<path style=" stroke:none;fill-rule:evenodd;fill:rgb(64.7%,16.5%,16.5%);fill-opacity:1;" d="M 444.429688 231.582031 C 444.429688 225.335938 435.0625 225.335938 435.0625 231.582031 C 435.0625 237.828125 444.429688 237.828125 444.429688 231.582031 Z M 444.429688 231.582031 "/>
<path style=" stroke:none;fill-rule:evenodd;fill:rgb(64.7%,16.5%,16.5%);fill-opacity:1;" d="M 277.898438 273.214844 C 277.898438 266.96875 268.53125 266.96875 268.53125 273.214844 C 268.53125 279.460938 277.898438 279.460938 277.898438 273.214844 Z M 277.898438 273.214844 "/>
<path style=" stroke:none;fill-rule:evenodd;fill:rgb(64.7%,16.5%,16.5%);fill-opacity:1;" d="M 111.367188 231.582031 C 111.367188 225.335938 102 225.335938 102 231.582031 C 102 237.828125 111.367188 237.828125 111.367188 231.582031 Z M 111.367188 231.582031 "/>
<path style=" stroke:none;fill-rule:evenodd;fill:rgb(64.7%,16.5%,16.5%);fill-opacity:1;" d="M 153 65.050781 C 153 58.804688 143.632813 58.804688 143.632813 65.050781 C 143.632813 71.296875 153 71.296875 153 65.050781 Z M 153 65.050781 "/>
<path style=" stroke:none;fill-rule:evenodd;fill:rgb(64.7%,16.5%,16.5%);fill-opacity:1;" d="M 194.632813 231.582031 C 194.632813 225.335938 185.265625 225.335938 185.265625 231.582031 C 185.265625 237.828125 194.632813 237.828125 194.632813 231.582031 Z M 194.632813 231.582031 "/>
<path style=" stroke:none;fill-rule:evenodd;fill:rgb(64.7%,16.5%,16.5%);fill-opacity:1;" d="M 28.101563 273.214844 C 28.101563 266.96875 18.734375 266.96875 18.734375 273.214844 C 18.734375 279.460938 28.101563 279.460938 28.101563 273.214844 Z M 28.101563 273.214844 "/>
<path style=" stroke:none;fill-rule:evenodd;fill:rgb(64.7%,16.5%,16.5%);fill-opacity:1;" d="M 69.734375 106.683594 C 69.734375 100.4375 60.367188 100.4375 60.367188 106.683594 C 60.367188 112.929688 69.734375 112.929688 69.734375 106.683594 Z M 69.734375 106.683594 "/>
<path style=" stroke:none;fill-rule:evenodd;fill:rgb(64.7%,16.5%,16.5%);fill-opacity:1;" d="M 236.265625 148.316406 C 236.265625 142.070313 226.898438 142.070313 226.898438 148.316406 C 226.898438 154.5625 236.265625 154.5625 236.265625 148.316406 Z M 236.265625 148.316406 "/>
<path style=" stroke:none;fill-rule:evenodd;fill:rgb(64.7%,16.5%,16.5%);fill-opacity:1;" d="M 402.796875 106.683594 C 402.796875 100.4375 393.429688 100.4375 393.429688 106.683594 C 393.429688 112.929688 402.796875 112.929688 402.796875 106.683594 Z M 402.796875 106.683594 "/>
<path style=" stroke:none;fill-rule:evenodd;fill:rgb(64.7%,16.5%,16.5%);fill-opacity:1;" d="M 361.164063 273.214844 C 361.164063 266.96875 351.796875 266.96875 351.796875 273.214844 C 351.796875 279.460938 361.164063 279.460938 361.164063 273.214844 Z M 361.164063 273.214844 "/>
<path style=" stroke:none;fill-rule:evenodd;fill:rgb(64.7%,16.5%,16.5%);fill-opacity:1;" d="M 527.695313 231.582031 C 527.695313 225.335938 518.328125 225.335938 518.328125 231.582031 C 518.328125 237.828125 527.695313 237.828125 527.695313 231.582031 Z M 527.695313 231.582031 "/>
<path style=" stroke:none;fill-rule:evenodd;fill:rgb(64.7%,16.5%,16.5%);fill-opacity:1;" d="M 569.328125 65.050781 C 569.328125 58.804688 559.960938 58.804688 559.960938 65.050781 C 559.960938 71.296875 569.328125 71.296875 569.328125 65.050781 Z M 569.328125 65.050781 "/>
<path style=" stroke:none;fill-rule:evenodd;fill:rgb(64.7%,16.5%,16.5%);fill-opacity:1;" d="M 735.859375 23.417969 C 735.859375 17.171875 726.492188 17.171875 726.492188 23.417969 C 726.492188 29.664063 735.859375 29.664063 735.859375 23.417969 Z M 735.859375 23.417969 "/>
<path style=" stroke:none;fill-rule:evenodd;fill:rgb(64.7%,16.5%,16.5%);fill-opacity:1;" d="M 694.226563 189.949219 C 694.226563 183.703125 684.859375 183.703125 684.859375 189.949219 C 684.859375 196.195313 694.226563 196.195313 694.226563 189.949219 Z M 694.226563 189.949219 "/>
<path style=" stroke:none;fill-rule:evenodd;fill:rgb(18%,54.5%,34.1%);fill-opacity:1;" d="M 819.125 398.113281 C 819.125 391.867188 809.757813 391.867188 809.757813 398.113281 C 809.757813 404.359375 819.125 404.359375 819.125 398.113281 Z M 819.125 398.113281 "/>
<path style="fill:none;stroke-width:0.4;stroke-linecap:butt;stroke-linejoin:round;stroke:rgb(18%,54.5%,34.1%);stroke-opacity:1;stroke-miterlimit:10;" d="M 1463.999582 2536.0003 L 1335.999676 2568.000277 L 1319.999688 2632.00023 L 1383.999641 2616.000241 L 1367.999653 2680.000194 L 1351.999665 2616.000241 L 1335.999676 2680.000194 L 1271.999723 2664.000206 L 1207.99977 2680.000194 L 1191.999782 2616.000241 L 1175.999794 2680.000194 L 1159.999806 2616.000241 L 1223.999759 2632.00023 L 1159.999806 2648.000218 L 1175.999794 2584.000265 L 1303.9997 2552.000288 L 1287.999712 2616.000241 L 1303.9997 2680.000194 L 1239.999747 2664.000206 L 1255.999735 2600.000253 L 1191.999782 2584.000265 L 1207.99977 2648.000218 L 1223.999759 2584.000265 L 1159.999806 2600.000253 L 1175.999794 2664.000206 L 1239.999747 2680.000194 L 1303.9997 2664.000206 L 1287.999712 2600.000253 L 1351.999665 2584.000265 L 1287.999712 2568.000277 L 1351.999665 2552.000288 L 1415.999618 2568.000277 " transform="matrix(2.602053,0,0,-2.602053,-2994.96265,6996.919693)"/>
<path style=" stroke:none;fill-rule:evenodd;fill:rgb(18%,54.5%,34.1%);fill-opacity:1;" d="M 652.59375 356.480469 C 652.59375 350.234375 643.226563 350.234375 643.226563 356.480469 C 643.226563 362.726563 652.59375 362.726563 652.59375 356.480469 Z M 652.59375 356.480469 "/>
<path style=" stroke:none;fill-rule:evenodd;fill:rgb(18%,54.5%,34.1%);fill-opacity:1;" d="M 486.0625 314.847656 C 486.0625 308.601563 476.695313 308.601563 476.695313 314.847656 C 476.695313 321.09375 486.0625 321.09375 486.0625 314.847656 Z M 486.0625 314.847656 "/>
<path style=" stroke:none;fill-rule:evenodd;fill:rgb(18%,54.5%,34.1%);fill-opacity:1;" d="M 444.429688 148.316406 C 444.429688 142.070313 435.0625 142.070313 435.0625 148.316406 C 435.0625 154.5625 444.429688 154.5625 444.429688 148.316406 Z M 444.429688 148.316406 "/>
<path style=" stroke:none;fill-rule:evenodd;fill:rgb(18%,54.5%,34.1%);fill-opacity:1;" d="M 610.960938 189.949219 C 610.960938 183.703125 601.59375 183.703125 601.59375 189.949219 C 601.59375 196.195313 610.960938 196.195313 610.960938 189.949219 Z M 610.960938 189.949219 "/>
<path style=" stroke:none;fill-rule:evenodd;fill:rgb(18%,54.5%,34.1%);fill-opacity:1;" d="M 569.328125 23.417969 C 569.328125 17.171875 559.960938 17.171875 559.960938 23.417969 C 559.960938 29.664063 569.328125 29.664063 569.328125 23.417969 Z M 569.328125 23.417969 "/>
<path style=" stroke:none;fill-rule:evenodd;fill:rgb(18%,54.5%,34.1%);fill-opacity:1;" d="M 527.695313 189.949219 C 527.695313 183.703125 518.328125 183.703125 518.328125 189.949219 C 518.328125 196.195313 527.695313 196.195313 527.695313 189.949219 Z M 527.695313 189.949219 "/>
<path style=" stroke:none;fill-rule:evenodd;fill:rgb(18%,54.5%,34.1%);fill-opacity:1;" d="M 486.0625 23.417969 C 486.0625 17.171875 476.695313 17.171875 476.695313 23.417969 C 476.695313 29.664063 486.0625 29.664063 486.0625 23.417969 Z M 486.0625 23.417969 "/>
<path style=" stroke:none;fill-rule:evenodd;fill:rgb(18%,54.5%,34.1%);fill-opacity:1;" d="M 319.53125 65.050781 C 319.53125 58.804688 310.164063 58.804688 310.164063 65.050781 C 310.164063 71.296875 319.53125 71.296875 319.53125 65.050781 Z M 319.53125 65.050781 "/>
<path style=" stroke:none;fill-rule:evenodd;fill:rgb(18%,54.5%,34.1%);fill-opacity:1;" d="M 402.796875 23.417969 C 402.796875 17.171875 393.429688 17.171875 393.429688 23.417969 C 393.429688 29.664063 402.796875 29.664063 402.796875 23.417969 Z M 402.796875 23.417969 "/>
<path style=" stroke:none;fill-rule:evenodd;fill:rgb(18%,54.5%,34.1%);fill-opacity:1;" d="M 402.796875 65.050781 C 402.796875 58.804688 393.429688 58.804688 393.429688 65.050781 C 393.429688 71.296875 402.796875 71.296875 402.796875 65.050781 Z M 402.796875 65.050781 "/>
<path style=" stroke:none;fill-rule:evenodd;fill:rgb(18%,54.5%,34.1%);fill-opacity:1;" d="M 236.265625 23.417969 C 236.265625 17.171875 226.898438 17.171875 226.898438 23.417969 C 226.898438 29.664063 236.265625 29.664063 236.265625 23.417969 Z M 236.265625 23.417969 "/>
<path style=" stroke:none;fill-rule:evenodd;fill:rgb(18%,54.5%,34.1%);fill-opacity:1;" d="M 153 23.417969 C 153 17.171875 143.632813 17.171875 143.632813 23.417969 C 143.632813 29.664063 153 29.664063 153 23.417969 Z M 153 23.417969 "/>
<path style=" stroke:none;fill-rule:evenodd;fill:rgb(18%,54.5%,34.1%);fill-opacity:1;" d="M 69.734375 23.417969 C 69.734375 17.171875 60.367188 17.171875 60.367188 23.417969 C 60.367188 29.664063 69.734375 29.664063 69.734375 23.417969 Z M 69.734375 23.417969 "/>
<path style=" stroke:none;fill-rule:evenodd;fill:rgb(18%,54.5%,34.1%);fill-opacity:1;" d="M 69.734375 65.050781 C 69.734375 58.804688 60.367188 58.804688 60.367188 65.050781 C 60.367188 71.296875 69.734375 71.296875 69.734375 65.050781 Z M 69.734375 65.050781 "/>
<path style=" stroke:none;fill-rule:evenodd;fill:rgb(18%,54.5%,34.1%);fill-opacity:1;" d="M 28.101563 189.949219 C 28.101563 183.703125 18.734375 183.703125 18.734375 189.949219 C 18.734375 196.195313 28.101563 196.195313 28.101563 189.949219 Z M 28.101563 189.949219 "/>
<path style=" stroke:none;fill-rule:evenodd;fill:rgb(18%,54.5%,34.1%);fill-opacity:1;" d="M 28.101563 231.582031 C 28.101563 225.335938 18.734375 225.335938 18.734375 231.582031 C 18.734375 237.828125 28.101563 237.828125 28.101563 231.582031 Z M 28.101563 231.582031 "/>
<path style=" stroke:none;fill-rule:evenodd;fill:rgb(18%,54.5%,34.1%);fill-opacity:1;" d="M 111.367188 189.949219 C 111.367188 183.703125 102 183.703125 102 189.949219 C 102 196.195313 111.367188 196.195313 111.367188 189.949219 Z M 111.367188 189.949219 "/>
<path style=" stroke:none;fill-rule:evenodd;fill:rgb(18%,54.5%,34.1%);fill-opacity:1;" d="M 69.734375 273.214844 C 69.734375 266.96875 60.367188 266.96875 60.367188 273.214844 C 60.367188 279.460938 69.734375 279.460938 69.734375 273.214844 Z M 69.734375 273.214844 "/>
<path style=" stroke:none;fill-rule:evenodd;fill:rgb(18%,54.5%,34.1%);fill-opacity:1;" d="M 194.632813 273.214844 C 194.632813 266.96875 185.265625 266.96875 185.265625 273.214844 C 185.265625 279.460938 194.632813 279.460938 194.632813 273.214844 Z M 194.632813 273.214844 "/>
<path style=" stroke:none;fill-rule:evenodd;fill:rgb(18%,54.5%,34.1%);fill-opacity:1;" d="M 111.367188 273.214844 C 111.367188 266.96875 102 266.96875 102 273.214844 C 102 279.460938 111.367188 279.460938 111.367188 273.214844 Z M 111.367188 273.214844 "/>
<path style=" stroke:none;fill-rule:evenodd;fill:rgb(18%,54.5%,34.1%);fill-opacity:1;" d="M 153 106.683594 C 153 100.4375 143.632813 100.4375 143.632813 106.683594 C 143.632813 112.929688 153 112.929688 153 106.683594 Z M 153 106.683594 "/>
<path style=" stroke:none;fill-rule:evenodd;fill:rgb(18%,54.5%,34.1%);fill-opacity:1;" d="M 194.632813 148.316406 C 194.632813 142.070313 185.265625 142.070313 185.265625 148.316406 C 185.265625 154.5625 194.632813 154.5625 194.632813 148.316406 Z M 194.632813 148.316406 "/>
<path style=" stroke:none;fill-rule:evenodd;fill:rgb(18%,54.5%,34.1%);fill-opacity:1;" d="M 277.898438 231.582031 C 277.898438 225.335938 268.53125 225.335938 268.53125 231.582031 C 268.53125 237.828125 277.898438 237.828125 277.898438 231.582031 Z M 277.898438 231.582031 "/>
<path style=" stroke:none;fill-rule:evenodd;fill:rgb(18%,54.5%,34.1%);fill-opacity:1;" d="M 236.265625 65.050781 C 236.265625 58.804688 226.898438 58.804688 226.898438 65.050781 C 226.898438 71.296875 236.265625 71.296875 236.265625 65.050781 Z M 236.265625 65.050781 "/>
<path style=" stroke:none;fill-rule:evenodd;fill:rgb(18%,54.5%,34.1%);fill-opacity:1;" d="M 361.164063 231.582031 C 361.164063 225.335938 351.796875 225.335938 351.796875 231.582031 C 351.796875 237.828125 361.164063 237.828125 361.164063 231.582031 Z M 361.164063 231.582031 "/>
<path style=" stroke:none;fill-rule:evenodd;fill:rgb(18%,54.5%,34.1%);fill-opacity:1;" d="M 361.164063 189.949219 C 361.164063 183.703125 351.796875 183.703125 351.796875 189.949219 C 351.796875 196.195313 361.164063 196.195313 361.164063 189.949219 Z M 361.164063 189.949219 "/>
<path style=" stroke:none;fill-rule:evenodd;fill:rgb(18%,54.5%,34.1%);fill-opacity:1;" d="M 527.695313 273.214844 C 527.695313 266.96875 518.328125 266.96875 518.328125 273.214844 C 518.328125 279.460938 527.695313 279.460938 527.695313 273.214844 Z M 527.695313 273.214844 "/>
<path style=" stroke:none;fill-rule:evenodd;fill:rgb(18%,54.5%,34.1%);fill-opacity:1;" d="M 361.164063 314.847656 C 361.164063 308.601563 351.796875 308.601563 351.796875 314.847656 C 351.796875 321.09375 361.164063 321.09375 361.164063 314.847656 Z M 361.164063 314.847656 "/>
<path style=" stroke:none;fill-rule:evenodd;fill:rgb(18%,54.5%,34.1%);fill-opacity:1;" d="M 402.796875 356.480469 C 402.796875 350.234375 393.429688 350.234375 393.429688 356.480469 C 393.429688 362.726563 402.796875 362.726563 402.796875 356.480469 Z M 402.796875 356.480469 "/>
<path style=" stroke:none;fill-rule:evenodd;fill:rgb(18%,54.5%,34.1%);fill-opacity:1;" d="M 236.265625 314.847656 C 236.265625 308.601563 226.898438 308.601563 226.898438 314.847656 C 226.898438 321.09375 236.265625 321.09375 236.265625 314.847656 Z M 236.265625 314.847656 "/>
<path style=" stroke:none;fill-rule:evenodd;fill:rgb(18%,54.5%,34.1%);fill-opacity:1;" d="M 527.695313 356.480469 C 527.695313 350.234375 518.328125 350.234375 518.328125 356.480469 C 518.328125 362.726563 527.695313 362.726563 527.695313 356.480469 Z M 527.695313 356.480469 "/>
<path style=" stroke:none;fill-rule:evenodd;fill:rgb(18%,54.5%,34.1%);fill-opacity:1;" d="M 694.226563 314.847656 C 694.226563 308.601563 684.859375 308.601563 684.859375 314.847656 C 684.859375 321.09375 694.226563 321.09375 694.226563 314.847656 Z M 694.226563 314.847656 "/>
<path style=" stroke:none;fill-rule:evenodd;fill:rgb(18%,54.5%,34.1%);fill-opacity:1;" d="M 28.101563 106.683594 C 28.101563 100.4375 18.734375 100.4375 18.734375 106.683594 C 18.734375 112.929688 28.101563 112.929688 28.101563 106.683594 Z M 28.101563 106.683594 "/>
<path style=" stroke:none;fill-rule:evenodd;fill:rgb(93.3%,51%,93.3%);fill-opacity:1;" d="M 694.226563 439.746094 C 694.226563 433.503906 684.859375 433.503906 684.859375 439.746094 C 684.859375 445.992188 694.226563 445.992188 694.226563 439.746094 Z M 694.226563 439.746094 "/>
<path style=" stroke:none;fill-rule:evenodd;fill:rgb(93.3%,51%,93.3%);fill-opacity:1;" d="M 735.859375 439.746094 C 735.859375 433.503906 726.492188 433.503906 726.492188 439.746094 C 726.492188 445.992188 735.859375 445.992188 735.859375 439.746094 Z M 735.859375 439.746094 "/>
<path style="fill:none;stroke-width:0.4;stroke-linecap:butt;stroke-linejoin:round;stroke:rgb(93.3%,51%,93.3%);stroke-opacity:1;stroke-miterlimit:10;" d="M 1415.999618 2520.000312 L 1351.999665 2536.0003 L 1367.999653 2600.000253 L 1383.999641 2536.0003 L 1399.999629 2600.000253 L 1335.999676 2584.000265 L 1271.999723 2600.000253 L 1255.999735 2664.000206 L 1319.999688 2680.000194 L 1335.999676 2616.000241 L 1319.999688 2552.000288 L 1255.999735 2568.000277 L 1271.999723 2632.00023 L 1335.999676 2648.000218 L 1319.999688 2584.000265 L 1383.999641 2600.000253 L 1367.999653 2536.0003 L 1431.999606 2520.000312 " transform="matrix(2.602053,0,0,-2.602053,-2994.96265,6996.919693)"/>
<path style=" stroke:none;fill-rule:evenodd;fill:rgb(93.3%,51%,93.3%);fill-opacity:1;" d="M 444.429688 23.417969 C 444.429688 17.171875 435.0625 17.171875 435.0625 23.417969 C 435.0625 29.664063 444.429688 29.664063 444.429688 23.417969 Z M 444.429688 23.417969 "/>
<path style=" stroke:none;fill-rule:evenodd;fill:rgb(93.3%,51%,93.3%);fill-opacity:1;" d="M 277.898438 65.050781 C 277.898438 58.804688 268.53125 58.804688 268.53125 65.050781 C 268.53125 71.296875 277.898438 71.296875 277.898438 65.050781 Z M 277.898438 65.050781 "/>
<path style=" stroke:none;fill-rule:evenodd;fill:rgb(93.3%,51%,93.3%);fill-opacity:1;" d="M 319.53125 148.316406 C 319.53125 142.070313 310.164063 142.070313 310.164063 148.316406 C 310.164063 154.5625 319.53125 154.5625 319.53125 148.316406 Z M 319.53125 148.316406 "/>
<path style=" stroke:none;fill-rule:evenodd;fill:rgb(93.3%,51%,93.3%);fill-opacity:1;" d="M 319.53125 231.582031 C 319.53125 225.335938 310.164063 225.335938 310.164063 231.582031 C 310.164063 237.828125 319.53125 237.828125 319.53125 231.582031 Z M 319.53125 231.582031 "/>
<path style=" stroke:none;fill-rule:evenodd;fill:rgb(93.3%,51%,93.3%);fill-opacity:1;" d="M 277.898438 314.847656 C 277.898438 308.601563 268.53125 308.601563 268.53125 314.847656 C 268.53125 321.09375 277.898438 321.09375 277.898438 314.847656 Z M 277.898438 314.847656 "/>
<path style=" stroke:none;fill-rule:evenodd;fill:rgb(93.3%,51%,93.3%);fill-opacity:1;" d="M 444.429688 356.480469 C 444.429688 350.234375 435.0625 350.234375 435.0625 356.480469 C 435.0625 362.726563 444.429688 362.726563 444.429688 356.480469 Z M 444.429688 356.480469 "/>
<path style=" stroke:none;fill-rule:evenodd;fill:rgb(93.3%,51%,93.3%);fill-opacity:1;" d="M 444.429688 273.214844 C 444.429688 266.96875 435.0625 266.96875 435.0625 273.214844 C 435.0625 279.460938 444.429688 279.460938 444.429688 273.214844 Z M 444.429688 273.214844 "/>
<path style=" stroke:none;fill-rule:evenodd;fill:rgb(93.3%,51%,93.3%);fill-opacity:1;" d="M 486.0625 189.949219 C 486.0625 183.703125 476.695313 183.703125 476.695313 189.949219 C 476.695313 196.195313 486.0625 196.195313 486.0625 189.949219 Z M 486.0625 189.949219 "/>
<path style=" stroke:none;fill-rule:evenodd;fill:rgb(93.3%,51%,93.3%);fill-opacity:1;" d="M 486.0625 106.683594 C 486.0625 100.4375 476.695313 100.4375 476.695313 106.683594 C 476.695313 112.929688 486.0625 112.929688 486.0625 106.683594 Z M 486.0625 106.683594 "/>
<path style=" stroke:none;fill-rule:evenodd;fill:rgb(93.3%,51%,93.3%);fill-opacity:1;" d="M 486.0625 273.214844 C 486.0625 266.96875 476.695313 266.96875 476.695313 273.214844 C 476.695313 279.460938 486.0625 279.460938 486.0625 273.214844 Z M 486.0625 273.214844 "/>
<path style=" stroke:none;fill-rule:evenodd;fill:rgb(93.3%,51%,93.3%);fill-opacity:1;" d="M 610.960938 231.582031 C 610.960938 225.335938 601.59375 225.335938 601.59375 231.582031 C 601.59375 237.828125 610.960938 237.828125 610.960938 231.582031 Z M 610.960938 231.582031 "/>
<path style=" stroke:none;fill-rule:evenodd;fill:rgb(93.3%,51%,93.3%);fill-opacity:1;" d="M 569.328125 231.582031 C 569.328125 225.335938 559.960938 225.335938 559.960938 231.582031 C 559.960938 237.828125 569.328125 237.828125 569.328125 231.582031 Z M 569.328125 231.582031 "/>
<path style=" stroke:none;fill-rule:evenodd;fill:rgb(93.3%,51%,93.3%);fill-opacity:1;" d="M 652.59375 231.582031 C 652.59375 225.335938 643.226563 225.335938 643.226563 231.582031 C 643.226563 237.828125 652.59375 237.828125 652.59375 231.582031 Z M 652.59375 231.582031 "/>
<path style=" stroke:none;fill-rule:evenodd;fill:rgb(93.3%,51%,93.3%);fill-opacity:1;" d="M 527.695313 398.113281 C 527.695313 391.867188 518.328125 391.867188 518.328125 398.113281 C 518.328125 404.359375 527.695313 404.359375 527.695313 398.113281 Z M 527.695313 398.113281 "/>
<path style=" stroke:none;fill-rule:evenodd;fill:rgb(93.3%,51%,93.3%);fill-opacity:1;" d="M 569.328125 398.113281 C 569.328125 391.867188 559.960938 391.867188 559.960938 398.113281 C 559.960938 404.359375 569.328125 404.359375 569.328125 398.113281 Z M 569.328125 398.113281 "/>
<path style=" stroke:none;fill-rule:evenodd;fill:rgb(93.3%,51%,93.3%);fill-opacity:1;" d="M 610.960938 398.113281 C 610.960938 391.867188 601.59375 391.867188 601.59375 398.113281 C 601.59375 404.359375 610.960938 404.359375 610.960938 398.113281 Z M 610.960938 398.113281 "/>
<path style="fill:none;stroke-width:2;stroke-linecap:butt;stroke-linejoin:round;stroke:rgb(0%,0%,0%);stroke-opacity:1;stroke-miterlimit:10;" d="M 1151.999812 2688.000188 L 1151.999812 2576.000271 L 1215.999765 2576.000271 L 1215.999765 2560.000282 L 1279.999718 2560.000282 L 1279.999718 2544.000294 L 1343.999671 2544.000294 L 1343.999671 2528.000306 L 1407.999623 2528.000306 L 1407.999623 2512.000318 L 1471.999576 2512.000318 L 1471.999576 2688.000188 Z M 1151.999812 2688.000188 " transform="matrix(2.602053,0,0,-2.602053,-2994.96265,6996.919693)"/>
</g>
</svg>
