<?xml version="1.0" encoding="UTF-8"?>
<svg xmlns="http://www.w3.org/2000/svg" xmlns:xlink="http://www.w3.org/1999/xlink" width="669pt" height="669pt" viewBox="0 0 669 669" version="1.1">
<g id="surface27330">
<path style="fill:none;stroke-width:0.8;stroke-linecap:butt;stroke-linejoin:round;stroke:rgb(0%,0%,0%);stroke-opacity:1;stroke-miterlimit:10;" d="M 1018.739324 3073.530676 L 1018.739324 2817.529363 L 1274.740637 2817.529363 L 1274.740637 3073.530676 Z M 1018.739324 3073.530676 " transform="matrix(2.602053,0,0,-2.602053,-2649.77434,7998.527836)"/>
<path style="fill:none;stroke-width:0.2;stroke-linecap:butt;stroke-linejoin:round;stroke:rgb(0%,0%,0%);stroke-opacity:1;stroke-miterlimit:10;" d="M 1018.739324 3073.527673 L 1018.739324 2817.52636 L 1274.740637 2817.52636 L 1274.740637 3073.527673 Z M 1018.739324 3073.527673 " transform="matrix(2.602053,0,0,-2.602053,-2649.77434,7998.527836)"/>
<path style="fill-rule:evenodd;fill:rgb(66.3%,66.3%,66.3%);fill-opacity:1;stroke-width:0.2;stroke-linecap:butt;stroke-linejoin:round;stroke:rgb(0%,0%,0%);stroke-opacity:1;stroke-miterlimit:10;" d="M 1018.737823 2902.935192 L 1075.52442 2874.538141 L 1052.810982 2919.972523 L 1103.921472 2945.527767 L 1052.810982 2971.083012 L 1075.52442 3016.515893 L 1018.737823 2988.118841 Z M 1018.737823 2902.935192 " transform="matrix(2.602053,0,0,-2.602053,-2649.77434,7998.527836)"/>
<path style="fill-rule:evenodd;fill:rgb(66.3%,66.3%,66.3%);fill-opacity:1;stroke-width:0.2;stroke-linecap:butt;stroke-linejoin:round;stroke:rgb(0%,0%,0%);stroke-opacity:1;stroke-miterlimit:10;" d="M 1018.737823 3009.467672 L 1039.957548 2998.855557 L 1031.469658 3015.83434 L 1050.569663 3025.383592 L 1031.469658 3034.932843 L 1039.957548 3051.911626 L 1018.737823 3041.299512 Z M 1018.737823 3009.467672 " transform="matrix(2.602053,0,0,-2.602053,-2649.77434,7998.527836)"/>
<path style="fill-rule:evenodd;fill:rgb(66.3%,66.3%,66.3%);fill-opacity:1;stroke-width:0.2;stroke-linecap:butt;stroke-linejoin:round;stroke:rgb(0%,0%,0%);stroke-opacity:1;stroke-miterlimit:10;" d="M 1018.737823 2849.77704 L 1039.957548 2839.166427 L 1031.469658 2856.143709 L 1050.569663 2865.69296 L 1031.469658 2875.243713 L 1039.957548 2892.220995 L 1018.737823 2881.610382 Z M 1018.737823 2849.77704 " transform="matrix(2.602053,0,0,-2.602053,-2649.77434,7998.527836)"/>
<path style="fill-rule:evenodd;fill:rgb(66.3%,66.3%,66.3%);fill-opacity:1;stroke-width:0.2;stroke-linecap:butt;stroke-linejoin:round;stroke:rgb(0%,0%,0%);stroke-opacity:1;stroke-miterlimit:10;" d="M 1018.736322 2994.225799 L 1024.756208 2991.215855 L 1022.348254 2996.031765 L 1027.766152 2998.741465 L 1022.348254 3001.449663 L 1024.756208 3006.265572 L 1018.736322 3003.255629 Z M 1018.736322 2994.225799 " transform="matrix(2.602053,0,0,-2.602053,-2649.77434,7998.527836)"/>
<path style="fill-rule:evenodd;fill:rgb(66.3%,66.3%,66.3%);fill-opacity:1;stroke-width:0.2;stroke-linecap:butt;stroke-linejoin:round;stroke:rgb(0%,0%,0%);stroke-opacity:1;stroke-miterlimit:10;" d="M 1018.736322 2887.756371 L 1024.756208 2884.746427 L 1022.348254 2889.562337 L 1027.766152 2892.270535 L 1022.348254 2894.980235 L 1024.756208 2899.796144 L 1018.736322 2896.7847 Z M 1018.736322 2887.756371 " transform="matrix(2.602053,0,0,-2.602053,-2649.77434,7998.527836)"/>
<path style="fill-rule:evenodd;fill:rgb(66.3%,66.3%,66.3%);fill-opacity:1;stroke-width:0.2;stroke-linecap:butt;stroke-linejoin:round;stroke:rgb(0%,0%,0%);stroke-opacity:1;stroke-miterlimit:10;" d="M 1018.742327 3049.364058 L 1026.749827 3045.360308 L 1023.547727 3051.767509 L 1030.755078 3055.370434 L 1023.547727 3058.97486 L 1026.749827 3065.382061 L 1018.742327 3061.37681 Z M 1018.742327 3049.364058 " transform="matrix(2.602053,0,0,-2.602053,-2649.77434,7998.527836)"/>
<path style="fill-rule:evenodd;fill:rgb(66.3%,66.3%,66.3%);fill-opacity:1;stroke-width:0.2;stroke-linecap:butt;stroke-linejoin:round;stroke:rgb(0%,0%,0%);stroke-opacity:1;stroke-miterlimit:10;" d="M 1018.742327 2829.644197 L 1026.749827 2825.640447 L 1023.547727 2832.047648 L 1030.755078 2835.650573 L 1023.547727 2839.254999 L 1026.749827 2845.660699 L 1018.742327 2841.656949 Z M 1018.742327 2829.644197 " transform="matrix(2.602053,0,0,-2.602053,-2649.77434,7998.527836)"/>
<path style="fill-rule:evenodd;fill:rgb(66.3%,66.3%,66.3%);fill-opacity:1;stroke-width:0.2;stroke-linecap:butt;stroke-linejoin:round;stroke:rgb(0%,0%,0%);stroke-opacity:1;stroke-miterlimit:10;" d="M 1018.737823 2989.942822 L 1020.420689 2989.10214 L 1019.748143 2990.447232 L 1021.261371 2991.203846 L 1019.748143 2991.96046 L 1020.420689 2993.307053 L 1018.737823 2992.466371 Z M 1018.737823 2989.942822 " transform="matrix(2.602053,0,0,-2.602053,-2649.77434,7998.527836)"/>
<path style="fill-rule:evenodd;fill:rgb(66.3%,66.3%,66.3%);fill-opacity:1;stroke-width:0.2;stroke-linecap:butt;stroke-linejoin:round;stroke:rgb(0%,0%,0%);stroke-opacity:1;stroke-miterlimit:10;" d="M 1018.737823 3005.153169 L 1020.420689 3004.310986 L 1019.748143 3005.657579 L 1021.261371 3006.414193 L 1019.748143 3007.170807 L 1020.420689 3008.5174 L 1018.737823 3007.675217 Z M 1018.737823 3005.153169 " transform="matrix(2.602053,0,0,-2.602053,-2649.77434,7998.527836)"/>
<path style="fill-rule:evenodd;fill:rgb(66.3%,66.3%,66.3%);fill-opacity:1;stroke-width:0.2;stroke-linecap:butt;stroke-linejoin:round;stroke:rgb(0%,0%,0%);stroke-opacity:1;stroke-miterlimit:10;" d="M 1018.737823 2883.441868 L 1020.420689 2882.601186 L 1019.748143 2883.947779 L 1021.261371 2884.704393 L 1019.748143 2885.461007 L 1020.420689 2886.8076 L 1018.737823 2885.965417 Z M 1018.737823 2883.441868 " transform="matrix(2.602053,0,0,-2.602053,-2649.77434,7998.527836)"/>
<path style="fill-rule:evenodd;fill:rgb(66.3%,66.3%,66.3%);fill-opacity:1;stroke-width:0.2;stroke-linecap:butt;stroke-linejoin:round;stroke:rgb(0%,0%,0%);stroke-opacity:1;stroke-miterlimit:10;" d="M 1018.737823 2898.652216 L 1020.420689 2897.811533 L 1019.748143 2899.156625 L 1021.261371 2899.91474 L 1019.748143 2900.671355 L 1020.420689 2902.016446 L 1018.737823 2901.175764 Z M 1018.737823 2898.652216 " transform="matrix(2.602053,0,0,-2.602053,-2649.77434,7998.527836)"/>
<path style="fill-rule:evenodd;fill:rgb(66.3%,66.3%,66.3%);fill-opacity:1;stroke-width:0.2;stroke-linecap:butt;stroke-linejoin:round;stroke:rgb(0%,0%,0%);stroke-opacity:1;stroke-miterlimit:10;" d="M 1018.739324 3043.681946 L 1020.97614 3042.563538 L 1020.081414 3044.35299 L 1022.094548 3045.358807 L 1020.081414 3046.364623 L 1020.97614 3048.154076 L 1018.739324 3047.035668 Z M 1018.739324 3043.681946 " transform="matrix(2.602053,0,0,-2.602053,-2649.77434,7998.527836)"/>
<path style="fill-rule:evenodd;fill:rgb(66.3%,66.3%,66.3%);fill-opacity:1;stroke-width:0.2;stroke-linecap:butt;stroke-linejoin:round;stroke:rgb(0%,0%,0%);stroke-opacity:1;stroke-miterlimit:10;" d="M 1018.74683 3064.458812 L 1021.725248 3062.969603 L 1020.534782 3065.353538 L 1023.215958 3066.694126 L 1020.534782 3068.034714 L 1021.725248 3070.41865 L 1018.74683 3068.929441 Z M 1018.74683 3064.458812 " transform="matrix(2.602053,0,0,-2.602053,-2649.77434,7998.527836)"/>
<path style="fill-rule:evenodd;fill:rgb(66.3%,66.3%,66.3%);fill-opacity:1;stroke-width:0.2;stroke-linecap:butt;stroke-linejoin:round;stroke:rgb(0%,0%,0%);stroke-opacity:1;stroke-miterlimit:10;" d="M 1018.739324 2847.408117 L 1020.97614 2848.526525 L 1020.081414 2846.737073 L 1022.094548 2845.731256 L 1020.081414 2844.723938 L 1020.97614 2842.935987 L 1018.739324 2844.054395 Z M 1018.739324 2847.408117 " transform="matrix(2.602053,0,0,-2.602053,-2649.77434,7998.527836)"/>
<path style="fill-rule:evenodd;fill:rgb(66.3%,66.3%,66.3%);fill-opacity:1;stroke-width:0.2;stroke-linecap:butt;stroke-linejoin:round;stroke:rgb(0%,0%,0%);stroke-opacity:1;stroke-miterlimit:10;" d="M 1018.74683 2826.62975 L 1021.725248 2828.12046 L 1020.534782 2825.736525 L 1023.215958 2824.395937 L 1020.534782 2823.055349 L 1021.725248 2820.669912 L 1018.74683 2822.160622 Z M 1018.74683 2826.62975 " transform="matrix(2.602053,0,0,-2.602053,-2649.77434,7998.527836)"/>
<path style="fill-rule:evenodd;fill:rgb(66.3%,66.3%,66.3%);fill-opacity:1;stroke-width:0.2;stroke-linecap:butt;stroke-linejoin:round;stroke:rgb(0%,0%,0%);stroke-opacity:1;stroke-miterlimit:10;" d="M 1189.331805 2817.52636 L 1217.728857 2874.312958 L 1172.294475 2851.59952 L 1146.740731 2902.710009 L 1121.185486 2851.59952 L 1075.751104 2874.312958 L 1104.148156 2817.52636 Z M 1189.331805 2817.52636 " transform="matrix(2.602053,0,0,-2.602053,-2649.77434,7998.527836)"/>
<path style="fill-rule:evenodd;fill:rgb(66.3%,66.3%,66.3%);fill-opacity:1;stroke-width:0.2;stroke-linecap:butt;stroke-linejoin:round;stroke:rgb(0%,0%,0%);stroke-opacity:1;stroke-miterlimit:10;" d="M 1082.799326 2817.52636 L 1093.41144 2838.746086 L 1076.432658 2830.258196 L 1066.883406 2849.3582 L 1057.334154 2830.258196 L 1040.356873 2838.746086 L 1050.967486 2817.52636 Z M 1082.799326 2817.52636 " transform="matrix(2.602053,0,0,-2.602053,-2649.77434,7998.527836)"/>
<path style="fill-rule:evenodd;fill:rgb(66.3%,66.3%,66.3%);fill-opacity:1;stroke-width:0.2;stroke-linecap:butt;stroke-linejoin:round;stroke:rgb(0%,0%,0%);stroke-opacity:1;stroke-miterlimit:10;" d="M 1242.489957 2817.52636 L 1253.100571 2838.746086 L 1236.123289 2830.258196 L 1226.574037 2849.3582 L 1217.024785 2830.258196 L 1200.046003 2838.746086 L 1210.658117 2817.52636 Z M 1242.489957 2817.52636 " transform="matrix(2.602053,0,0,-2.602053,-2649.77434,7998.527836)"/>
<path style="fill-rule:evenodd;fill:rgb(66.3%,66.3%,66.3%);fill-opacity:1;stroke-width:0.2;stroke-linecap:butt;stroke-linejoin:round;stroke:rgb(0%,0%,0%);stroke-opacity:1;stroke-miterlimit:10;" d="M 1098.041199 2817.524859 L 1101.051142 2823.544746 L 1096.235233 2821.136791 L 1093.527034 2826.554689 L 1090.817335 2821.136791 L 1086.001425 2823.544746 L 1089.011369 2817.524859 Z M 1098.041199 2817.524859 " transform="matrix(2.602053,0,0,-2.602053,-2649.77434,7998.527836)"/>
<path style="fill-rule:evenodd;fill:rgb(66.3%,66.3%,66.3%);fill-opacity:1;stroke-width:0.2;stroke-linecap:butt;stroke-linejoin:round;stroke:rgb(0%,0%,0%);stroke-opacity:1;stroke-miterlimit:10;" d="M 1204.510627 2817.524859 L 1207.52057 2823.544746 L 1202.704661 2821.136791 L 1199.996462 2826.554689 L 1197.288264 2821.136791 L 1192.472355 2823.544746 L 1195.482298 2817.524859 Z M 1204.510627 2817.524859 " transform="matrix(2.602053,0,0,-2.602053,-2649.77434,7998.527836)"/>
<path style="fill-rule:evenodd;fill:rgb(66.3%,66.3%,66.3%);fill-opacity:1;stroke-width:0.2;stroke-linecap:butt;stroke-linejoin:round;stroke:rgb(0%,0%,0%);stroke-opacity:1;stroke-miterlimit:10;" d="M 1042.902939 2817.530864 L 1046.906689 2825.538364 L 1040.499488 2822.336265 L 1036.896564 2829.543616 L 1033.292138 2822.336265 L 1026.886438 2825.538364 L 1030.890188 2817.530864 Z M 1042.902939 2817.530864 " transform="matrix(2.602053,0,0,-2.602053,-2649.77434,7998.527836)"/>
<path style="fill-rule:evenodd;fill:rgb(66.3%,66.3%,66.3%);fill-opacity:1;stroke-width:0.2;stroke-linecap:butt;stroke-linejoin:round;stroke:rgb(0%,0%,0%);stroke-opacity:1;stroke-miterlimit:10;" d="M 1262.6228 2817.530864 L 1266.62655 2825.538364 L 1260.220851 2822.336265 L 1256.616425 2829.543616 L 1253.0135 2822.336265 L 1246.606299 2825.538364 L 1250.610049 2817.530864 Z M 1262.6228 2817.530864 " transform="matrix(2.602053,0,0,-2.602053,-2649.77434,7998.527836)"/>
<path style="fill-rule:evenodd;fill:rgb(66.3%,66.3%,66.3%);fill-opacity:1;stroke-width:0.2;stroke-linecap:butt;stroke-linejoin:round;stroke:rgb(0%,0%,0%);stroke-opacity:1;stroke-miterlimit:10;" d="M 1102.324175 2817.527862 L 1103.166359 2819.209226 L 1101.819766 2818.53668 L 1101.063152 2820.049909 L 1100.306538 2818.53668 L 1098.959945 2819.209226 L 1099.802128 2817.527862 Z M 1102.324175 2817.527862 " transform="matrix(2.602053,0,0,-2.602053,-2649.77434,7998.527836)"/>
<path style="fill-rule:evenodd;fill:rgb(66.3%,66.3%,66.3%);fill-opacity:1;stroke-width:0.2;stroke-linecap:butt;stroke-linejoin:round;stroke:rgb(0%,0%,0%);stroke-opacity:1;stroke-miterlimit:10;" d="M 1087.115329 2817.527862 L 1087.956012 2819.209226 L 1086.609419 2818.53668 L 1085.852805 2820.049909 L 1085.09619 2818.53668 L 1083.751098 2819.209226 L 1084.591781 2817.527862 Z M 1087.115329 2817.527862 " transform="matrix(2.602053,0,0,-2.602053,-2649.77434,7998.527836)"/>
<path style="fill-rule:evenodd;fill:rgb(66.3%,66.3%,66.3%);fill-opacity:1;stroke-width:0.2;stroke-linecap:butt;stroke-linejoin:round;stroke:rgb(0%,0%,0%);stroke-opacity:1;stroke-miterlimit:10;" d="M 1208.825129 2817.527862 L 1209.665812 2819.209226 L 1208.32072 2818.53668 L 1207.562604 2820.049909 L 1206.80599 2818.53668 L 1205.460898 2819.209226 L 1206.301581 2817.527862 Z M 1208.825129 2817.527862 " transform="matrix(2.602053,0,0,-2.602053,-2649.77434,7998.527836)"/>
<path style="fill-rule:evenodd;fill:rgb(66.3%,66.3%,66.3%);fill-opacity:1;stroke-width:0.2;stroke-linecap:butt;stroke-linejoin:round;stroke:rgb(0%,0%,0%);stroke-opacity:1;stroke-miterlimit:10;" d="M 1193.614782 2817.527862 L 1194.455464 2819.209226 L 1193.110373 2818.53668 L 1192.353758 2820.049909 L 1191.595643 2818.53668 L 1190.250551 2819.209226 L 1191.091234 2817.527862 Z M 1193.614782 2817.527862 " transform="matrix(2.602053,0,0,-2.602053,-2649.77434,7998.527836)"/>
<path style="fill-rule:evenodd;fill:rgb(66.3%,66.3%,66.3%);fill-opacity:1;stroke-width:0.2;stroke-linecap:butt;stroke-linejoin:round;stroke:rgb(0%,0%,0%);stroke-opacity:1;stroke-miterlimit:10;" d="M 1048.586553 2817.527862 L 1049.704961 2819.764677 L 1047.915508 2818.869951 L 1046.908191 2820.883085 L 1045.902374 2818.869951 L 1044.112922 2819.764677 L 1045.231329 2817.527862 Z M 1048.586553 2817.527862 " transform="matrix(2.602053,0,0,-2.602053,-2649.77434,7998.527836)"/>
<path style="fill-rule:evenodd;fill:rgb(66.3%,66.3%,66.3%);fill-opacity:1;stroke-width:0.2;stroke-linecap:butt;stroke-linejoin:round;stroke:rgb(0%,0%,0%);stroke-opacity:1;stroke-miterlimit:10;" d="M 1027.808186 2817.535368 L 1029.297395 2820.515287 L 1026.91346 2819.323319 L 1025.572871 2822.004496 L 1024.232283 2819.323319 L 1021.848348 2820.515287 L 1023.337557 2817.535368 Z M 1027.808186 2817.535368 " transform="matrix(2.602053,0,0,-2.602053,-2649.77434,7998.527836)"/>
<path style="fill-rule:evenodd;fill:rgb(66.3%,66.3%,66.3%);fill-opacity:1;stroke-width:0.2;stroke-linecap:butt;stroke-linejoin:round;stroke:rgb(0%,0%,0%);stroke-opacity:1;stroke-miterlimit:10;" d="M 1244.85888 2817.527862 L 1243.740472 2819.764677 L 1245.529925 2818.869951 L 1246.535741 2820.883085 L 1247.543059 2818.869951 L 1249.332512 2819.764677 L 1248.214104 2817.527862 Z M 1244.85888 2817.527862 " transform="matrix(2.602053,0,0,-2.602053,-2649.77434,7998.527836)"/>
<path style="fill-rule:evenodd;fill:rgb(66.3%,66.3%,66.3%);fill-opacity:1;stroke-width:0.2;stroke-linecap:butt;stroke-linejoin:round;stroke:rgb(0%,0%,0%);stroke-opacity:1;stroke-miterlimit:10;" d="M 1265.637247 2817.535368 L 1264.146537 2820.515287 L 1266.530473 2819.323319 L 1267.871061 2822.004496 L 1269.21315 2819.323319 L 1271.597085 2820.515287 L 1270.106375 2817.535368 Z M 1265.637247 2817.535368 " transform="matrix(2.602053,0,0,-2.602053,-2649.77434,7998.527836)"/>
<path style="fill-rule:evenodd;fill:rgb(66.3%,66.3%,66.3%);fill-opacity:1;stroke-width:0.2;stroke-linecap:butt;stroke-linejoin:round;stroke:rgb(0%,0%,0%);stroke-opacity:1;stroke-miterlimit:10;" d="M 1274.74364 2988.121844 L 1217.957042 3016.518896 L 1240.67048 2971.084514 L 1189.559991 2945.529269 L 1240.67048 2919.975525 L 1217.957042 2874.541143 L 1274.74364 2902.938195 Z M 1274.74364 2988.121844 " transform="matrix(2.602053,0,0,-2.602053,-2649.77434,7998.527836)"/>
<path style="fill-rule:evenodd;fill:rgb(66.3%,66.3%,66.3%);fill-opacity:1;stroke-width:0.2;stroke-linecap:butt;stroke-linejoin:round;stroke:rgb(0%,0%,0%);stroke-opacity:1;stroke-miterlimit:10;" d="M 1274.74364 2881.589364 L 1253.523914 2892.201479 L 1262.011804 2875.222696 L 1242.9118 2865.673444 L 1262.011804 2856.124193 L 1253.523914 2839.14541 L 1274.74364 2849.757524 Z M 1274.74364 2881.589364 " transform="matrix(2.602053,0,0,-2.602053,-2649.77434,7998.527836)"/>
<path style="fill-rule:evenodd;fill:rgb(66.3%,66.3%,66.3%);fill-opacity:1;stroke-width:0.2;stroke-linecap:butt;stroke-linejoin:round;stroke:rgb(0%,0%,0%);stroke-opacity:1;stroke-miterlimit:10;" d="M 1274.74364 3041.279996 L 1253.523914 3051.890609 L 1262.011804 3034.913328 L 1242.9118 3025.364076 L 1262.011804 3015.813323 L 1253.523914 2998.836041 L 1274.74364 3009.448156 Z M 1274.74364 3041.279996 " transform="matrix(2.602053,0,0,-2.602053,-2649.77434,7998.527836)"/>
<path style="fill-rule:evenodd;fill:rgb(66.3%,66.3%,66.3%);fill-opacity:1;stroke-width:0.2;stroke-linecap:butt;stroke-linejoin:round;stroke:rgb(0%,0%,0%);stroke-opacity:1;stroke-miterlimit:10;" d="M 1274.745141 2896.831237 L 1268.725254 2899.841181 L 1271.133209 2895.025271 L 1265.715311 2892.317073 L 1271.133209 2889.607373 L 1268.725254 2884.791464 L 1274.745141 2887.801407 Z M 1274.745141 2896.831237 " transform="matrix(2.602053,0,0,-2.602053,-2649.77434,7998.527836)"/>
<path style="fill-rule:evenodd;fill:rgb(66.3%,66.3%,66.3%);fill-opacity:1;stroke-width:0.2;stroke-linecap:butt;stroke-linejoin:round;stroke:rgb(0%,0%,0%);stroke-opacity:1;stroke-miterlimit:10;" d="M 1274.745141 3003.300666 L 1268.725254 3006.310609 L 1271.133209 3001.4947 L 1265.715311 2998.786501 L 1271.133209 2996.078303 L 1268.725254 2991.262393 L 1274.745141 2994.272337 Z M 1274.745141 3003.300666 " transform="matrix(2.602053,0,0,-2.602053,-2649.77434,7998.527836)"/>
<path style="fill-rule:evenodd;fill:rgb(66.3%,66.3%,66.3%);fill-opacity:1;stroke-width:0.2;stroke-linecap:butt;stroke-linejoin:round;stroke:rgb(0%,0%,0%);stroke-opacity:1;stroke-miterlimit:10;" d="M 1274.739136 2841.692978 L 1266.731636 2845.696728 L 1269.933735 2839.289527 L 1262.726384 2835.686602 L 1269.933735 2832.082176 L 1266.731636 2825.676476 L 1274.739136 2829.680226 Z M 1274.739136 2841.692978 " transform="matrix(2.602053,0,0,-2.602053,-2649.77434,7998.527836)"/>
<path style="fill-rule:evenodd;fill:rgb(66.3%,66.3%,66.3%);fill-opacity:1;stroke-width:0.2;stroke-linecap:butt;stroke-linejoin:round;stroke:rgb(0%,0%,0%);stroke-opacity:1;stroke-miterlimit:10;" d="M 1274.739136 3061.412839 L 1266.731636 3065.416589 L 1269.933735 3059.010889 L 1262.726384 3055.406463 L 1269.933735 3051.803538 L 1266.731636 3045.396337 L 1274.739136 3049.400087 Z M 1274.739136 3061.412839 " transform="matrix(2.602053,0,0,-2.602053,-2649.77434,7998.527836)"/>
<path style="fill-rule:evenodd;fill:rgb(66.3%,66.3%,66.3%);fill-opacity:1;stroke-width:0.2;stroke-linecap:butt;stroke-linejoin:round;stroke:rgb(0%,0%,0%);stroke-opacity:1;stroke-miterlimit:10;" d="M 1274.742138 2901.114214 L 1273.060774 2901.956398 L 1273.73332 2900.609805 L 1272.220091 2899.85319 L 1273.73332 2899.096576 L 1273.060774 2897.749983 L 1274.742138 2898.592167 Z M 1274.742138 2901.114214 " transform="matrix(2.602053,0,0,-2.602053,-2649.77434,7998.527836)"/>
<path style="fill-rule:evenodd;fill:rgb(66.3%,66.3%,66.3%);fill-opacity:1;stroke-width:0.2;stroke-linecap:butt;stroke-linejoin:round;stroke:rgb(0%,0%,0%);stroke-opacity:1;stroke-miterlimit:10;" d="M 1274.742138 2885.905368 L 1273.060774 2886.74605 L 1273.73332 2885.399457 L 1272.220091 2884.642843 L 1273.73332 2883.886229 L 1273.060774 2882.539636 L 1274.742138 2883.38182 Z M 1274.742138 2885.905368 " transform="matrix(2.602053,0,0,-2.602053,-2649.77434,7998.527836)"/>
<path style="fill-rule:evenodd;fill:rgb(66.3%,66.3%,66.3%);fill-opacity:1;stroke-width:0.2;stroke-linecap:butt;stroke-linejoin:round;stroke:rgb(0%,0%,0%);stroke-opacity:1;stroke-miterlimit:10;" d="M 1274.742138 3007.615168 L 1273.060774 3008.45585 L 1273.73332 3007.110758 L 1272.220091 3006.352643 L 1273.73332 3005.596029 L 1273.060774 3004.250937 L 1274.742138 3005.091619 Z M 1274.742138 3007.615168 " transform="matrix(2.602053,0,0,-2.602053,-2649.77434,7998.527836)"/>
<path style="fill-rule:evenodd;fill:rgb(66.3%,66.3%,66.3%);fill-opacity:1;stroke-width:0.2;stroke-linecap:butt;stroke-linejoin:round;stroke:rgb(0%,0%,0%);stroke-opacity:1;stroke-miterlimit:10;" d="M 1274.742138 2992.404821 L 1273.060774 2993.245503 L 1273.73332 2991.900411 L 1272.220091 2991.143797 L 1273.73332 2990.385682 L 1273.060774 2989.04059 L 1274.742138 2989.881272 Z M 1274.742138 2992.404821 " transform="matrix(2.602053,0,0,-2.602053,-2649.77434,7998.527836)"/>
<path style="fill-rule:evenodd;fill:rgb(66.3%,66.3%,66.3%);fill-opacity:1;stroke-width:0.2;stroke-linecap:butt;stroke-linejoin:round;stroke:rgb(0%,0%,0%);stroke-opacity:1;stroke-miterlimit:10;" d="M 1274.742138 2847.376592 L 1272.505323 2848.495 L 1273.400049 2846.705547 L 1271.386915 2845.698229 L 1273.400049 2844.692413 L 1272.505323 2842.90296 L 1274.742138 2844.021368 Z M 1274.742138 2847.376592 " transform="matrix(2.602053,0,0,-2.602053,-2649.77434,7998.527836)"/>
<path style="fill-rule:evenodd;fill:rgb(66.3%,66.3%,66.3%);fill-opacity:1;stroke-width:0.2;stroke-linecap:butt;stroke-linejoin:round;stroke:rgb(0%,0%,0%);stroke-opacity:1;stroke-miterlimit:10;" d="M 1274.734632 2826.598225 L 1271.754713 2828.087433 L 1272.946681 2825.703498 L 1270.265504 2824.36291 L 1272.946681 2823.022322 L 1271.754713 2820.638387 L 1274.734632 2822.127595 Z M 1274.734632 2826.598225 " transform="matrix(2.602053,0,0,-2.602053,-2649.77434,7998.527836)"/>
<path style="fill-rule:evenodd;fill:rgb(66.3%,66.3%,66.3%);fill-opacity:1;stroke-width:0.2;stroke-linecap:butt;stroke-linejoin:round;stroke:rgb(0%,0%,0%);stroke-opacity:1;stroke-miterlimit:10;" d="M 1274.742138 3043.648919 L 1272.505323 3042.530511 L 1273.400049 3044.319964 L 1271.386915 3045.32578 L 1273.400049 3046.333098 L 1272.505323 3048.12255 L 1274.742138 3047.004143 Z M 1274.742138 3043.648919 " transform="matrix(2.602053,0,0,-2.602053,-2649.77434,7998.527836)"/>
<path style="fill-rule:evenodd;fill:rgb(66.3%,66.3%,66.3%);fill-opacity:1;stroke-width:0.2;stroke-linecap:butt;stroke-linejoin:round;stroke:rgb(0%,0%,0%);stroke-opacity:1;stroke-miterlimit:10;" d="M 1274.734632 3064.427286 L 1271.754713 3062.936576 L 1272.946681 3065.320511 L 1270.265504 3066.661099 L 1272.946681 3068.003189 L 1271.754713 3070.387124 L 1274.734632 3068.896414 Z M 1274.734632 3064.427286 " transform="matrix(2.602053,0,0,-2.602053,-2649.77434,7998.527836)"/>
<path style="fill-rule:evenodd;fill:rgb(66.3%,66.3%,66.3%);fill-opacity:1;stroke-width:0.2;stroke-linecap:butt;stroke-linejoin:round;stroke:rgb(0%,0%,0%);stroke-opacity:1;stroke-miterlimit:10;" d="M 1104.148156 3073.533678 L 1075.751104 3016.747081 L 1121.185486 3039.460519 L 1146.740731 2988.350029 L 1172.294475 3039.460519 L 1217.728857 3016.747081 L 1189.331805 3073.533678 Z M 1104.148156 3073.533678 " transform="matrix(2.602053,0,0,-2.602053,-2649.77434,7998.527836)"/>
<path style="fill-rule:evenodd;fill:rgb(66.3%,66.3%,66.3%);fill-opacity:1;stroke-width:0.2;stroke-linecap:butt;stroke-linejoin:round;stroke:rgb(0%,0%,0%);stroke-opacity:1;stroke-miterlimit:10;" d="M 1210.680636 3073.533678 L 1200.068521 3052.313953 L 1217.047304 3060.801843 L 1226.596556 3041.701838 L 1236.145807 3060.801843 L 1253.12459 3052.313953 L 1242.512476 3073.533678 Z M 1210.680636 3073.533678 " transform="matrix(2.602053,0,0,-2.602053,-2649.77434,7998.527836)"/>
<path style="fill-rule:evenodd;fill:rgb(66.3%,66.3%,66.3%);fill-opacity:1;stroke-width:0.2;stroke-linecap:butt;stroke-linejoin:round;stroke:rgb(0%,0%,0%);stroke-opacity:1;stroke-miterlimit:10;" d="M 1050.990004 3073.533678 L 1040.379391 3052.313953 L 1057.356672 3060.801843 L 1066.905924 3041.701838 L 1076.456677 3060.801843 L 1093.433959 3052.313953 L 1082.821844 3073.533678 Z M 1050.990004 3073.533678 " transform="matrix(2.602053,0,0,-2.602053,-2649.77434,7998.527836)"/>
<path style="fill-rule:evenodd;fill:rgb(66.3%,66.3%,66.3%);fill-opacity:1;stroke-width:0.2;stroke-linecap:butt;stroke-linejoin:round;stroke:rgb(0%,0%,0%);stroke-opacity:1;stroke-miterlimit:10;" d="M 1195.438763 3073.535179 L 1192.428819 3067.515293 L 1197.244729 3069.923247 L 1199.952927 3064.505349 L 1202.662627 3069.923247 L 1207.478536 3067.515293 L 1204.468593 3073.535179 Z M 1195.438763 3073.535179 " transform="matrix(2.602053,0,0,-2.602053,-2649.77434,7998.527836)"/>
<path style="fill-rule:evenodd;fill:rgb(66.3%,66.3%,66.3%);fill-opacity:1;stroke-width:0.2;stroke-linecap:butt;stroke-linejoin:round;stroke:rgb(0%,0%,0%);stroke-opacity:1;stroke-miterlimit:10;" d="M 1088.969334 3073.535179 L 1085.959391 3067.515293 L 1090.7753 3069.923247 L 1093.483499 3064.505349 L 1096.191697 3069.923247 L 1101.007607 3067.515293 L 1097.997663 3073.535179 Z M 1088.969334 3073.535179 " transform="matrix(2.602053,0,0,-2.602053,-2649.77434,7998.527836)"/>
<path style="fill-rule:evenodd;fill:rgb(66.3%,66.3%,66.3%);fill-opacity:1;stroke-width:0.2;stroke-linecap:butt;stroke-linejoin:round;stroke:rgb(0%,0%,0%);stroke-opacity:1;stroke-miterlimit:10;" d="M 1250.577022 3073.529175 L 1246.573272 3065.521674 L 1252.980473 3068.723774 L 1256.583398 3061.516423 L 1260.187824 3068.723774 L 1266.593524 3065.521674 L 1262.589774 3073.529175 Z M 1250.577022 3073.529175 " transform="matrix(2.602053,0,0,-2.602053,-2649.77434,7998.527836)"/>
<path style="fill-rule:evenodd;fill:rgb(66.3%,66.3%,66.3%);fill-opacity:1;stroke-width:0.2;stroke-linecap:butt;stroke-linejoin:round;stroke:rgb(0%,0%,0%);stroke-opacity:1;stroke-miterlimit:10;" d="M 1030.857161 3073.529175 L 1026.853411 3065.521674 L 1033.259111 3068.723774 L 1036.863537 3061.516423 L 1040.466462 3068.723774 L 1046.873663 3065.521674 L 1042.869913 3073.529175 Z M 1030.857161 3073.529175 " transform="matrix(2.602053,0,0,-2.602053,-2649.77434,7998.527836)"/>
<path style="fill-rule:evenodd;fill:rgb(66.3%,66.3%,66.3%);fill-opacity:1;stroke-width:0.2;stroke-linecap:butt;stroke-linejoin:round;stroke:rgb(0%,0%,0%);stroke-opacity:1;stroke-miterlimit:10;" d="M 1191.155786 3073.532177 L 1190.313602 3071.850812 L 1191.660195 3072.523358 L 1192.41681 3071.01013 L 1193.173424 3072.523358 L 1194.520017 3071.850812 L 1193.677833 3073.532177 Z M 1191.155786 3073.532177 " transform="matrix(2.602053,0,0,-2.602053,-2649.77434,7998.527836)"/>
<path style="fill-rule:evenodd;fill:rgb(66.3%,66.3%,66.3%);fill-opacity:1;stroke-width:0.2;stroke-linecap:butt;stroke-linejoin:round;stroke:rgb(0%,0%,0%);stroke-opacity:1;stroke-miterlimit:10;" d="M 1206.364632 3073.532177 L 1205.52395 3071.850812 L 1206.870543 3072.523358 L 1207.627157 3071.01013 L 1208.383771 3072.523358 L 1209.730364 3071.850812 L 1208.88818 3073.532177 Z M 1206.364632 3073.532177 " transform="matrix(2.602053,0,0,-2.602053,-2649.77434,7998.527836)"/>
<path style="fill-rule:evenodd;fill:rgb(66.3%,66.3%,66.3%);fill-opacity:1;stroke-width:0.2;stroke-linecap:butt;stroke-linejoin:round;stroke:rgb(0%,0%,0%);stroke-opacity:1;stroke-miterlimit:10;" d="M 1084.654832 3073.532177 L 1083.81415 3071.850812 L 1085.159242 3072.523358 L 1085.917357 3071.01013 L 1086.673971 3072.523358 L 1088.019063 3071.850812 L 1087.178381 3073.532177 Z M 1084.654832 3073.532177 " transform="matrix(2.602053,0,0,-2.602053,-2649.77434,7998.527836)"/>
<path style="fill-rule:evenodd;fill:rgb(66.3%,66.3%,66.3%);fill-opacity:1;stroke-width:0.2;stroke-linecap:butt;stroke-linejoin:round;stroke:rgb(0%,0%,0%);stroke-opacity:1;stroke-miterlimit:10;" d="M 1099.865179 3073.532177 L 1099.024497 3071.850812 L 1100.369589 3072.523358 L 1101.126203 3071.01013 L 1101.884318 3072.523358 L 1103.22941 3071.850812 L 1102.388728 3073.532177 Z M 1099.865179 3073.532177 " transform="matrix(2.602053,0,0,-2.602053,-2649.77434,7998.527836)"/>
<path style="fill-rule:evenodd;fill:rgb(66.3%,66.3%,66.3%);fill-opacity:1;stroke-width:0.2;stroke-linecap:butt;stroke-linejoin:round;stroke:rgb(0%,0%,0%);stroke-opacity:1;stroke-miterlimit:10;" d="M 1244.893408 3073.532177 L 1243.775 3071.295361 L 1245.564453 3072.190088 L 1246.571771 3070.176953 L 1247.577587 3072.190088 L 1249.36704 3071.295361 L 1248.248632 3073.532177 Z M 1244.893408 3073.532177 " transform="matrix(2.602053,0,0,-2.602053,-2649.77434,7998.527836)"/>
<path style="fill-rule:evenodd;fill:rgb(66.3%,66.3%,66.3%);fill-opacity:1;stroke-width:0.2;stroke-linecap:butt;stroke-linejoin:round;stroke:rgb(0%,0%,0%);stroke-opacity:1;stroke-miterlimit:10;" d="M 1265.671775 3073.524671 L 1264.182567 3070.544752 L 1266.566502 3071.73672 L 1267.90709 3069.055543 L 1269.247678 3071.73672 L 1271.631613 3070.544752 L 1270.142405 3073.524671 Z M 1265.671775 3073.524671 " transform="matrix(2.602053,0,0,-2.602053,-2649.77434,7998.527836)"/>
<path style="fill-rule:evenodd;fill:rgb(66.3%,66.3%,66.3%);fill-opacity:1;stroke-width:0.2;stroke-linecap:butt;stroke-linejoin:round;stroke:rgb(0%,0%,0%);stroke-opacity:1;stroke-miterlimit:10;" d="M 1048.621081 3073.532177 L 1049.739489 3071.295361 L 1047.950036 3072.190088 L 1046.94422 3070.176953 L 1045.936902 3072.190088 L 1044.14745 3071.295361 L 1045.265857 3073.532177 Z M 1048.621081 3073.532177 " transform="matrix(2.602053,0,0,-2.602053,-2649.77434,7998.527836)"/>
<path style="fill-rule:evenodd;fill:rgb(66.3%,66.3%,66.3%);fill-opacity:1;stroke-width:0.2;stroke-linecap:butt;stroke-linejoin:round;stroke:rgb(0%,0%,0%);stroke-opacity:1;stroke-miterlimit:10;" d="M 1027.842714 3073.524671 L 1029.333424 3070.544752 L 1026.949489 3071.73672 L 1025.608901 3069.055543 L 1024.266811 3071.73672 L 1021.882876 3070.544752 L 1023.373586 3073.524671 Z M 1027.842714 3073.524671 " transform="matrix(2.602053,0,0,-2.602053,-2649.77434,7998.527836)"/>
</g>
</svg>
