<?xml version="1.0" encoding="UTF-8"?>
<svg xmlns="http://www.w3.org/2000/svg" xmlns:xlink="http://www.w3.org/1999/xlink" width="816pt" height="464pt" viewBox="0 0 816 464" version="1.1">
<g id="surface3031">
<path style=" stroke:none;fill-rule:evenodd;fill:rgb(82.7%,82.7%,82.7%);fill-opacity:1;" d="M 740.433594 389.101563 L 740.433594 318.835938 L 670.167969 318.835938 L 670.167969 389.101563 Z M 740.433594 389.101563 "/>
<path style=" stroke:none;fill-rule:evenodd;fill:rgb(82.7%,82.7%,82.7%);fill-opacity:1;" d="M 670.167969 318.835938 L 670.167969 248.566406 L 599.902344 248.566406 L 599.902344 318.835938 Z M 670.167969 318.835938 "/>
<path style=" stroke:none;fill-rule:evenodd;fill:rgb(82.7%,82.7%,82.7%);fill-opacity:1;" d="M 670.167969 459.367188 L 670.167969 389.101563 L 599.902344 389.101563 L 599.902344 459.367188 Z M 670.167969 459.367188 "/>
<path style=" stroke:none;fill-rule:evenodd;fill:rgb(82.7%,82.7%,82.7%);fill-opacity:1;" d="M 740.433594 248.566406 L 740.433594 178.300781 L 670.167969 178.300781 L 670.167969 248.566406 Z M 740.433594 248.566406 "/>
<path style=" stroke:none;fill-rule:evenodd;fill:rgb(82.7%,82.7%,82.7%);fill-opacity:1;" d="M 810.699219 318.835938 L 810.699219 248.566406 L 740.433594 248.566406 L 740.433594 318.835938 Z M 810.699219 318.835938 "/>
<path style=" stroke:none;fill-rule:evenodd;fill:rgb(82.7%,82.7%,82.7%);fill-opacity:1;" d="M 810.699219 459.367188 L 810.699219 389.101563 L 740.433594 389.101563 L 740.433594 459.367188 Z M 810.699219 459.367188 "/>
<path style="fill:none;stroke-width:0.8;stroke-linecap:butt;stroke-linejoin:round;stroke:rgb(0%,0%,0%);stroke-opacity:1;stroke-miterlimit:10;" d="M 1088.000034 2800.000395 L 1088.000034 2767.999956 L 1119.999584 2767.999956 L 1119.999584 2800.000395 Z M 1088.000034 2800.000395 " transform="matrix(4.391663,0,0,-4.391663,-4107.961851,12545.225383)"/>
<path style=" stroke:none;fill-rule:evenodd;fill:rgb(82.7%,82.7%,82.7%);fill-opacity:1;" d="M 459.367188 389.101563 L 459.367188 318.835938 L 389.101563 318.835938 L 389.101563 389.101563 Z M 459.367188 389.101563 "/>
<path style=" stroke:none;fill-rule:evenodd;fill:rgb(82.7%,82.7%,82.7%);fill-opacity:1;" d="M 318.835938 389.101563 L 318.835938 318.835938 L 248.566406 318.835938 L 248.566406 389.101563 Z M 318.835938 389.101563 "/>
<path style=" stroke:none;fill-rule:evenodd;fill:rgb(82.7%,82.7%,82.7%);fill-opacity:1;" d="M 389.101563 178.300781 L 389.101563 108.035156 L 318.835938 108.035156 L 318.835938 178.300781 Z M 389.101563 178.300781 "/>
<path style=" stroke:none;fill-rule:evenodd;fill:rgb(82.7%,82.7%,82.7%);fill-opacity:1;" d="M 459.367188 248.566406 L 459.367188 178.300781 L 389.101563 178.300781 L 389.101563 248.566406 Z M 459.367188 248.566406 "/>
<path style=" stroke:none;fill-rule:evenodd;fill:rgb(82.7%,82.7%,82.7%);fill-opacity:1;" d="M 318.835938 248.566406 L 318.835938 178.300781 L 248.566406 178.300781 L 248.566406 248.566406 Z M 318.835938 248.566406 "/>
<path style=" stroke:none;fill-rule:evenodd;fill:rgb(82.7%,82.7%,82.7%);fill-opacity:1;" d="M 389.101563 318.835938 L 389.101563 248.566406 L 318.835938 248.566406 L 318.835938 318.835938 Z M 389.101563 318.835938 "/>
<path style="fill:none;stroke-width:0.8;stroke-linecap:butt;stroke-linejoin:round;stroke:rgb(0%,0%,0%);stroke-opacity:1;stroke-miterlimit:10;" d="M 991.999605 2816.00017 L 991.999605 2783.999731 L 1024.000044 2783.999731 L 1024.000044 2816.00017 Z M 991.999605 2816.00017 " transform="matrix(4.391663,0,0,-4.391663,-4107.961851,12545.225383)"/>
<path style=" stroke:none;fill-rule:evenodd;fill:rgb(82.7%,82.7%,82.7%);fill-opacity:1;" d="M 389.101563 459.367188 L 389.101563 389.101563 L 318.835938 389.101563 L 318.835938 459.367188 Z M 389.101563 459.367188 "/>
<path style=" stroke:none;fill-rule:evenodd;fill:rgb(82.7%,82.7%,82.7%);fill-opacity:1;" d="M 529.632813 178.300781 L 529.632813 108.035156 L 459.367188 108.035156 L 459.367188 178.300781 Z M 529.632813 178.300781 "/>
<path style=" stroke:none;fill-rule:evenodd;fill:rgb(82.7%,82.7%,82.7%);fill-opacity:1;" d="M 670.167969 178.300781 L 670.167969 108.035156 L 599.902344 108.035156 L 599.902344 178.300781 Z M 670.167969 178.300781 "/>
<path style=" stroke:none;fill-rule:evenodd;fill:rgb(82.7%,82.7%,82.7%);fill-opacity:1;" d="M 810.699219 178.300781 L 810.699219 108.035156 L 740.433594 108.035156 L 740.433594 178.300781 Z M 810.699219 178.300781 "/>
<path style=" stroke:none;fill-rule:evenodd;fill:rgb(82.7%,82.7%,82.7%);fill-opacity:1;" d="M 599.902344 248.566406 L 599.902344 178.300781 L 529.632813 178.300781 L 529.632813 248.566406 Z M 599.902344 248.566406 "/>
<path style=" stroke:none;fill-rule:evenodd;fill:rgb(82.7%,82.7%,82.7%);fill-opacity:1;" d="M 529.632813 318.835938 L 529.632813 248.566406 L 459.367188 248.566406 L 459.367188 318.835938 Z M 529.632813 318.835938 "/>
<path style=" stroke:none;fill-rule:evenodd;fill:rgb(82.7%,82.7%,82.7%);fill-opacity:1;" d="M 599.902344 389.101563 L 599.902344 318.835938 L 529.632813 318.835938 L 529.632813 389.101563 Z M 599.902344 389.101563 "/>
<path style=" stroke:none;fill-rule:evenodd;fill:rgb(82.7%,82.7%,82.7%);fill-opacity:1;" d="M 529.632813 459.367188 L 529.632813 389.101563 L 459.367188 389.101563 L 459.367188 459.367188 Z M 529.632813 459.367188 "/>
<path style=" stroke:none;fill-rule:evenodd;fill:rgb(100%,0%,0%);fill-opacity:1;" d="M 291.605469 213.433594 C 291.605469 209.070313 288.066406 205.53125 283.703125 205.53125 C 279.335938 205.53125 275.796875 209.070313 275.796875 213.433594 C 275.796875 217.800781 279.335938 221.339844 283.703125 221.339844 C 288.066406 221.339844 291.605469 217.800781 291.605469 213.433594 Z M 291.605469 213.433594 "/>
<path style=" stroke:none;fill-rule:evenodd;fill:rgb(100%,0%,0%);fill-opacity:1;" d="M 361.875 353.96875 C 361.875 349.601563 358.332031 346.0625 353.96875 346.0625 C 349.601563 346.0625 346.0625 349.601563 346.0625 353.96875 C 346.0625 358.332031 349.601563 361.875 353.96875 361.875 C 358.332031 361.875 361.875 358.332031 361.875 353.96875 Z M 361.875 353.96875 "/>
<path style=" stroke:none;fill-rule:evenodd;fill:rgb(100%,0%,0%);fill-opacity:1;" d="M 502.40625 424.234375 C 502.40625 419.867188 498.867188 416.328125 494.5 416.328125 C 490.136719 416.328125 486.597656 419.867188 486.597656 424.234375 C 486.597656 428.601563 490.136719 432.140625 494.5 432.140625 C 498.867188 432.140625 502.40625 428.601563 502.40625 424.234375 Z M 502.40625 424.234375 "/>
<path style=" stroke:none;fill-rule:evenodd;fill:rgb(100%,0%,0%);fill-opacity:1;" d="M 432.140625 283.703125 C 432.140625 279.335938 428.601563 275.796875 424.234375 275.796875 C 419.867188 275.796875 416.328125 279.335938 416.328125 283.703125 C 416.328125 288.066406 419.867188 291.605469 424.234375 291.605469 C 428.601563 291.605469 432.140625 288.066406 432.140625 283.703125 Z M 432.140625 283.703125 "/>
<path style=" stroke:none;fill-rule:evenodd;fill:rgb(100%,0%,0%);fill-opacity:1;" d="M 572.671875 353.96875 C 572.671875 349.601563 569.132813 346.0625 564.769531 346.0625 C 560.402344 346.0625 556.863281 349.601563 556.863281 353.96875 C 556.863281 358.332031 560.402344 361.875 564.769531 361.875 C 569.132813 361.875 572.671875 358.332031 572.671875 353.96875 Z M 572.671875 353.96875 "/>
<path style=" stroke:none;fill-rule:evenodd;fill:rgb(100%,0%,0%);fill-opacity:1;" d="M 713.207031 424.234375 C 713.207031 419.867188 709.667969 416.328125 705.300781 416.328125 C 700.933594 416.328125 697.394531 419.867188 697.394531 424.234375 C 697.394531 428.601563 700.933594 432.140625 705.300781 432.140625 C 709.667969 432.140625 713.207031 428.601563 713.207031 424.234375 Z M 713.207031 424.234375 "/>
<path style=" stroke:none;fill-rule:evenodd;fill:rgb(100%,0%,0%);fill-opacity:1;" d="M 783.472656 283.703125 C 783.472656 279.335938 779.933594 275.796875 775.566406 275.796875 C 771.203125 275.796875 767.664063 279.335938 767.664063 283.703125 C 767.664063 288.066406 771.203125 291.605469 775.566406 291.605469 C 779.933594 291.605469 783.472656 288.066406 783.472656 283.703125 Z M 783.472656 283.703125 "/>
<path style="fill:none;stroke-width:1.2;stroke-linecap:butt;stroke-linejoin:round;stroke:rgb(100%,0%,0%);stroke-opacity:1;stroke-miterlimit:10;" d="M 1000.000382 2808.000283 L 1016.000157 2775.999843 L 1047.999707 2760.000068 L 1031.999932 2791.999618 L 1064.000371 2775.999843 L 1095.999921 2760.000068 L 1111.999697 2791.999618 " transform="matrix(4.391663,0,0,-4.391663,-4107.961851,12545.225383)"/>
<path style=" stroke:none;fill-rule:evenodd;fill:rgb(0%,0%,100%);fill-opacity:1;" d="M 291.605469 283.703125 C 291.605469 279.335938 288.066406 275.796875 283.703125 275.796875 C 279.335938 275.796875 275.796875 279.335938 275.796875 283.703125 C 275.796875 288.066406 279.335938 291.605469 283.703125 291.605469 C 288.066406 291.605469 291.605469 288.066406 291.605469 283.703125 Z M 291.605469 283.703125 "/>
<path style=" stroke:none;fill-rule:evenodd;fill:rgb(0%,0%,100%);fill-opacity:1;" d="M 361.875 424.234375 C 361.875 419.867188 358.332031 416.328125 353.96875 416.328125 C 349.601563 416.328125 346.0625 419.867188 346.0625 424.234375 C 346.0625 428.601563 349.601563 432.140625 353.96875 432.140625 C 358.332031 432.140625 361.875 428.601563 361.875 424.234375 Z M 361.875 424.234375 "/>
<path style=" stroke:none;fill-rule:evenodd;fill:rgb(0%,0%,100%);fill-opacity:1;" d="M 642.941406 424.234375 C 642.941406 419.867188 639.398438 416.328125 635.035156 416.328125 C 630.667969 416.328125 627.128906 419.867188 627.128906 424.234375 C 627.128906 428.601563 630.667969 432.140625 635.035156 432.140625 C 639.398438 432.140625 642.941406 428.601563 642.941406 424.234375 Z M 642.941406 424.234375 "/>
<path style=" stroke:none;fill-rule:evenodd;fill:rgb(0%,0%,100%);fill-opacity:1;" d="M 783.472656 353.96875 C 783.472656 349.601563 779.933594 346.0625 775.566406 346.0625 C 771.203125 346.0625 767.664063 349.601563 767.664063 353.96875 C 767.664063 358.332031 771.203125 361.875 775.566406 361.875 C 779.933594 361.875 783.472656 358.332031 783.472656 353.96875 Z M 783.472656 353.96875 "/>
<path style="fill:none;stroke-width:1.2;stroke-linecap:butt;stroke-linejoin:round;stroke:rgb(0%,0%,100%);stroke-opacity:1;stroke-miterlimit:10;" d="M 1000.000382 2791.999618 L 1016.000157 2760.000068 L 1047.999707 2775.999843 L 1080.000146 2760.000068 L 1111.999697 2775.999843 " transform="matrix(4.391663,0,0,-4.391663,-4107.961851,12545.225383)"/>
<path style=" stroke:none;fill-rule:evenodd;fill:rgb(18%,54.5%,34.1%);fill-opacity:1;" d="M 361.875 213.433594 C 361.875 209.070313 358.332031 205.53125 353.96875 205.53125 C 349.601563 205.53125 346.0625 209.070313 346.0625 213.433594 C 346.0625 217.800781 349.601563 221.339844 353.96875 221.339844 C 358.332031 221.339844 361.875 217.800781 361.875 213.433594 Z M 361.875 213.433594 "/>
<path style=" stroke:none;fill-rule:evenodd;fill:rgb(18%,54.5%,34.1%);fill-opacity:1;" d="M 291.605469 353.96875 C 291.605469 349.601563 288.066406 346.0625 283.703125 346.0625 C 279.335938 346.0625 275.796875 349.601563 275.796875 353.96875 C 275.796875 358.332031 279.335938 361.875 283.703125 361.875 C 288.066406 361.875 291.605469 358.332031 291.605469 353.96875 Z M 291.605469 353.96875 "/>
<path style=" stroke:none;fill-rule:evenodd;fill:rgb(18%,54.5%,34.1%);fill-opacity:1;" d="M 432.140625 424.234375 C 432.140625 419.867188 428.601563 416.328125 424.234375 416.328125 C 419.867188 416.328125 416.328125 419.867188 416.328125 424.234375 C 416.328125 428.601563 419.867188 432.140625 424.234375 432.140625 C 428.601563 432.140625 432.140625 428.601563 432.140625 424.234375 Z M 432.140625 424.234375 "/>
<path style=" stroke:none;fill-rule:evenodd;fill:rgb(18%,54.5%,34.1%);fill-opacity:1;" d="M 502.40625 283.703125 C 502.40625 279.335938 498.867188 275.796875 494.5 275.796875 C 490.136719 275.796875 486.597656 279.335938 486.597656 283.703125 C 486.597656 288.066406 490.136719 291.605469 494.5 291.605469 C 498.867188 291.605469 502.40625 288.066406 502.40625 283.703125 Z M 502.40625 283.703125 "/>
<path style=" stroke:none;fill-rule:evenodd;fill:rgb(18%,54.5%,34.1%);fill-opacity:1;" d="M 642.941406 353.96875 C 642.941406 349.601563 639.398438 346.0625 635.035156 346.0625 C 630.667969 346.0625 627.128906 349.601563 627.128906 353.96875 C 627.128906 358.332031 630.667969 361.875 635.035156 361.875 C 639.398438 361.875 642.941406 358.332031 642.941406 353.96875 Z M 642.941406 353.96875 "/>
<path style=" stroke:none;fill-rule:evenodd;fill:rgb(18%,54.5%,34.1%);fill-opacity:1;" d="M 783.472656 424.234375 C 783.472656 419.867188 779.933594 416.328125 775.566406 416.328125 C 771.203125 416.328125 767.664063 419.867188 767.664063 424.234375 C 767.664063 428.601563 771.203125 432.140625 775.566406 432.140625 C 779.933594 432.140625 783.472656 428.601563 783.472656 424.234375 Z M 783.472656 424.234375 "/>
<path style=" stroke:none;fill-rule:evenodd;fill:rgb(18%,54.5%,34.1%);fill-opacity:1;" d="M 713.207031 283.703125 C 713.207031 279.335938 709.667969 275.796875 705.300781 275.796875 C 700.933594 275.796875 697.394531 279.335938 697.394531 283.703125 C 697.394531 288.066406 700.933594 291.605469 705.300781 291.605469 C 709.667969 291.605469 713.207031 288.066406 713.207031 283.703125 Z M 713.207031 283.703125 "/>
<path style="fill:none;stroke-width:1.2;stroke-linecap:butt;stroke-linejoin:round;stroke:rgb(18%,54.5%,34.1%);stroke-opacity:1;stroke-miterlimit:10;" d="M 1016.000157 2808.000283 L 1000.000382 2775.999843 L 1031.999932 2760.000068 L 1047.999707 2791.999618 L 1080.000146 2775.999843 L 1111.999697 2760.000068 L 1095.999921 2791.999618 " transform="matrix(4.391663,0,0,-4.391663,-4107.961851,12545.225383)"/>
<path style=" stroke:none;fill-rule:evenodd;fill:rgb(62.7%,12.5%,94.1%);fill-opacity:1;" d="M 361.875 283.703125 C 361.875 279.335938 358.332031 275.796875 353.96875 275.796875 C 349.601563 275.796875 346.0625 279.335938 346.0625 283.703125 C 346.0625 288.066406 349.601563 291.605469 353.96875 291.605469 C 358.332031 291.605469 361.875 288.066406 361.875 283.703125 Z M 361.875 283.703125 "/>
<path style=" stroke:none;fill-rule:evenodd;fill:rgb(62.7%,12.5%,94.1%);fill-opacity:1;" d="M 291.605469 424.234375 C 291.605469 419.867188 288.066406 416.328125 283.703125 416.328125 C 279.335938 416.328125 275.796875 419.867188 275.796875 424.234375 C 275.796875 428.601563 279.335938 432.140625 283.703125 432.140625 C 288.066406 432.140625 291.605469 428.601563 291.605469 424.234375 Z M 291.605469 424.234375 "/>
<path style=" stroke:none;fill-rule:evenodd;fill:rgb(62.7%,12.5%,94.1%);fill-opacity:1;" d="M 432.140625 353.96875 C 432.140625 349.601563 428.601563 346.0625 424.234375 346.0625 C 419.867188 346.0625 416.328125 349.601563 416.328125 353.96875 C 416.328125 358.332031 419.867188 361.875 424.234375 361.875 C 428.601563 361.875 432.140625 358.332031 432.140625 353.96875 Z M 432.140625 353.96875 "/>
<path style=" stroke:none;fill-rule:evenodd;fill:rgb(62.7%,12.5%,94.1%);fill-opacity:1;" d="M 572.671875 424.234375 C 572.671875 419.867188 569.132813 416.328125 564.769531 416.328125 C 560.402344 416.328125 556.863281 419.867188 556.863281 424.234375 C 556.863281 428.601563 560.402344 432.140625 564.769531 432.140625 C 569.132813 432.140625 572.671875 428.601563 572.671875 424.234375 Z M 572.671875 424.234375 "/>
<path style=" stroke:none;fill-rule:evenodd;fill:rgb(62.7%,12.5%,94.1%);fill-opacity:1;" d="M 713.207031 353.96875 C 713.207031 349.601563 709.667969 346.0625 705.300781 346.0625 C 700.933594 346.0625 697.394531 349.601563 697.394531 353.96875 C 697.394531 358.332031 700.933594 361.875 705.300781 361.875 C 709.667969 361.875 713.207031 358.332031 713.207031 353.96875 Z M 713.207031 353.96875 "/>
<path style="fill:none;stroke-width:1.2;stroke-linecap:butt;stroke-linejoin:round;stroke:rgb(62.7%,12.5%,94.1%);stroke-opacity:1;stroke-miterlimit:10;" d="M 1016.000157 2791.999618 L 1000.000382 2760.000068 L 1031.999932 2775.999843 L 1064.000371 2760.000068 L 1095.999921 2775.999843 " transform="matrix(4.391663,0,0,-4.391663,-4107.961851,12545.225383)"/>
<path style="fill:none;stroke-width:1.2;stroke-linecap:butt;stroke-linejoin:round;stroke:rgb(62.7%,12.5%,94.1%);stroke-opacity:1;stroke-dasharray:4;stroke-miterlimit:10;" d="M 952.000167 2824.000058 L 1016.000157 2791.999618 " transform="matrix(4.391663,0,0,-4.391663,-4107.961851,12545.225383)"/>
<path style="fill:none;stroke-width:1.2;stroke-linecap:butt;stroke-linejoin:round;stroke:rgb(18%,54.5%,34.1%);stroke-opacity:1;stroke-dasharray:4;stroke-miterlimit:10;" d="M 952.000167 2839.999833 L 1016.000157 2808.000283 " transform="matrix(4.391663,0,0,-4.391663,-4107.961851,12545.225383)"/>
<path style="fill:none;stroke-width:1.2;stroke-linecap:butt;stroke-linejoin:round;stroke:rgb(100%,0%,0%);stroke-opacity:1;stroke-dasharray:4;stroke-miterlimit:10;" d="M 936.000392 2839.999833 L 1000.000382 2808.000283 " transform="matrix(4.391663,0,0,-4.391663,-4107.961851,12545.225383)"/>
<path style="fill:none;stroke-width:1.2;stroke-linecap:butt;stroke-linejoin:round;stroke:rgb(0%,0%,100%);stroke-opacity:1;stroke-dasharray:4;stroke-miterlimit:10;" d="M 936.000392 2824.000058 L 1000.000382 2791.999618 " transform="matrix(4.391663,0,0,-4.391663,-4107.961851,12545.225383)"/>
<path style="fill:none;stroke-width:1.2;stroke-linecap:butt;stroke-linejoin:round;stroke:rgb(0%,0%,100%);stroke-opacity:1;stroke-dasharray:4;stroke-miterlimit:10;" d="M 1111.999697 2775.999843 L 983.999717 2839.999833 " transform="matrix(4.391663,0,0,-4.391663,-4107.961851,12545.225383)"/>
<path style="fill:none;stroke-width:1.2;stroke-linecap:butt;stroke-linejoin:round;stroke:rgb(18%,54.5%,34.1%);stroke-opacity:1;stroke-dasharray:4;stroke-miterlimit:10;" d="M 1095.999921 2791.999618 L 967.999942 2855.999608 " transform="matrix(4.391663,0,0,-4.391663,-4107.961851,12545.225383)"/>
<path style="fill:none;stroke-width:1.2;stroke-linecap:butt;stroke-linejoin:round;stroke:rgb(100%,0%,0%);stroke-opacity:1;stroke-dasharray:4;stroke-miterlimit:10;" d="M 1111.999697 2791.999618 L 983.999717 2855.999608 " transform="matrix(4.391663,0,0,-4.391663,-4107.961851,12545.225383)"/>
<path style="fill:none;stroke-width:1.2;stroke-linecap:butt;stroke-linejoin:round;stroke:rgb(62.7%,12.5%,94.1%);stroke-opacity:1;stroke-dasharray:4;stroke-miterlimit:10;" d="M 1095.999921 2775.999843 L 967.999942 2839.999833 " transform="matrix(4.391663,0,0,-4.391663,-4107.961851,12545.225383)"/>
<path style="fill:none;stroke-width:2;stroke-linecap:butt;stroke-linejoin:round;stroke:rgb(0%,0%,0%);stroke-opacity:1;stroke-miterlimit:10;" d="M 991.999605 2752.000181 L 1119.999584 2752.000181 " transform="matrix(4.391663,0,0,-4.391663,-4107.961851,12545.225383)"/>
<path style=" stroke:none;fill-rule:evenodd;fill:rgb(100%,100%,100%);fill-opacity:1;" d="M 307.855469 318.835938 C 307.855469 315.195313 304.90625 312.246094 301.269531 312.246094 C 297.628906 312.246094 294.679688 315.195313 294.679688 318.835938 C 294.679688 322.472656 297.628906 325.421875 301.269531 325.421875 C 304.90625 325.421875 307.855469 322.472656 307.855469 318.835938 Z M 307.855469 318.835938 "/>
<path style=" stroke:none;fill-rule:evenodd;fill:rgb(0%,0%,0%);fill-opacity:1;" d="M 309.171875 318.835938 C 309.171875 314.46875 305.632813 310.929688 301.269531 310.929688 C 296.902344 310.929688 293.363281 314.46875 293.363281 318.835938 C 293.363281 323.199219 296.902344 326.738281 301.269531 326.738281 C 305.632813 326.738281 309.171875 323.199219 309.171875 318.835938 Z M 306.539063 318.835938 C 306.539063 311.808594 296 311.808594 296 318.835938 C 296 325.863281 306.539063 325.863281 306.539063 318.835938 Z M 306.539063 318.835938 "/>
<path style=" stroke:none;fill-rule:evenodd;fill:rgb(100%,100%,100%);fill-opacity:1;" d="M 325.421875 283.703125 C 325.421875 280.0625 322.472656 277.113281 318.835938 277.113281 C 315.195313 277.113281 312.246094 280.0625 312.246094 283.703125 C 312.246094 287.339844 315.195313 290.289063 318.835938 290.289063 C 322.472656 290.289063 325.421875 287.339844 325.421875 283.703125 Z M 325.421875 283.703125 "/>
<path style=" stroke:none;fill-rule:evenodd;fill:rgb(0%,0%,0%);fill-opacity:1;" d="M 326.738281 283.703125 C 326.738281 279.335938 323.199219 275.796875 318.835938 275.796875 C 314.46875 275.796875 310.929688 279.335938 310.929688 283.703125 C 310.929688 288.066406 314.46875 291.605469 318.835938 291.605469 C 323.199219 291.605469 326.738281 288.066406 326.738281 283.703125 Z M 324.105469 283.703125 C 324.105469 276.675781 313.566406 276.675781 313.566406 283.703125 C 313.566406 290.726563 324.105469 290.726563 324.105469 283.703125 Z M 324.105469 283.703125 "/>
<path style=" stroke:none;fill-rule:evenodd;fill:rgb(100%,100%,100%);fill-opacity:1;" d="M 332.449219 269.648438 C 332.449219 266.011719 329.5 263.0625 325.863281 263.0625 C 322.222656 263.0625 319.273438 266.011719 319.273438 269.648438 C 319.273438 273.285156 322.222656 276.234375 325.863281 276.234375 C 329.5 276.234375 332.449219 273.285156 332.449219 269.648438 Z M 332.449219 269.648438 "/>
<path style=" stroke:none;fill-rule:evenodd;fill:rgb(0%,0%,0%);fill-opacity:1;" d="M 333.765625 269.648438 C 333.765625 265.28125 330.226563 261.742188 325.863281 261.742188 C 321.496094 261.742188 317.957031 265.28125 317.957031 269.648438 C 317.957031 274.015625 321.496094 277.554688 325.863281 277.554688 C 330.226563 277.554688 333.765625 274.015625 333.765625 269.648438 Z M 331.132813 269.648438 C 331.132813 262.621094 320.589844 262.621094 320.589844 269.648438 C 320.589844 276.675781 331.132813 276.675781 331.132813 269.648438 Z M 331.132813 269.648438 "/>
<path style=" stroke:none;fill-rule:evenodd;fill:rgb(100%,100%,100%);fill-opacity:1;" d="M 313.695313 260.292969 C 313.695313 256.65625 310.746094 253.707031 307.109375 253.707031 C 303.472656 253.707031 300.523438 256.65625 300.523438 260.292969 C 300.523438 263.933594 303.472656 266.882813 307.109375 266.882813 C 310.746094 266.882813 313.695313 263.933594 313.695313 260.292969 Z M 313.695313 260.292969 "/>
<path style=" stroke:none;fill-rule:evenodd;fill:rgb(0%,0%,0%);fill-opacity:1;" d="M 315.015625 260.292969 C 315.015625 255.929688 311.476563 252.390625 307.109375 252.390625 C 302.742188 252.390625 299.203125 255.929688 299.203125 260.292969 C 299.203125 264.660156 302.742188 268.199219 307.109375 268.199219 C 311.476563 268.199219 315.015625 264.660156 315.015625 260.292969 Z M 312.378906 260.292969 C 312.378906 253.265625 301.839844 253.265625 301.839844 260.292969 C 301.839844 267.320313 312.378906 267.320313 312.378906 260.292969 Z M 312.378906 260.292969 "/>
<path style=" stroke:none;fill-rule:evenodd;fill:rgb(100%,100%,100%);fill-opacity:1;" d="M 342.988281 318.835938 C 342.988281 315.195313 340.039063 312.246094 336.402344 312.246094 C 332.761719 312.246094 329.8125 315.195313 329.8125 318.835938 C 329.8125 322.472656 332.761719 325.421875 336.402344 325.421875 C 340.039063 325.421875 342.988281 322.472656 342.988281 318.835938 Z M 342.988281 318.835938 "/>
<path style=" stroke:none;fill-rule:evenodd;fill:rgb(0%,0%,0%);fill-opacity:1;" d="M 344.304688 318.835938 C 344.304688 314.46875 340.765625 310.929688 336.402344 310.929688 C 332.035156 310.929688 328.496094 314.46875 328.496094 318.835938 C 328.496094 323.199219 332.035156 326.738281 336.402344 326.738281 C 340.765625 326.738281 344.304688 323.199219 344.304688 318.835938 Z M 341.671875 318.835938 C 341.671875 311.808594 331.132813 311.808594 331.132813 318.835938 C 331.132813 325.863281 341.671875 325.863281 341.671875 318.835938 Z M 341.671875 318.835938 "/>
<path style=" stroke:none;fill-rule:evenodd;fill:rgb(100%,100%,100%);fill-opacity:1;" d="M 325.421875 353.96875 C 325.421875 350.328125 322.472656 347.378906 318.835938 347.378906 C 315.195313 347.378906 312.246094 350.328125 312.246094 353.96875 C 312.246094 357.605469 315.195313 360.554688 318.835938 360.554688 C 322.472656 360.554688 325.421875 357.605469 325.421875 353.96875 Z M 325.421875 353.96875 "/>
<path style=" stroke:none;fill-rule:evenodd;fill:rgb(0%,0%,0%);fill-opacity:1;" d="M 326.738281 353.96875 C 326.738281 349.601563 323.199219 346.0625 318.835938 346.0625 C 314.46875 346.0625 310.929688 349.601563 310.929688 353.96875 C 310.929688 358.332031 314.46875 361.875 318.835938 361.875 C 323.199219 361.875 326.738281 358.332031 326.738281 353.96875 Z M 324.105469 353.96875 C 324.105469 346.941406 313.566406 346.941406 313.566406 353.96875 C 313.566406 360.996094 324.105469 360.996094 324.105469 353.96875 Z M 324.105469 353.96875 "/>
<path style=" stroke:none;fill-rule:evenodd;fill:rgb(100%,100%,100%);fill-opacity:1;" d="M 318.394531 368.019531 C 318.394531 364.382813 315.445313 361.433594 311.808594 361.433594 C 308.167969 361.433594 305.21875 364.382813 305.21875 368.019531 C 305.21875 371.660156 308.167969 374.609375 311.808594 374.609375 C 315.445313 374.609375 318.394531 371.660156 318.394531 368.019531 Z M 318.394531 368.019531 "/>
<path style=" stroke:none;fill-rule:evenodd;fill:rgb(0%,0%,0%);fill-opacity:1;" d="M 319.714844 368.019531 C 319.714844 363.65625 316.175781 360.117188 311.808594 360.117188 C 307.441406 360.117188 303.902344 363.65625 303.902344 368.019531 C 303.902344 372.386719 307.441406 375.925781 311.808594 375.925781 C 316.175781 375.925781 319.714844 372.386719 319.714844 368.019531 Z M 317.078125 368.019531 C 317.078125 360.996094 306.539063 360.996094 306.539063 368.019531 C 306.539063 375.046875 317.078125 375.046875 317.078125 368.019531 Z M 317.078125 368.019531 "/>
<path style=" stroke:none;fill-rule:evenodd;fill:rgb(100%,100%,100%);fill-opacity:1;" d="M 337.148438 377.375 C 337.148438 373.738281 334.199219 370.789063 330.558594 370.789063 C 326.921875 370.789063 323.972656 373.738281 323.972656 377.375 C 323.972656 381.015625 326.921875 383.964844 330.558594 383.964844 C 334.199219 383.964844 337.148438 381.015625 337.148438 377.375 Z M 337.148438 377.375 "/>
<path style=" stroke:none;fill-rule:evenodd;fill:rgb(0%,0%,0%);fill-opacity:1;" d="M 338.464844 377.375 C 338.464844 373.011719 334.925781 369.46875 330.558594 369.46875 C 326.195313 369.46875 322.65625 373.011719 322.65625 377.375 C 322.65625 381.742188 326.195313 385.28125 330.558594 385.28125 C 334.925781 385.28125 338.464844 381.742188 338.464844 377.375 Z M 335.832031 377.375 C 335.832031 370.347656 325.289063 370.347656 325.289063 377.375 C 325.289063 384.402344 335.832031 384.402344 335.832031 377.375 Z M 335.832031 377.375 "/>
<path style=" stroke:none;fill-rule:evenodd;fill:rgb(100%,100%,100%);fill-opacity:1;" d="M 346.503906 396.128906 C 346.503906 392.488281 343.554688 389.539063 339.914063 389.539063 C 336.277344 389.539063 333.328125 392.488281 333.328125 396.128906 C 333.328125 399.765625 336.277344 402.714844 339.914063 402.714844 C 343.554688 402.714844 346.503906 399.765625 346.503906 396.128906 Z M 346.503906 396.128906 "/>
<path style=" stroke:none;fill-rule:evenodd;fill:rgb(0%,0%,0%);fill-opacity:1;" d="M 347.820313 396.128906 C 347.820313 391.761719 344.28125 388.222656 339.914063 388.222656 C 335.550781 388.222656 332.007813 391.761719 332.007813 396.128906 C 332.007813 400.492188 335.550781 404.03125 339.914063 404.03125 C 344.28125 404.03125 347.820313 400.492188 347.820313 396.128906 Z M 345.183594 396.128906 C 345.183594 389.101563 334.644531 389.101563 334.644531 396.128906 C 334.644531 403.15625 345.183594 403.15625 345.183594 396.128906 Z M 345.183594 396.128906 "/>
<path style=" stroke:none;fill-rule:evenodd;fill:rgb(100%,100%,100%);fill-opacity:1;" d="M 360.554688 389.101563 C 360.554688 385.464844 357.605469 382.515625 353.96875 382.515625 C 350.328125 382.515625 347.378906 385.464844 347.378906 389.101563 C 347.378906 392.738281 350.328125 395.6875 353.96875 395.6875 C 357.605469 395.6875 360.554688 392.738281 360.554688 389.101563 Z M 360.554688 389.101563 "/>
<path style=" stroke:none;fill-rule:evenodd;fill:rgb(0%,0%,0%);fill-opacity:1;" d="M 361.875 389.101563 C 361.875 384.734375 358.332031 381.195313 353.96875 381.195313 C 349.601563 381.195313 346.0625 384.734375 346.0625 389.101563 C 346.0625 393.46875 349.601563 397.007813 353.96875 397.007813 C 358.332031 397.007813 361.875 393.46875 361.875 389.101563 Z M 359.238281 389.101563 C 359.238281 382.074219 348.699219 382.074219 348.699219 389.101563 C 348.699219 396.128906 359.238281 396.128906 359.238281 389.101563 Z M 359.238281 389.101563 "/>
<path style=" stroke:none;fill-rule:evenodd;fill:rgb(100%,100%,100%);fill-opacity:1;" d="M 395.6875 406.667969 C 395.6875 403.03125 392.738281 400.082031 389.101563 400.082031 C 385.464844 400.082031 382.515625 403.03125 382.515625 406.667969 C 382.515625 410.304688 385.464844 413.253906 389.101563 413.253906 C 392.738281 413.253906 395.6875 410.304688 395.6875 406.667969 Z M 395.6875 406.667969 "/>
<path style=" stroke:none;fill-rule:evenodd;fill:rgb(0%,0%,0%);fill-opacity:1;" d="M 397.007813 406.667969 C 397.007813 402.300781 393.46875 398.761719 389.101563 398.761719 C 384.734375 398.761719 381.195313 402.300781 381.195313 406.667969 C 381.195313 411.035156 384.734375 414.574219 389.101563 414.574219 C 393.46875 414.574219 397.007813 411.035156 397.007813 406.667969 Z M 394.371094 406.667969 C 394.371094 399.640625 383.832031 399.640625 383.832031 406.667969 C 383.832031 413.695313 394.371094 413.695313 394.371094 406.667969 Z M 394.371094 406.667969 "/>
<path style=" stroke:none;fill-rule:evenodd;fill:rgb(100%,100%,100%);fill-opacity:1;" d="M 395.6875 371.535156 C 395.6875 367.898438 392.738281 364.945313 389.101563 364.945313 C 385.464844 364.945313 382.515625 367.898438 382.515625 371.535156 C 382.515625 375.171875 385.464844 378.121094 389.101563 378.121094 C 392.738281 378.121094 395.6875 375.171875 395.6875 371.535156 Z M 395.6875 371.535156 "/>
<path style=" stroke:none;fill-rule:evenodd;fill:rgb(0%,0%,0%);fill-opacity:1;" d="M 397.007813 371.535156 C 397.007813 367.167969 393.46875 363.628906 389.101563 363.628906 C 384.734375 363.628906 381.195313 367.167969 381.195313 371.535156 C 381.195313 375.902344 384.734375 379.441406 389.101563 379.441406 C 393.46875 379.441406 397.007813 375.902344 397.007813 371.535156 Z M 394.371094 371.535156 C 394.371094 364.507813 383.832031 364.507813 383.832031 371.535156 C 383.832031 378.5625 394.371094 378.5625 394.371094 371.535156 Z M 394.371094 371.535156 "/>
<path style=" stroke:none;fill-rule:evenodd;fill:rgb(100%,100%,100%);fill-opacity:1;" d="M 430.820313 389.101563 C 430.820313 385.464844 427.871094 382.515625 424.234375 382.515625 C 420.597656 382.515625 417.648438 385.464844 417.648438 389.101563 C 417.648438 392.738281 420.597656 395.6875 424.234375 395.6875 C 427.871094 395.6875 430.820313 392.738281 430.820313 389.101563 Z M 430.820313 389.101563 "/>
<path style=" stroke:none;fill-rule:evenodd;fill:rgb(0%,0%,0%);fill-opacity:1;" d="M 432.140625 389.101563 C 432.140625 384.734375 428.601563 381.195313 424.234375 381.195313 C 419.867188 381.195313 416.328125 384.734375 416.328125 389.101563 C 416.328125 393.46875 419.867188 397.007813 424.234375 397.007813 C 428.601563 397.007813 432.140625 393.46875 432.140625 389.101563 Z M 429.503906 389.101563 C 429.503906 382.074219 418.964844 382.074219 418.964844 389.101563 C 418.964844 396.128906 429.503906 396.128906 429.503906 389.101563 Z M 429.503906 389.101563 "/>
<path style=" stroke:none;fill-rule:evenodd;fill:rgb(100%,100%,100%);fill-opacity:1;" d="M 444.875 396.128906 C 444.875 392.488281 441.925781 389.539063 438.289063 389.539063 C 434.648438 389.539063 431.699219 392.488281 431.699219 396.128906 C 431.699219 399.765625 434.648438 402.714844 438.289063 402.714844 C 441.925781 402.714844 444.875 399.765625 444.875 396.128906 Z M 444.875 396.128906 "/>
<path style=" stroke:none;fill-rule:evenodd;fill:rgb(0%,0%,0%);fill-opacity:1;" d="M 446.191406 396.128906 C 446.191406 391.761719 442.652344 388.222656 438.289063 388.222656 C 433.921875 388.222656 430.382813 391.761719 430.382813 396.128906 C 430.382813 400.492188 433.921875 404.03125 438.289063 404.03125 C 442.652344 404.03125 446.191406 400.492188 446.191406 396.128906 Z M 443.558594 396.128906 C 443.558594 389.101563 433.019531 389.101563 433.019531 396.128906 C 433.019531 403.15625 443.558594 403.15625 443.558594 396.128906 Z M 443.558594 396.128906 "/>
<path style=" stroke:none;fill-rule:evenodd;fill:rgb(100%,100%,100%);fill-opacity:1;" d="M 477.679688 377.375 C 477.679688 373.738281 474.730469 370.789063 471.09375 370.789063 C 467.457031 370.789063 464.507813 373.738281 464.507813 377.375 C 464.507813 381.015625 467.457031 383.964844 471.09375 383.964844 C 474.730469 383.964844 477.679688 381.015625 477.679688 377.375 Z M 477.679688 377.375 "/>
<path style=" stroke:none;fill-rule:evenodd;fill:rgb(0%,0%,0%);fill-opacity:1;" d="M 479 377.375 C 479 373.011719 475.460938 369.46875 471.09375 369.46875 C 466.726563 369.46875 463.1875 373.011719 463.1875 377.375 C 463.1875 381.742188 466.726563 385.28125 471.09375 385.28125 C 475.460938 385.28125 479 381.742188 479 377.375 Z M 476.363281 377.375 C 476.363281 370.347656 465.824219 370.347656 465.824219 377.375 C 465.824219 384.402344 476.363281 384.402344 476.363281 377.375 Z M 476.363281 377.375 "/>
<path style=" stroke:none;fill-rule:evenodd;fill:rgb(100%,100%,100%);fill-opacity:1;" d="M 465.957031 353.96875 C 465.957031 350.328125 463.007813 347.378906 459.367188 347.378906 C 455.730469 347.378906 452.78125 350.328125 452.78125 353.96875 C 452.78125 357.605469 455.730469 360.554688 459.367188 360.554688 C 463.007813 360.554688 465.957031 357.605469 465.957031 353.96875 Z M 465.957031 353.96875 "/>
<path style=" stroke:none;fill-rule:evenodd;fill:rgb(0%,0%,0%);fill-opacity:1;" d="M 467.273438 353.96875 C 467.273438 349.601563 463.734375 346.0625 459.367188 346.0625 C 455.003906 346.0625 451.464844 349.601563 451.464844 353.96875 C 451.464844 358.332031 455.003906 361.875 459.367188 361.875 C 463.734375 361.875 467.273438 358.332031 467.273438 353.96875 Z M 464.636719 353.96875 C 464.636719 346.941406 454.097656 346.941406 454.097656 353.96875 C 454.097656 360.996094 464.636719 360.996094 464.636719 353.96875 Z M 464.636719 353.96875 "/>
<path style=" stroke:none;fill-rule:evenodd;fill:rgb(100%,100%,100%);fill-opacity:1;" d="M 487.035156 311.808594 C 487.035156 308.167969 484.085938 305.21875 480.449219 305.21875 C 476.808594 305.21875 473.859375 308.167969 473.859375 311.808594 C 473.859375 315.445313 476.808594 318.394531 480.449219 318.394531 C 484.085938 318.394531 487.035156 315.445313 487.035156 311.808594 Z M 487.035156 311.808594 "/>
<path style=" stroke:none;fill-rule:evenodd;fill:rgb(0%,0%,0%);fill-opacity:1;" d="M 488.351563 311.808594 C 488.351563 307.441406 484.8125 303.902344 480.449219 303.902344 C 476.082031 303.902344 472.542969 307.441406 472.542969 311.808594 C 472.542969 316.175781 476.082031 319.714844 480.449219 319.714844 C 484.8125 319.714844 488.351563 316.175781 488.351563 311.808594 Z M 485.71875 311.808594 C 485.71875 304.78125 475.179688 304.78125 475.179688 311.808594 C 475.179688 318.835938 485.71875 318.835938 485.71875 311.808594 Z M 485.71875 311.808594 "/>
<path style=" stroke:none;fill-rule:evenodd;fill:rgb(100%,100%,100%);fill-opacity:1;" d="M 606.488281 406.667969 C 606.488281 403.03125 603.539063 400.082031 599.902344 400.082031 C 596.261719 400.082031 593.3125 403.03125 593.3125 406.667969 C 593.3125 410.304688 596.261719 413.253906 599.902344 413.253906 C 603.539063 413.253906 606.488281 410.304688 606.488281 406.667969 Z M 606.488281 406.667969 "/>
<path style=" stroke:none;fill-rule:evenodd;fill:rgb(0%,0%,0%);fill-opacity:1;" d="M 607.804688 406.667969 C 607.804688 402.300781 604.265625 398.761719 599.902344 398.761719 C 595.535156 398.761719 591.996094 402.300781 591.996094 406.667969 C 591.996094 411.035156 595.535156 414.574219 599.902344 414.574219 C 604.265625 414.574219 607.804688 411.035156 607.804688 406.667969 Z M 605.171875 406.667969 C 605.171875 399.640625 594.632813 399.640625 594.632813 406.667969 C 594.632813 413.695313 605.171875 413.695313 605.171875 406.667969 Z M 605.171875 406.667969 "/>
<path style=" stroke:none;fill-rule:evenodd;fill:rgb(100%,100%,100%);fill-opacity:1;" d="M 641.621094 389.101563 C 641.621094 385.464844 638.671875 382.515625 635.035156 382.515625 C 631.394531 382.515625 628.445313 385.464844 628.445313 389.101563 C 628.445313 392.738281 631.394531 395.6875 635.035156 395.6875 C 638.671875 395.6875 641.621094 392.738281 641.621094 389.101563 Z M 641.621094 389.101563 "/>
<path style=" stroke:none;fill-rule:evenodd;fill:rgb(0%,0%,0%);fill-opacity:1;" d="M 642.941406 389.101563 C 642.941406 384.734375 639.398438 381.195313 635.035156 381.195313 C 630.667969 381.195313 627.128906 384.734375 627.128906 389.101563 C 627.128906 393.46875 630.667969 397.007813 635.035156 397.007813 C 639.398438 397.007813 642.941406 393.46875 642.941406 389.101563 Z M 640.304688 389.101563 C 640.304688 382.074219 629.765625 382.074219 629.765625 389.101563 C 629.765625 396.128906 640.304688 396.128906 640.304688 389.101563 Z M 640.304688 389.101563 "/>
<path style=" stroke:none;fill-rule:evenodd;fill:rgb(100%,100%,100%);fill-opacity:1;" d="M 676.753906 406.667969 C 676.753906 403.03125 673.804688 400.082031 670.167969 400.082031 C 666.53125 400.082031 663.582031 403.03125 663.582031 406.667969 C 663.582031 410.304688 666.53125 413.253906 670.167969 413.253906 C 673.804688 413.253906 676.753906 410.304688 676.753906 406.667969 Z M 676.753906 406.667969 "/>
<path style=" stroke:none;fill-rule:evenodd;fill:rgb(0%,0%,0%);fill-opacity:1;" d="M 678.074219 406.667969 C 678.074219 402.300781 674.535156 398.761719 670.167969 398.761719 C 665.800781 398.761719 662.261719 402.300781 662.261719 406.667969 C 662.261719 411.035156 665.800781 414.574219 670.167969 414.574219 C 674.535156 414.574219 678.074219 411.035156 678.074219 406.667969 Z M 675.4375 406.667969 C 675.4375 399.640625 664.898438 399.640625 664.898438 406.667969 C 664.898438 413.695313 675.4375 413.695313 675.4375 406.667969 Z M 675.4375 406.667969 "/>
<path style=" stroke:none;fill-rule:evenodd;fill:rgb(100%,100%,100%);fill-opacity:1;" d="M 676.753906 371.535156 C 676.753906 367.898438 673.804688 364.945313 670.167969 364.945313 C 666.53125 364.945313 663.582031 367.898438 663.582031 371.535156 C 663.582031 375.171875 666.53125 378.121094 670.167969 378.121094 C 673.804688 378.121094 676.753906 375.171875 676.753906 371.535156 Z M 676.753906 371.535156 "/>
<path style=" stroke:none;fill-rule:evenodd;fill:rgb(0%,0%,0%);fill-opacity:1;" d="M 678.074219 371.535156 C 678.074219 367.167969 674.535156 363.628906 670.167969 363.628906 C 665.800781 363.628906 662.261719 367.167969 662.261719 371.535156 C 662.261719 375.902344 665.800781 379.441406 670.167969 379.441406 C 674.535156 379.441406 678.074219 375.902344 678.074219 371.535156 Z M 675.4375 371.535156 C 675.4375 364.507813 664.898438 364.507813 664.898438 371.535156 C 664.898438 378.5625 675.4375 378.5625 675.4375 371.535156 Z M 675.4375 371.535156 "/>
<path style=" stroke:none;fill-rule:evenodd;fill:rgb(100%,100%,100%);fill-opacity:1;" d="M 711.886719 389.101563 C 711.886719 385.464844 708.9375 382.515625 705.300781 382.515625 C 701.664063 382.515625 698.714844 385.464844 698.714844 389.101563 C 698.714844 392.738281 701.664063 395.6875 705.300781 395.6875 C 708.9375 395.6875 711.886719 392.738281 711.886719 389.101563 Z M 711.886719 389.101563 "/>
<path style=" stroke:none;fill-rule:evenodd;fill:rgb(0%,0%,0%);fill-opacity:1;" d="M 713.207031 389.101563 C 713.207031 384.734375 709.667969 381.195313 705.300781 381.195313 C 700.933594 381.195313 697.394531 384.734375 697.394531 389.101563 C 697.394531 393.46875 700.933594 397.007813 705.300781 397.007813 C 709.667969 397.007813 713.207031 393.46875 713.207031 389.101563 Z M 710.570313 389.101563 C 710.570313 382.074219 700.03125 382.074219 700.03125 389.101563 C 700.03125 396.128906 710.570313 396.128906 710.570313 389.101563 Z M 710.570313 389.101563 "/>
<path style=" stroke:none;fill-rule:evenodd;fill:rgb(100%,100%,100%);fill-opacity:1;" d="M 725.941406 396.128906 C 725.941406 392.488281 722.992188 389.539063 719.355469 389.539063 C 715.714844 389.539063 712.765625 392.488281 712.765625 396.128906 C 712.765625 399.765625 715.714844 402.714844 719.355469 402.714844 C 722.992188 402.714844 725.941406 399.765625 725.941406 396.128906 Z M 725.941406 396.128906 "/>
<path style=" stroke:none;fill-rule:evenodd;fill:rgb(0%,0%,0%);fill-opacity:1;" d="M 727.257813 396.128906 C 727.257813 391.761719 723.71875 388.222656 719.355469 388.222656 C 714.988281 388.222656 711.449219 391.761719 711.449219 396.128906 C 711.449219 400.492188 714.988281 404.03125 719.355469 404.03125 C 723.71875 404.03125 727.257813 400.492188 727.257813 396.128906 Z M 724.625 396.128906 C 724.625 389.101563 714.085938 389.101563 714.085938 396.128906 C 714.085938 403.15625 724.625 403.15625 724.625 396.128906 Z M 724.625 396.128906 "/>
<path style=" stroke:none;fill-rule:evenodd;fill:rgb(100%,100%,100%);fill-opacity:1;" d="M 735.296875 377.375 C 735.296875 373.738281 732.347656 370.789063 728.707031 370.789063 C 725.070313 370.789063 722.121094 373.738281 722.121094 377.375 C 722.121094 381.015625 725.070313 383.964844 728.707031 383.964844 C 732.347656 383.964844 735.296875 381.015625 735.296875 377.375 Z M 735.296875 377.375 "/>
<path style=" stroke:none;fill-rule:evenodd;fill:rgb(0%,0%,0%);fill-opacity:1;" d="M 736.613281 377.375 C 736.613281 373.011719 733.074219 369.46875 728.707031 369.46875 C 724.34375 369.46875 720.804688 373.011719 720.804688 377.375 C 720.804688 381.742188 724.34375 385.28125 728.707031 385.28125 C 733.074219 385.28125 736.613281 381.742188 736.613281 377.375 Z M 733.980469 377.375 C 733.980469 370.347656 723.4375 370.347656 723.4375 377.375 C 723.4375 384.402344 733.980469 384.402344 733.980469 377.375 Z M 733.980469 377.375 "/>
<path style=" stroke:none;fill-rule:evenodd;fill:rgb(100%,100%,100%);fill-opacity:1;" d="M 754.046875 368.019531 C 754.046875 364.382813 751.097656 361.433594 747.460938 361.433594 C 743.824219 361.433594 740.875 364.382813 740.875 368.019531 C 740.875 371.660156 743.824219 374.609375 747.460938 374.609375 C 751.097656 374.609375 754.046875 371.660156 754.046875 368.019531 Z M 754.046875 368.019531 "/>
<path style=" stroke:none;fill-rule:evenodd;fill:rgb(0%,0%,0%);fill-opacity:1;" d="M 755.367188 368.019531 C 755.367188 363.65625 751.828125 360.117188 747.460938 360.117188 C 743.09375 360.117188 739.554688 363.65625 739.554688 368.019531 C 739.554688 372.386719 743.09375 375.925781 747.460938 375.925781 C 751.828125 375.925781 755.367188 372.386719 755.367188 368.019531 Z M 752.730469 368.019531 C 752.730469 360.996094 742.191406 360.996094 742.191406 368.019531 C 742.191406 375.046875 752.730469 375.046875 752.730469 368.019531 Z M 752.730469 368.019531 "/>
<path style=" stroke:none;fill-rule:evenodd;fill:rgb(100%,100%,100%);fill-opacity:1;" d="M 747.023438 353.96875 C 747.023438 350.328125 744.074219 347.378906 740.433594 347.378906 C 736.796875 347.378906 733.847656 350.328125 733.847656 353.96875 C 733.847656 357.605469 736.796875 360.554688 740.433594 360.554688 C 744.074219 360.554688 747.023438 357.605469 747.023438 353.96875 Z M 747.023438 353.96875 "/>
<path style=" stroke:none;fill-rule:evenodd;fill:rgb(0%,0%,0%);fill-opacity:1;" d="M 748.339844 353.96875 C 748.339844 349.601563 744.800781 346.0625 740.433594 346.0625 C 736.070313 346.0625 732.53125 349.601563 732.53125 353.96875 C 732.53125 358.332031 736.070313 361.875 740.433594 361.875 C 744.800781 361.875 748.339844 358.332031 748.339844 353.96875 Z M 745.703125 353.96875 C 745.703125 346.941406 735.164063 346.941406 735.164063 353.96875 C 735.164063 360.996094 745.703125 360.996094 745.703125 353.96875 Z M 745.703125 353.96875 "/>
<path style=" stroke:none;fill-rule:evenodd;fill:rgb(100%,100%,100%);fill-opacity:1;" d="M 754.046875 339.914063 C 754.046875 336.277344 751.097656 333.328125 747.460938 333.328125 C 743.824219 333.328125 740.875 336.277344 740.875 339.914063 C 740.875 343.554688 743.824219 346.503906 747.460938 346.503906 C 751.097656 346.503906 754.046875 343.554688 754.046875 339.914063 Z M 754.046875 339.914063 "/>
<path style=" stroke:none;fill-rule:evenodd;fill:rgb(0%,0%,0%);fill-opacity:1;" d="M 755.367188 339.914063 C 755.367188 335.550781 751.828125 332.007813 747.460938 332.007813 C 743.09375 332.007813 739.554688 335.550781 739.554688 339.914063 C 739.554688 344.28125 743.09375 347.820313 747.460938 347.820313 C 751.828125 347.820313 755.367188 344.28125 755.367188 339.914063 Z M 752.730469 339.914063 C 752.730469 332.886719 742.191406 332.886719 742.191406 339.914063 C 742.191406 346.941406 752.730469 346.941406 752.730469 339.914063 Z M 752.730469 339.914063 "/>
<path style=" stroke:none;fill-rule:evenodd;fill:rgb(100%,100%,100%);fill-opacity:1;" d="M 735.296875 330.558594 C 735.296875 326.921875 732.347656 323.972656 728.707031 323.972656 C 725.070313 323.972656 722.121094 326.921875 722.121094 330.558594 C 722.121094 334.199219 725.070313 337.148438 728.707031 337.148438 C 732.347656 337.148438 735.296875 334.199219 735.296875 330.558594 Z M 735.296875 330.558594 "/>
<path style=" stroke:none;fill-rule:evenodd;fill:rgb(0%,0%,0%);fill-opacity:1;" d="M 736.613281 330.558594 C 736.613281 326.195313 733.074219 322.65625 728.707031 322.65625 C 724.34375 322.65625 720.804688 326.195313 720.804688 330.558594 C 720.804688 334.925781 724.34375 338.464844 728.707031 338.464844 C 733.074219 338.464844 736.613281 334.925781 736.613281 330.558594 Z M 733.980469 330.558594 C 733.980469 323.535156 723.4375 323.535156 723.4375 330.558594 C 723.4375 337.585938 733.980469 337.585938 733.980469 330.558594 Z M 733.980469 330.558594 "/>
<path style=" stroke:none;fill-rule:evenodd;fill:rgb(100%,100%,100%);fill-opacity:1;" d="M 454.230469 377.375 C 454.230469 373.738281 451.28125 370.789063 447.640625 370.789063 C 444.003906 370.789063 441.054688 373.738281 441.054688 377.375 C 441.054688 381.015625 444.003906 383.964844 447.640625 383.964844 C 451.28125 383.964844 454.230469 381.015625 454.230469 377.375 Z M 454.230469 377.375 "/>
<path style=" stroke:none;fill-rule:evenodd;fill:rgb(0%,0%,0%);fill-opacity:1;" d="M 455.546875 377.375 C 455.546875 373.011719 452.007813 369.46875 447.640625 369.46875 C 443.277344 369.46875 439.738281 373.011719 439.738281 377.375 C 439.738281 381.742188 443.277344 385.28125 447.640625 385.28125 C 452.007813 385.28125 455.546875 381.742188 455.546875 377.375 Z M 452.914063 377.375 C 452.914063 370.347656 442.371094 370.347656 442.371094 377.375 C 442.371094 384.402344 452.914063 384.402344 452.914063 377.375 Z M 452.914063 377.375 "/>
<path style=" stroke:none;fill-rule:evenodd;fill:rgb(0%,0%,100%);fill-opacity:1;" d="M 502.40625 353.96875 C 502.40625 349.601563 498.867188 346.0625 494.5 346.0625 C 490.136719 346.0625 486.597656 349.601563 486.597656 353.96875 C 486.597656 358.332031 490.136719 361.875 494.5 361.875 C 498.867188 361.875 502.40625 358.332031 502.40625 353.96875 Z M 502.40625 353.96875 "/>
<path style=" stroke:none;fill-rule:evenodd;fill:rgb(100%,100%,100%);fill-opacity:1;" d="M 458.929688 368.019531 C 458.929688 364.382813 455.980469 361.433594 452.339844 361.433594 C 448.703125 361.433594 445.753906 364.382813 445.753906 368.019531 C 445.753906 371.660156 448.703125 374.609375 452.339844 374.609375 C 455.980469 374.609375 458.929688 371.660156 458.929688 368.019531 Z M 458.929688 368.019531 "/>
<path style=" stroke:none;fill-rule:evenodd;fill:rgb(0%,0%,0%);fill-opacity:1;" d="M 460.246094 368.019531 C 460.246094 363.65625 456.707031 360.117188 452.339844 360.117188 C 447.976563 360.117188 444.4375 363.65625 444.4375 368.019531 C 444.4375 372.386719 447.976563 375.925781 452.339844 375.925781 C 456.707031 375.925781 460.246094 372.386719 460.246094 368.019531 Z M 457.609375 368.019531 C 457.609375 360.996094 447.070313 360.996094 447.070313 368.019531 C 447.070313 375.046875 457.609375 375.046875 457.609375 368.019531 Z M 457.609375 368.019531 "/>
<path style=" stroke:none;fill-rule:evenodd;fill:rgb(100%,100%,100%);fill-opacity:1;" d="M 472.980469 368.019531 C 472.980469 364.382813 470.03125 361.433594 466.394531 361.433594 C 462.757813 361.433594 459.808594 364.382813 459.808594 368.019531 C 459.808594 371.660156 462.757813 374.609375 466.394531 374.609375 C 470.03125 374.609375 472.980469 371.660156 472.980469 368.019531 Z M 472.980469 368.019531 "/>
<path style=" stroke:none;fill-rule:evenodd;fill:rgb(0%,0%,0%);fill-opacity:1;" d="M 474.300781 368.019531 C 474.300781 363.65625 470.761719 360.117188 466.394531 360.117188 C 462.027344 360.117188 458.488281 363.65625 458.488281 368.019531 C 458.488281 372.386719 462.027344 375.925781 466.394531 375.925781 C 470.761719 375.925781 474.300781 372.386719 474.300781 368.019531 Z M 471.664063 368.019531 C 471.664063 360.996094 461.125 360.996094 461.125 368.019531 C 461.125 375.046875 471.664063 375.046875 471.664063 368.019531 Z M 471.664063 368.019531 "/>
<path style=" stroke:none;fill-rule:evenodd;fill:rgb(100%,100%,100%);fill-opacity:1;" d="M 465.957031 371.535156 C 465.957031 367.898438 463.007813 364.945313 459.367188 364.945313 C 455.730469 364.945313 452.78125 367.898438 452.78125 371.535156 C 452.78125 375.171875 455.730469 378.121094 459.367188 378.121094 C 463.007813 378.121094 465.957031 375.171875 465.957031 371.535156 Z M 465.957031 371.535156 "/>
<path style=" stroke:none;fill-rule:evenodd;fill:rgb(0%,0%,0%);fill-opacity:1;" d="M 467.273438 371.535156 C 467.273438 367.167969 463.734375 363.628906 459.367188 363.628906 C 455.003906 363.628906 451.464844 367.167969 451.464844 371.535156 C 451.464844 375.902344 455.003906 379.441406 459.367188 379.441406 C 463.734375 379.441406 467.273438 375.902344 467.273438 371.535156 Z M 464.636719 371.535156 C 464.636719 364.507813 454.097656 364.507813 454.097656 371.535156 C 454.097656 378.5625 464.636719 378.5625 464.636719 371.535156 Z M 464.636719 371.535156 "/>
</g>
</svg>
