<?xml version="1.0" encoding="UTF-8"?>
<svg xmlns="http://www.w3.org/2000/svg" xmlns:xlink="http://www.w3.org/1999/xlink" width="669pt" height="823pt" viewBox="0 0 669 823" version="1.1">
<g id="surface2130">
<path style="fill:none;stroke-width:10;stroke-linecap:butt;stroke-linejoin:round;stroke:rgb(0%,0%,0%);stroke-opacity:1;stroke-miterlimit:10;" d="M 1825.333091 2366.666909 C 1826.666396 2368.000215 1829.333008 2368.000215 1849.333408 2368.000215 C 1869.332995 2368.000215 1906.666369 2368.000215 1926.666769 2368.000215 C 1946.666356 2368.000215 1949.332968 2368.000215 1950.666273 2366.666909 C 1952.000392 2365.333604 1952.000392 2362.666992 1952.000392 2337.333369 C 1952.000392 2311.999747 1952.000392 2263.999925 1952.000392 2238.666303 C 1952.000392 2213.333492 1952.000392 2210.666881 1950.666273 2209.333575 C 1949.332968 2208.000269 1946.666356 2208.000269 1926.666769 2208.000269 C 1906.666369 2208.000269 1869.332995 2208.000269 1849.333408 2208.000269 C 1829.333008 2208.000269 1826.666396 2208.000269 1825.333091 2209.333575 C 1823.999785 2210.666881 1823.999785 2213.333492 1823.999785 2238.666303 C 1823.999785 2263.999925 1823.999785 2311.999747 1823.999785 2337.333369 C 1823.999785 2362.666992 1823.999785 2365.333604 1825.333091 2366.666909 Z M 1825.333091 2366.666909 " transform="matrix(4.807716,0,0,-4.807716,-8742.832395,11411.115034)"/>
<path style="fill:none;stroke-width:9;stroke-linecap:butt;stroke-linejoin:round;stroke:rgb(0%,0%,0%);stroke-opacity:1;stroke-miterlimit:10;" d="M 1841.333573 2350.666427 C 1842.666879 2351.999733 1845.33349 2351.999733 1850.666713 2351.999733 C 1855.999937 2351.999733 1863.999771 2351.999733 1869.332995 2351.999733 C 1874.66703 2351.999733 1877.333642 2351.999733 1878.666948 2350.666427 C 1880.000253 2349.333121 1880.000253 2346.66651 1880.000253 2339.999981 C 1880.000253 2333.333452 1880.000253 2322.667005 1880.000253 2315.999664 C 1880.000253 2309.333135 1880.000253 2306.666523 1878.666948 2305.333218 C 1877.333642 2303.999912 1874.66703 2303.999912 1869.332995 2303.999912 C 1863.999771 2303.999912 1855.999937 2303.999912 1850.666713 2303.999912 C 1845.33349 2303.999912 1842.666879 2303.999912 1841.333573 2305.333218 C 1840.000267 2306.666523 1840.000267 2309.333135 1840.000267 2315.999664 C 1840.000267 2322.667005 1840.000267 2333.333452 1840.000267 2339.999981 C 1840.000267 2346.66651 1840.000267 2349.333121 1841.333573 2350.666427 Z M 1841.333573 2350.666427 " transform="matrix(4.807716,0,0,-4.807716,-8742.832395,11411.115034)"/>
<path style="fill:none;stroke-width:9;stroke-linecap:round;stroke-linejoin:round;stroke:rgb(0%,0%,0%);stroke-opacity:1;stroke-miterlimit:10;" d="M 1840.000267 2279.999595 L 1935.99991 2279.999595 " transform="matrix(4.807716,0,0,-4.807716,-8742.832395,11411.115034)"/>
<path style="fill:none;stroke-width:9;stroke-linecap:round;stroke-linejoin:round;stroke:rgb(0%,0%,0%);stroke-opacity:1;stroke-miterlimit:10;" d="M 1840.000267 2263.999925 L 1935.99991 2263.999925 " transform="matrix(4.807716,0,0,-4.807716,-8742.832395,11411.115034)"/>
<path style="fill:none;stroke-width:9;stroke-linecap:round;stroke-linejoin:round;stroke:rgb(0%,0%,0%);stroke-opacity:1;stroke-miterlimit:10;" d="M 1840.000267 2248.000256 L 1935.99991 2248.000256 " transform="matrix(4.807716,0,0,-4.807716,-8742.832395,11411.115034)"/>
<path style="fill:none;stroke-width:9;stroke-linecap:round;stroke-linejoin:round;stroke:rgb(0%,0%,0%);stroke-opacity:1;stroke-miterlimit:10;" d="M 1840.000267 2231.999774 L 1895.999923 2231.999774 " transform="matrix(4.807716,0,0,-4.807716,-8742.832395,11411.115034)"/>
<path style="fill:none;stroke-width:7;stroke-linecap:round;stroke-linejoin:round;stroke:rgb(0%,0%,0%);stroke-opacity:1;stroke-miterlimit:10;" d="M 1910.510288 2334.129698 C 1906.295871 2335.838377 1903.013388 2335.649065 1900.662025 2334.966569 C 1898.311474 2334.284072 1896.892856 2333.10839 1895.999111 2331.677585 C 1895.105365 2330.247592 1894.736492 2328.562476 1894.533368 2326.516611 C 1894.331056 2324.469934 1894.293682 2322.061696 1894.899804 2319.82652 C 1895.506738 2317.591343 1896.757169 2315.528416 1899.269407 2314.403109 C 1901.780832 2313.27699 1905.554063 2313.087679 1910.398163 2314.572109 " transform="matrix(4.807716,0,0,-4.807716,-8742.832395,11411.115034)"/>
<path style="fill:none;stroke-width:7;stroke-linecap:round;stroke-linejoin:round;stroke:rgb(0%,0%,0%);stroke-opacity:1;stroke-miterlimit:10;" d="M 1921.370108 2335.600315 L 1928.692321 2313.466302 L 1936.028347 2335.502003 " transform="matrix(4.807716,0,0,-4.807716,-8742.832395,11411.115034)"/>
</g>
</svg>
